<svg width="164" height="134" viewBox="0 0 164 134" fill="none" xmlns="http://www.w3.org/2000/svg">
<g clip-path="url(#clip0_13_8220)">
<path d="M134.648 47.105H27.8782C22.9132 47.105 18.8882 51.1299 18.8882 56.095V118.085C18.8882 123.05 22.9132 127.075 27.8782 127.075H134.648C139.613 127.075 143.638 123.05 143.638 118.085V56.095C143.638 51.1299 139.613 47.105 134.648 47.105Z" fill="#ABBCD3"/>
<path d="M131.178 31.4346H19.9882C17.1771 31.4346 14.8982 33.7134 14.8982 36.5246V115.515C14.8982 118.326 17.1771 120.605 19.9882 120.605H131.178C133.989 120.605 136.268 118.326 136.268 115.515V36.5246C136.268 33.7134 133.989 31.4346 131.178 31.4346Z" fill="#383856"/>
<path d="M76.3682 31.4048L58.9782 120.635H51.8482L69.2482 31.4048H76.3682Z" fill="#4A4A68"/>
<path d="M109.458 31.3447L92.1582 120.575H75.5782L92.9782 31.3447H109.458Z" fill="#4A4A68"/>
<path d="M121.868 31.3447L104.468 120.575H97.3482L114.748 31.3447H121.868Z" fill="#4A4A68"/>
<path d="M24.5882 106.195C24.2514 106.195 23.9284 106.061 23.6902 105.823C23.452 105.585 23.3182 105.261 23.3182 104.925V57.2846C23.3182 56.9478 23.452 56.6248 23.6902 56.3866C23.9284 56.1485 24.2514 56.0146 24.5882 56.0146C24.9251 56.0146 25.2481 56.1485 25.4863 56.3866C25.7244 56.6248 25.8582 56.9478 25.8582 57.2846V104.925C25.8582 105.261 25.7244 105.585 25.4863 105.823C25.2481 106.061 24.9251 106.195 24.5882 106.195Z" fill="#4A4A68"/>
<path d="M71.6282 56.3448H30.6982C30.3773 56.3448 30.0696 56.2173 29.8426 55.9904C29.6157 55.7635 29.4882 55.4557 29.4882 55.1348C29.4882 54.8139 29.6157 54.5061 29.8426 54.2792C30.0696 54.0523 30.3773 53.9248 30.6982 53.9248H71.6282C71.9491 53.9248 72.2569 54.0523 72.4838 54.2792C72.7108 54.5061 72.8382 54.8139 72.8382 55.1348C72.8382 55.4557 72.7108 55.7635 72.4838 55.9904C72.2569 56.2173 71.9491 56.3448 71.6282 56.3448Z" fill="#3BC197"/>
<path d="M56.9082 61.545H30.6982C30.3773 61.545 30.0696 61.4175 29.8426 61.1906C29.6157 60.9637 29.4882 60.6559 29.4882 60.335C29.4882 60.0141 29.6157 59.7063 29.8426 59.4794C30.0696 59.2525 30.3773 59.125 30.6982 59.125H56.9082C57.2291 59.125 57.5369 59.2525 57.7638 59.4794C57.9908 59.7063 58.1182 60.0141 58.1182 60.335C58.1182 60.6559 57.9908 60.9637 57.7638 61.1906C57.5369 61.4175 57.2291 61.545 56.9082 61.545Z" fill="#F76B9A"/>
<path d="M46.4882 67.025H30.6982C30.3773 67.025 30.0696 66.8975 29.8426 66.6706C29.6157 66.4437 29.4882 66.1359 29.4882 65.815C29.4882 65.4941 29.6157 65.1863 29.8426 64.9594C30.0696 64.7325 30.3773 64.605 30.6982 64.605H46.4882C46.8091 64.605 47.1169 64.7325 47.3438 64.9594C47.5708 65.1863 47.6982 65.4941 47.6982 65.815C47.6982 66.1359 47.5708 66.4437 47.3438 66.6706C47.1169 66.8975 46.8091 67.025 46.4882 67.025Z" fill="#43FFFF"/>
<path d="M55.2882 67.025H51.1582C50.8373 67.025 50.5296 66.8975 50.3026 66.6706C50.0757 66.4437 49.9482 66.1359 49.9482 65.815C49.9482 65.4941 50.0757 65.1863 50.3026 64.9594C50.5296 64.7325 50.8373 64.605 51.1582 64.605H55.2882C55.6092 64.605 55.9169 64.7325 56.1438 64.9594C56.3708 65.1863 56.4982 65.4941 56.4982 65.815C56.4982 66.1359 56.3708 66.4437 56.1438 66.6706C55.9169 66.8975 55.6092 67.025 55.2882 67.025Z" fill="#43FFFF"/>
<path d="M66.7182 67.025H61.0982C60.7773 67.025 60.4696 66.8975 60.2426 66.6706C60.0157 66.4437 59.8882 66.1359 59.8882 65.815C59.8882 65.4941 60.0157 65.1863 60.2426 64.9594C60.4696 64.7325 60.7773 64.605 61.0982 64.605H66.7182C67.0392 64.605 67.3469 64.7325 67.5738 64.9594C67.8008 65.1863 67.9282 65.4941 67.9282 65.815C67.9282 66.1359 67.8008 66.4437 67.5738 66.6706C67.3469 66.8975 67.0392 67.025 66.7182 67.025Z" fill="#43FFFF"/>
<path d="M71.6282 77.1646H30.6982C30.3773 77.1646 30.0696 77.0371 29.8426 76.8102C29.6157 76.5833 29.4882 76.2755 29.4882 75.9546C29.4882 75.6337 29.6157 75.3259 29.8426 75.099C30.0696 74.8721 30.3773 74.7446 30.6982 74.7446H71.6282C71.9491 74.7446 72.2569 74.8721 72.4838 75.099C72.7108 75.3259 72.8382 75.6337 72.8382 75.9546C72.8382 76.2755 72.7108 76.5833 72.4838 76.8102C72.2569 77.0371 71.9491 77.1646 71.6282 77.1646Z" fill="#3BC197"/>
<path d="M56.9082 82.4146H30.6982C30.3773 82.4146 30.0696 82.2871 29.8426 82.0602C29.6157 81.8333 29.4882 81.5255 29.4882 81.2046C29.4882 80.8837 29.6157 80.5759 29.8426 80.349C30.0696 80.1221 30.3773 79.9946 30.6982 79.9946H56.9082C57.2291 79.9946 57.5369 80.1221 57.7638 80.349C57.9908 80.5759 58.1182 80.8837 58.1182 81.2046C58.1182 81.5255 57.9908 81.8333 57.7638 82.0602C57.5369 82.2871 57.2291 82.4146 56.9082 82.4146Z" fill="#F76B9A"/>
<path d="M46.4882 87.8546H30.6982C30.3773 87.8546 30.0696 87.7271 29.8426 87.5002C29.6157 87.2733 29.4882 86.9655 29.4882 86.6446C29.4882 86.3237 29.6157 86.0159 29.8426 85.789C30.0696 85.5621 30.3773 85.4346 30.6982 85.4346H46.4882C46.8091 85.4346 47.1169 85.5621 47.3438 85.789C47.5708 86.0159 47.6982 86.3237 47.6982 86.6446C47.6982 86.9655 47.5708 87.2733 47.3438 87.5002C47.1169 87.7271 46.8091 87.8546 46.4882 87.8546Z" fill="#43FFFF"/>
<path d="M55.2882 87.8546H51.1582C50.8373 87.8546 50.5296 87.7271 50.3026 87.5002C50.0757 87.2733 49.9482 86.9655 49.9482 86.6446C49.9482 86.3237 50.0757 86.0159 50.3026 85.789C50.5296 85.5621 50.8373 85.4346 51.1582 85.4346H55.2882C55.6092 85.4346 55.9169 85.5621 56.1438 85.789C56.3708 86.0159 56.4982 86.3237 56.4982 86.6446C56.4982 86.9655 56.3708 87.2733 56.1438 87.5002C55.9169 87.7271 55.6092 87.8546 55.2882 87.8546Z" fill="#43FFFF"/>
<path d="M66.7182 87.8546H61.0982C60.7773 87.8546 60.4696 87.7271 60.2426 87.5002C60.0157 87.2733 59.8882 86.9655 59.8882 86.6446C59.8882 86.3237 60.0157 86.0159 60.2426 85.789C60.4696 85.5621 60.7773 85.4346 61.0982 85.4346H66.7182C67.0392 85.4346 67.3469 85.5621 67.5738 85.789C67.8008 86.0159 67.9282 86.3237 67.9282 86.6446C67.9282 86.9655 67.8008 87.2733 67.5738 87.5002C67.3469 87.7271 67.0392 87.8546 66.7182 87.8546Z" fill="#43FFFF"/>
<path d="M71.6282 72.1547H30.6982C30.3614 72.1547 30.0384 72.0209 29.8002 71.7828C29.562 71.5446 29.4282 71.2216 29.4282 70.8848C29.4282 70.5479 29.562 70.2249 29.8002 69.9867C30.0384 69.7486 30.3614 69.6147 30.6982 69.6147H71.6282C71.9651 69.6147 72.2881 69.7486 72.5263 69.9867C72.7644 70.2249 72.8982 70.5479 72.8982 70.8848C72.8982 71.2216 72.7644 71.5446 72.5263 71.7828C72.2881 72.0209 71.9651 72.1547 71.6282 72.1547Z" fill="#3C3C5B"/>
<path d="M71.6282 92.9848H30.6982C30.3614 92.9848 30.0384 92.851 29.8002 92.6129C29.562 92.3747 29.4282 92.0517 29.4282 91.7148C29.4282 91.378 29.562 91.055 29.8002 90.8168C30.0384 90.5786 30.3614 90.4448 30.6982 90.4448H71.6282C71.9651 90.4448 72.2881 90.5786 72.5263 90.8168C72.7644 91.055 72.8982 91.378 72.8982 91.7148C72.8982 92.0517 72.7644 92.3747 72.5263 92.6129C72.2881 92.851 71.9651 92.9848 71.6282 92.9848Z" fill="#3C3C5B"/>
<path d="M71.6282 97.9947H30.6982C30.3773 97.9947 30.0696 97.8672 29.8426 97.6403C29.6157 97.4134 29.4882 97.1056 29.4882 96.7847C29.4882 96.4638 29.6157 96.156 29.8426 95.9291C30.0696 95.7022 30.3773 95.5747 30.6982 95.5747H71.6282C71.9491 95.5747 72.2569 95.7022 72.4838 95.9291C72.7108 96.156 72.8382 96.4638 72.8382 96.7847C72.8382 97.1056 72.7108 97.4134 72.4838 97.6403C72.2569 97.8672 71.9491 97.9947 71.6282 97.9947Z" fill="#3BC197"/>
<path d="M56.9082 103.205H30.6982C30.3773 103.205 30.0696 103.077 29.8426 102.85C29.6157 102.623 29.4882 102.316 29.4882 101.995C29.4882 101.674 29.6157 101.366 29.8426 101.139C30.0696 100.912 30.3773 100.785 30.6982 100.785H56.9082C57.2291 100.785 57.5369 100.912 57.7638 101.139C57.9908 101.366 58.1182 101.674 58.1182 101.995C58.1182 102.316 57.9908 102.623 57.7638 102.85C57.5369 103.077 57.2291 103.205 56.9082 103.205Z" fill="#F76B9A"/>
<path d="M46.4882 108.675H30.6982C30.3773 108.675 30.0696 108.547 29.8426 108.32C29.6157 108.094 29.4882 107.786 29.4882 107.465C29.4882 107.144 29.6157 106.836 29.8426 106.609C30.0696 106.382 30.3773 106.255 30.6982 106.255H46.4882C46.8091 106.255 47.1169 106.382 47.3438 106.609C47.5708 106.836 47.6982 107.144 47.6982 107.465C47.6982 107.786 47.5708 108.094 47.3438 108.32C47.1169 108.547 46.8091 108.675 46.4882 108.675Z" fill="#43FFFF"/>
<path d="M55.2882 108.675H51.1582C50.8373 108.675 50.5296 108.547 50.3026 108.32C50.0757 108.094 49.9482 107.786 49.9482 107.465C49.9482 107.144 50.0757 106.836 50.3026 106.609C50.5296 106.382 50.8373 106.255 51.1582 106.255H55.2882C55.6092 106.255 55.9169 106.382 56.1438 106.609C56.3708 106.836 56.4982 107.144 56.4982 107.465C56.4982 107.786 56.3708 108.094 56.1438 108.32C55.9169 108.547 55.6092 108.675 55.2882 108.675Z" fill="#43FFFF"/>
<path d="M66.7182 108.675H61.0982C60.7773 108.675 60.4696 108.547 60.2426 108.32C60.0157 108.094 59.8882 107.786 59.8882 107.465C59.8882 107.144 60.0157 106.836 60.2426 106.609C60.4696 106.382 60.7773 106.255 61.0982 106.255H66.7182C67.0392 106.255 67.3469 106.382 67.5738 106.609C67.8008 106.836 67.9282 107.144 67.9282 107.465C67.9282 107.786 67.8008 108.094 67.5738 108.32C67.3469 108.547 67.0392 108.675 66.7182 108.675Z" fill="#43FFFF"/>
<path d="M126.298 102.645H105.298C105.126 102.645 104.961 102.576 104.839 102.454C104.717 102.332 104.648 102.167 104.648 101.995C104.648 101.822 104.717 101.657 104.839 101.535C104.961 101.413 105.126 101.345 105.298 101.345H126.298C126.471 101.345 126.636 101.413 126.758 101.535C126.88 101.657 126.948 101.822 126.948 101.995C126.948 102.167 126.88 102.332 126.758 102.454C126.636 102.576 126.471 102.645 126.298 102.645Z" fill="#6F6F8E"/>
<path d="M118.788 105.315H105.318C105.146 105.315 104.981 105.246 104.859 105.125C104.737 105.003 104.668 104.837 104.668 104.665C104.668 104.492 104.736 104.325 104.858 104.202C104.98 104.078 105.145 104.008 105.318 104.005H118.788C118.962 104.008 119.127 104.078 119.248 104.202C119.37 104.325 119.438 104.492 119.438 104.665C119.438 104.837 119.37 105.003 119.248 105.125C119.126 105.246 118.961 105.315 118.788 105.315Z" fill="#6F6F8E"/>
<path d="M113.418 108.125H105.318C105.145 108.122 104.98 108.052 104.858 107.928C104.736 107.805 104.668 107.638 104.668 107.465C104.668 107.293 104.737 107.127 104.859 107.005C104.981 106.883 105.146 106.815 105.318 106.815H113.418C113.591 106.815 113.756 106.883 113.878 107.005C114 107.127 114.068 107.293 114.068 107.465C114.068 107.638 114 107.805 113.878 107.928C113.757 108.052 113.592 108.122 113.418 108.125Z" fill="#6F6F8E"/>
<path d="M117.928 108.125H115.788C115.615 108.122 115.45 108.052 115.328 107.928C115.206 107.805 115.138 107.638 115.138 107.465C115.138 107.293 115.207 107.127 115.329 107.005C115.451 106.883 115.616 106.815 115.788 106.815H117.908C118.081 106.815 118.246 106.883 118.368 107.005C118.49 107.127 118.558 107.293 118.558 107.465C118.558 107.635 118.493 107.798 118.376 107.921C118.258 108.044 118.098 108.117 117.928 108.125Z" fill="#6F6F8E"/>
<path d="M123.788 108.125H120.908C120.734 108.122 120.568 108.052 120.444 107.929C120.321 107.806 120.251 107.639 120.248 107.465C120.251 107.292 120.322 107.126 120.445 107.005C120.569 106.883 120.735 106.815 120.908 106.815H123.788C123.961 106.815 124.126 106.883 124.248 107.005C124.37 107.127 124.438 107.293 124.438 107.465C124.438 107.638 124.37 107.805 124.248 107.928C124.127 108.052 123.962 108.122 123.788 108.125Z" fill="#6F6F8E"/>
<path d="M126.298 90.7746H105.298C105.126 90.7746 104.961 90.7061 104.839 90.5842C104.717 90.4623 104.648 90.297 104.648 90.1246C104.648 89.9522 104.717 89.7869 104.839 89.665C104.961 89.5431 105.126 89.4746 105.298 89.4746H126.298C126.384 89.4746 126.468 89.4914 126.547 89.5241C126.626 89.5568 126.698 89.6046 126.758 89.665C126.818 89.7254 126.866 89.797 126.899 89.8759C126.931 89.9547 126.948 90.0393 126.948 90.1246C126.948 90.21 126.931 90.2945 126.899 90.3734C126.866 90.4522 126.818 90.5239 126.758 90.5842C126.698 90.6446 126.626 90.6925 126.547 90.7251C126.468 90.7578 126.384 90.7746 126.298 90.7746Z" fill="#6F6F8E"/>
<path d="M118.788 93.4147H105.318C105.146 93.4147 104.981 93.3463 104.859 93.2244C104.737 93.1025 104.668 92.9371 104.668 92.7647C104.668 92.5924 104.737 92.427 104.859 92.3051C104.981 92.1832 105.146 92.1147 105.318 92.1147H118.788C118.961 92.1147 119.126 92.1832 119.248 92.3051C119.37 92.427 119.438 92.5924 119.438 92.7647C119.438 92.9371 119.37 93.1025 119.248 93.2244C119.126 93.3463 118.961 93.4147 118.788 93.4147Z" fill="#6F6F8E"/>
<path d="M113.418 96.2546H105.318C105.146 96.2546 104.981 96.1861 104.859 96.0642C104.737 95.9423 104.668 95.777 104.668 95.6046C104.668 95.4322 104.737 95.2669 104.859 95.145C104.981 95.0231 105.146 94.9546 105.318 94.9546H113.418C113.591 94.9546 113.756 95.0231 113.878 95.145C114 95.2669 114.068 95.4322 114.068 95.6046C114.068 95.777 114 95.9423 113.878 96.0642C113.756 96.1861 113.591 96.2546 113.418 96.2546Z" fill="#6F6F8E"/>
<path d="M117.928 96.2546H115.788C115.616 96.2546 115.451 96.1861 115.329 96.0642C115.207 95.9423 115.138 95.777 115.138 95.6046C115.138 95.4322 115.207 95.2669 115.329 95.145C115.451 95.0231 115.616 94.9546 115.788 94.9546H117.908C118.081 94.9546 118.246 95.0231 118.368 95.145C118.49 95.2669 118.558 95.4322 118.558 95.6046C118.558 95.777 118.49 95.9423 118.368 96.0642C118.246 96.1861 118.081 96.2546 117.908 96.2546H117.928Z" fill="#6F6F8E"/>
<path d="M123.788 96.2546H120.908C120.736 96.2546 120.571 96.1861 120.449 96.0642C120.327 95.9423 120.258 95.777 120.258 95.6046C120.258 95.4322 120.327 95.2669 120.449 95.145C120.571 95.0231 120.736 94.9546 120.908 94.9546H123.788C123.961 94.9546 124.126 95.0231 124.248 95.145C124.37 95.2669 124.438 95.4322 124.438 95.6046C124.438 95.777 124.37 95.9423 124.248 96.0642C124.126 96.1861 123.961 96.2546 123.788 96.2546Z" fill="#6F6F8E"/>
<path d="M126.298 67.0446H105.298C105.126 67.0446 104.961 66.9761 104.839 66.8542C104.717 66.7323 104.648 66.567 104.648 66.3946C104.648 66.2222 104.717 66.0569 104.839 65.935C104.961 65.8131 105.126 65.7446 105.298 65.7446H126.298C126.471 65.7446 126.636 65.8131 126.758 65.935C126.88 66.0569 126.948 66.2222 126.948 66.3946C126.948 66.567 126.88 66.7323 126.758 66.8542C126.636 66.9761 126.471 67.0446 126.298 67.0446Z" fill="#6F6F8E"/>
<path d="M118.788 69.715H105.318C105.233 69.715 105.148 69.6982 105.07 69.6656C104.991 69.6329 104.919 69.585 104.859 69.5247C104.798 69.4643 104.75 69.3926 104.718 69.3138C104.685 69.2349 104.668 69.1504 104.668 69.065C104.668 68.9797 104.685 68.8952 104.718 68.8163C104.75 68.7374 104.798 68.6658 104.859 68.6054C104.919 68.5451 104.991 68.4972 105.07 68.4645C105.148 68.4319 105.233 68.415 105.318 68.415H118.788C118.874 68.415 118.958 68.4319 119.037 68.4645C119.116 68.4972 119.188 68.5451 119.248 68.6054C119.308 68.6658 119.356 68.7374 119.389 68.8163C119.421 68.8952 119.438 68.9797 119.438 69.065C119.438 69.1504 119.421 69.2349 119.389 69.3138C119.356 69.3926 119.308 69.4643 119.248 69.5247C119.188 69.585 119.116 69.6329 119.037 69.6656C118.958 69.6982 118.874 69.715 118.788 69.715Z" fill="#6F6F8E"/>
<path d="M113.418 72.5248H105.318C105.145 72.5222 104.98 72.4515 104.858 72.328C104.736 72.2045 104.668 72.0382 104.668 71.8648C104.668 71.7795 104.685 71.695 104.718 71.6161C104.75 71.5372 104.798 71.4656 104.859 71.4052C104.919 71.3449 104.991 71.297 105.07 71.2643C105.148 71.2317 105.233 71.2148 105.318 71.2148H113.418C113.504 71.2148 113.588 71.2317 113.667 71.2643C113.746 71.297 113.818 71.3449 113.878 71.4052C113.938 71.4656 113.986 71.5372 114.019 71.6161C114.051 71.695 114.068 71.7795 114.068 71.8648C114.068 72.0382 114 72.2045 113.878 72.328C113.757 72.4515 113.592 72.5222 113.418 72.5248Z" fill="#6F6F8E"/>
<path d="M117.928 72.5248H115.788C115.615 72.5222 115.45 72.4515 115.328 72.328C115.206 72.2045 115.138 72.0382 115.138 71.8648C115.138 71.7795 115.155 71.695 115.188 71.6161C115.22 71.5372 115.268 71.4656 115.329 71.4052C115.389 71.3449 115.461 71.297 115.54 71.2643C115.618 71.2317 115.703 71.2148 115.788 71.2148H117.908C117.994 71.2148 118.078 71.2317 118.157 71.2643C118.236 71.297 118.308 71.3449 118.368 71.4052C118.428 71.4656 118.476 71.5372 118.509 71.6161C118.541 71.695 118.558 71.7795 118.558 71.8648C118.558 72.0348 118.493 72.1983 118.376 72.3212C118.258 72.4442 118.098 72.5171 117.928 72.5248Z" fill="#6F6F8E"/>
<path d="M123.788 72.5248H120.908C120.734 72.5223 120.568 72.4519 120.444 72.3287C120.321 72.2055 120.251 72.0391 120.248 71.8648C120.251 71.6915 120.322 71.5262 120.445 71.4046C120.569 71.283 120.735 71.2148 120.908 71.2148H123.788C123.874 71.2148 123.958 71.2317 124.037 71.2643C124.116 71.297 124.187 71.3449 124.248 71.4052C124.308 71.4656 124.356 71.5372 124.389 71.6161C124.421 71.695 124.438 71.7795 124.438 71.8648C124.438 72.0382 124.37 72.2045 124.248 72.328C124.127 72.4515 123.962 72.5222 123.788 72.5248Z" fill="#6F6F8E"/>
<path d="M126.298 78.915H105.298C105.125 78.9124 104.96 78.8417 104.838 78.7182C104.716 78.5947 104.648 78.4283 104.648 78.255C104.648 78.0826 104.717 77.9173 104.839 77.7954C104.961 77.6735 105.126 77.605 105.298 77.605H126.298C126.472 77.605 126.638 77.6731 126.761 77.7947C126.885 77.9164 126.956 78.0817 126.958 78.255C126.956 78.4292 126.885 78.5956 126.762 78.7188C126.639 78.842 126.472 78.9124 126.298 78.915Z" fill="#6F6F8E"/>
<path d="M118.788 81.5849H105.318C105.145 81.5823 104.98 81.5116 104.858 81.3881C104.736 81.2646 104.668 81.0982 104.668 80.9249C104.668 80.7525 104.737 80.5872 104.859 80.4653C104.981 80.3434 105.146 80.2749 105.318 80.2749H118.788C118.961 80.2749 119.126 80.3434 119.248 80.4653C119.37 80.5872 119.438 80.7525 119.438 80.9249C119.438 81.0982 119.37 81.2646 119.248 81.3881C119.127 81.5116 118.962 81.5823 118.788 81.5849Z" fill="#6F6F8E"/>
<path d="M113.418 84.4147H105.318C105.146 84.4147 104.981 84.3463 104.859 84.2244C104.737 84.1025 104.668 83.9371 104.668 83.7647C104.668 83.5924 104.737 83.427 104.859 83.3051C104.981 83.1832 105.146 83.1147 105.318 83.1147H113.418C113.591 83.1147 113.756 83.1832 113.878 83.3051C114 83.427 114.068 83.5924 114.068 83.7647C114.068 83.9371 114 84.1025 113.878 84.2244C113.756 84.3463 113.591 84.4147 113.418 84.4147Z" fill="#6F6F8E"/>
<path d="M117.928 84.4147H115.788C115.616 84.4147 115.451 84.3463 115.329 84.2244C115.207 84.1025 115.138 83.9371 115.138 83.7647C115.138 83.5924 115.207 83.427 115.329 83.3051C115.451 83.1832 115.616 83.1147 115.788 83.1147H117.908C118.081 83.1147 118.246 83.1832 118.368 83.3051C118.49 83.427 118.558 83.5924 118.558 83.7647C118.558 83.9371 118.49 84.1025 118.368 84.2244C118.246 84.3463 118.081 84.4147 117.908 84.4147H117.928Z" fill="#6F6F8E"/>
<path d="M123.788 84.4147H120.908C120.736 84.4147 120.571 84.3463 120.449 84.2244C120.327 84.1025 120.258 83.9371 120.258 83.7647C120.258 83.5924 120.327 83.427 120.449 83.3051C120.571 83.1832 120.736 83.1147 120.908 83.1147H123.788C123.961 83.1147 124.126 83.1832 124.248 83.3051C124.37 83.427 124.438 83.5924 124.438 83.7647C124.438 83.9371 124.37 84.1025 124.248 84.2244C124.126 84.3463 123.961 84.4147 123.788 84.4147Z" fill="#6F6F8E"/>
<path d="M126.298 55.175H105.298C105.126 55.175 104.961 55.1065 104.839 54.9846C104.717 54.8627 104.648 54.6974 104.648 54.525C104.648 54.3526 104.717 54.1873 104.839 54.0654C104.961 53.9435 105.126 53.875 105.298 53.875H126.298C126.384 53.875 126.468 53.8918 126.547 53.9245C126.626 53.9571 126.698 54.005 126.758 54.0654C126.818 54.1257 126.866 54.1974 126.899 54.2763C126.931 54.3551 126.948 54.4396 126.948 54.525C126.948 54.6104 126.931 54.6949 126.899 54.7737C126.866 54.8526 126.818 54.9243 126.758 54.9846C126.698 55.045 126.626 55.0929 126.547 55.1255C126.468 55.1582 126.384 55.175 126.298 55.175Z" fill="#6F6F8E"/>
<path d="M118.788 57.8449H105.318C105.146 57.8449 104.981 57.7764 104.859 57.6545C104.737 57.5326 104.668 57.3673 104.668 57.1949C104.668 57.0225 104.737 56.8572 104.859 56.7353C104.981 56.6134 105.146 56.5449 105.318 56.5449H118.788C118.961 56.5449 119.126 56.6134 119.248 56.7353C119.37 56.8572 119.438 57.0225 119.438 57.1949C119.438 57.3673 119.37 57.5326 119.248 57.6545C119.126 57.7764 118.961 57.8449 118.788 57.8449Z" fill="#6F6F8E"/>
<path d="M113.418 60.655H105.318C105.146 60.655 104.981 60.5865 104.859 60.4646C104.737 60.3427 104.668 60.1774 104.668 60.005C104.668 59.8326 104.737 59.6673 104.859 59.5454C104.981 59.4235 105.146 59.355 105.318 59.355H113.418C113.591 59.355 113.756 59.4235 113.878 59.5454C114 59.6673 114.068 59.8326 114.068 60.005C114.068 60.1774 114 60.3427 113.878 60.4646C113.756 60.5865 113.591 60.655 113.418 60.655Z" fill="#6F6F8E"/>
<path d="M117.928 60.655H115.788C115.616 60.655 115.451 60.5865 115.329 60.4646C115.207 60.3427 115.138 60.1774 115.138 60.005C115.138 59.8326 115.207 59.6673 115.329 59.5454C115.451 59.4235 115.616 59.355 115.788 59.355H117.908C118.081 59.355 118.246 59.4235 118.368 59.5454C118.49 59.6673 118.558 59.8326 118.558 60.005C118.558 60.1774 118.49 60.3427 118.368 60.4646C118.246 60.5865 118.081 60.655 117.908 60.655H117.928Z" fill="#6F6F8E"/>
<path d="M123.788 60.655H120.908C120.736 60.655 120.571 60.5865 120.449 60.4646C120.327 60.3427 120.258 60.1774 120.258 60.005C120.258 59.8326 120.327 59.6673 120.449 59.5454C120.571 59.4235 120.736 59.355 120.908 59.355H123.788C123.961 59.355 124.126 59.4235 124.248 59.5454C124.37 59.6673 124.438 59.8326 124.438 60.005C124.438 60.1774 124.37 60.3427 124.248 60.4646C124.126 60.5865 123.961 60.655 123.788 60.655Z" fill="#6F6F8E"/>
<path d="M24.5882 39.3246C25.7094 39.3246 26.6182 38.4158 26.6182 37.2947C26.6182 36.1735 25.7094 35.2646 24.5882 35.2646C23.4671 35.2646 22.5582 36.1735 22.5582 37.2947C22.5582 38.4158 23.4671 39.3246 24.5882 39.3246Z" fill="#FF5F57"/>
<path d="M30.9282 39.3246C32.0494 39.3246 32.9582 38.4158 32.9582 37.2947C32.9582 36.1735 32.0494 35.2646 30.9282 35.2646C29.8071 35.2646 28.8982 36.1735 28.8982 37.2947C28.8982 38.4158 29.8071 39.3246 30.9282 39.3246Z" fill="#FEBC2E"/>
<path d="M37.2782 39.3246C38.3994 39.3246 39.3082 38.4158 39.3082 37.2947C39.3082 36.1735 38.3994 35.2646 37.2782 35.2646C36.1571 35.2646 35.2482 36.1735 35.2482 37.2947C35.2482 38.4158 36.1571 39.3246 37.2782 39.3246Z" fill="#29C940"/>
<path d="M131.178 121.815H19.9782C18.3091 121.812 16.7092 121.147 15.5299 119.966C14.3506 118.785 13.6882 117.184 13.6882 115.515V36.5148C13.6882 34.8457 14.3506 33.2448 15.5299 32.0636C16.7092 30.8824 18.3091 30.2175 19.9782 30.2148H131.178C132.847 30.2175 134.447 30.8824 135.627 32.0636C136.806 33.2448 137.468 34.8457 137.468 36.5148V115.515C137.468 117.184 136.806 118.785 135.627 119.966C134.447 121.147 132.847 121.812 131.178 121.815ZM19.9782 32.6448C18.9509 32.6475 17.9666 33.0574 17.2411 33.7848C16.5156 34.5122 16.1082 35.4975 16.1082 36.5248V115.525C16.1069 116.034 16.206 116.539 16.3998 117.01C16.5935 117.482 16.8782 117.91 17.2376 118.271C17.597 118.633 18.0239 118.919 18.4942 119.116C18.9644 119.312 19.4687 119.414 19.9782 119.415H131.178C132.206 119.412 133.19 119.002 133.915 118.275C134.641 117.548 135.048 116.562 135.048 115.535V36.5348C135.048 35.5075 134.641 34.5222 133.915 33.7948C133.19 33.0674 132.206 32.6575 131.178 32.6548L19.9782 32.6448Z" fill="#000201"/>
<path d="M42.5382 44.415H15.6082C15.4093 44.415 15.2186 44.336 15.0779 44.1954C14.9373 44.0547 14.8582 43.864 14.8582 43.665C14.8582 43.4661 14.9373 43.2754 15.0779 43.1347C15.2186 42.9941 15.4093 42.915 15.6082 42.915H42.5382C42.7372 42.915 42.9279 42.9941 43.0686 43.1347C43.2092 43.2754 43.2882 43.4661 43.2882 43.665C43.2882 43.864 43.2092 44.0547 43.0686 44.1954C42.9279 44.336 42.7372 44.415 42.5382 44.415Z" fill="#000201"/>
<path d="M135.338 44.415H49.4882C49.2893 44.415 49.0986 44.336 48.9579 44.1954C48.8173 44.0547 48.7382 43.864 48.7382 43.665C48.7382 43.4661 48.8173 43.2754 48.9579 43.1347C49.0986 42.9941 49.2893 42.915 49.4882 42.915H135.338C135.537 42.915 135.728 42.9941 135.869 43.1347C136.009 43.2754 136.088 43.4661 136.088 43.665C136.088 43.864 136.009 44.0547 135.869 44.1954C135.728 44.336 135.537 44.415 135.338 44.415Z" fill="#000201"/>
<path opacity="0.45" d="M53.0382 93.2949H3.93824C2.6956 93.2949 1.68824 94.3023 1.68824 95.5449V130.425C1.68824 131.668 2.6956 132.675 3.93824 132.675H53.0382C54.2809 132.675 55.2882 131.668 55.2882 130.425V95.5449C55.2882 94.3023 54.2809 93.2949 53.0382 93.2949Z" fill="white"/>
<path d="M54.8782 102.025H15.1682C14.9446 102.001 14.7376 101.896 14.5872 101.729C14.4367 101.562 14.3535 101.345 14.3535 101.12C14.3535 100.895 14.4367 100.678 14.5872 100.511C14.7376 100.344 14.9446 100.238 15.1682 100.215H54.8782C55.0051 100.202 55.1333 100.215 55.2546 100.254C55.3759 100.294 55.4876 100.358 55.5824 100.444C55.6771 100.529 55.7529 100.633 55.8048 100.75C55.8567 100.866 55.8835 100.992 55.8835 101.12C55.8835 101.247 55.8567 101.374 55.8048 101.49C55.7529 101.607 55.6771 101.711 55.5824 101.796C55.4876 101.882 55.3759 101.946 55.2546 101.985C55.1333 102.025 55.0051 102.038 54.8782 102.025Z" fill="#000201"/>
<path d="M5.97824 98.135C6.4753 98.135 6.87824 97.732 6.87824 97.235C6.87824 96.7379 6.4753 96.335 5.97824 96.335C5.48118 96.335 5.07824 96.7379 5.07824 97.235C5.07824 97.732 5.48118 98.135 5.97824 98.135Z" fill="#FF5F57"/>
<path d="M8.77824 98.135C9.2753 98.135 9.67824 97.732 9.67824 97.235C9.67824 96.7379 9.2753 96.335 8.77824 96.335C8.28119 96.335 7.87824 96.7379 7.87824 97.235C7.87824 97.732 8.28119 98.135 8.77824 98.135Z" fill="#FEBC2E"/>
<path d="M11.5782 98.135C12.0753 98.135 12.4782 97.732 12.4782 97.235C12.4782 96.7379 12.0753 96.335 11.5782 96.335C11.0812 96.335 10.6782 96.7379 10.6782 97.235C10.6782 97.732 11.0812 98.135 11.5782 98.135Z" fill="#29C940"/>
<path d="M45.2382 93.3047L37.5982 132.675H30.2882L37.9582 93.3047H45.2382Z" fill="white"/>
<path d="M50.7082 93.3047L43.0382 132.675H39.8882L47.5682 93.3047H50.7082Z" fill="white"/>
<path d="M9.78824 102.025H2.00824C1.78462 102.001 1.57764 101.896 1.42719 101.729C1.27675 101.562 1.1935 101.345 1.1935 101.12C1.1935 100.895 1.27675 100.678 1.42719 100.511C1.57764 100.344 1.78462 100.238 2.00824 100.215H9.78824C9.91508 100.202 10.0433 100.215 10.1646 100.254C10.2859 100.294 10.3976 100.358 10.4924 100.444C10.5871 100.529 10.6629 100.633 10.7148 100.75C10.7667 100.866 10.7935 100.992 10.7935 101.12C10.7935 101.247 10.7667 101.374 10.7148 101.49C10.6629 101.607 10.5871 101.711 10.4924 101.796C10.3976 101.882 10.2859 101.946 10.1646 101.985C10.0433 102.025 9.91508 102.038 9.78824 102.025Z" fill="#000201"/>
<path d="M53.0482 133.585H3.93824C3.52326 133.584 3.11261 133.501 2.72972 133.341C2.34683 133.181 1.99921 132.947 1.70671 132.652C1.4142 132.358 1.18254 132.009 1.02495 131.625C0.867358 131.241 0.786924 130.83 0.788239 130.415V95.545C0.793522 94.7131 1.12773 93.917 1.71789 93.3306C2.30806 92.7442 3.10626 92.415 3.93824 92.415H53.0482C53.8829 92.4177 54.6825 92.7504 55.2727 93.3406C55.8629 93.9307 56.1956 94.7304 56.1982 95.565V130.415C56.1996 130.83 56.1191 131.241 55.9615 131.625C55.8039 132.009 55.5723 132.358 55.2798 132.652C54.9873 132.947 54.6396 133.181 54.2568 133.341C53.8739 133.501 53.4632 133.584 53.0482 133.585ZM3.93824 94.205C3.58285 94.205 3.24201 94.3462 2.99072 94.5975C2.73942 94.8488 2.59824 95.1896 2.59824 95.545V130.415C2.59824 130.77 2.73942 131.111 2.99072 131.363C3.24201 131.614 3.58285 131.755 3.93824 131.755H53.0482C53.2242 131.755 53.3985 131.72 53.561 131.653C53.7236 131.586 53.8713 131.487 53.9958 131.363C54.1202 131.238 54.2189 131.09 54.2862 130.928C54.3536 130.765 54.3882 130.591 54.3882 130.415V95.545C54.3882 95.3691 54.3536 95.1948 54.2862 95.0322C54.2189 94.8697 54.1202 94.7219 53.9958 94.5975C53.8713 94.4731 53.7236 94.3744 53.561 94.307C53.3985 94.2397 53.2242 94.205 53.0482 94.205H3.93824Z" fill="#000201"/>
<path d="M141.108 44.705C153.004 44.705 162.648 35.0612 162.648 23.165C162.648 11.2688 153.004 1.625 141.108 1.625C129.212 1.625 119.568 11.2688 119.568 23.165C119.568 35.0612 129.212 44.705 141.108 44.705Z" fill="white"/>
<path d="M141.108 45.9248C136.607 45.9248 132.206 44.5899 128.463 42.089C124.721 39.5881 121.803 36.0335 120.081 31.8747C118.358 27.7158 117.907 23.1395 118.786 18.7245C119.664 14.3095 121.831 10.2541 125.014 7.07104C128.198 3.888 132.253 1.72032 136.668 0.842122C141.083 -0.0360772 145.659 0.414647 149.818 2.1373C153.977 3.85995 157.532 6.77715 160.032 10.52C162.533 14.2629 163.868 18.6633 163.868 23.1648C163.863 29.1995 161.463 34.9855 157.196 39.2527C152.929 43.5199 147.143 45.9195 141.108 45.9248ZM141.108 2.8348C137.085 2.8348 133.152 4.02797 129.807 6.2634C126.462 8.49883 123.855 11.6761 122.316 15.3933C120.776 19.1106 120.374 23.2008 121.16 27.1466C121.945 31.0925 123.884 34.7167 126.729 37.5609C129.575 40.4051 133.2 42.3415 137.146 43.1252C141.092 43.9089 145.182 43.5047 148.899 41.9636C152.615 40.4226 155.791 37.814 158.025 34.4678C160.259 31.1216 161.45 27.1881 161.448 23.1648C161.443 17.7728 159.298 12.6034 155.484 8.79163C151.671 4.97988 146.5 2.83744 141.108 2.8348Z" fill="#000201"/>
<path d="M127.836 22.3403V21.446L135.035 17.7793V19.2102L129.512 21.8708L129.557 21.7814V22.0049L129.512 21.9155L135.035 24.5761V26.007L127.836 22.3403ZM141.878 14.3809L138.189 28.0863H136.981L140.671 14.3809H141.878ZM151.021 22.3403L143.822 26.007V24.5761L149.344 21.9155L149.299 22.0049V21.7814L149.344 21.8708L143.822 19.2102V17.7793L151.021 21.446V22.3403Z" fill="black"/>
</g>
<defs>
<clipPath id="clip0_13_8220">
<rect width="163.08" height="133.17" fill="white" transform="translate(0.788239 0.415039)"/>
</clipPath>
</defs>
</svg>
