<svg width="329" height="266" viewBox="0 0 329 266" fill="none" xmlns="http://www.w3.org/2000/svg">
<rect width="329" height="266" rx="20" fill="#1298A8"/>
<g clip-path="url(#clip0_11_204)">
<path d="M149.317 28.3398H125.64C120.382 28.3398 116.12 32.602 116.12 37.8597V55.9296C116.12 61.1873 120.382 65.4495 125.64 65.4495H149.317C154.575 65.4495 158.837 61.1873 158.837 55.9296V37.8597C158.837 32.602 154.575 28.3398 149.317 28.3398Z" fill="#32CAF8"/>
<path d="M158.886 39.8037H116.169V40.5769H158.886V39.8037Z" fill="#00A3EB"/>
<path d="M158.886 54.0277V57.1413C158.88 59.369 157.993 61.5038 156.418 63.0792C154.843 64.6546 152.708 65.5425 150.48 65.5489H124.575C122.347 65.5428 120.212 64.655 118.637 63.0796C117.062 61.5041 116.174 59.3692 116.169 57.1413V36.8436C116.168 36.4165 116.201 35.99 116.266 35.5679V52.752C116.272 54.9796 117.16 57.1143 118.735 58.6895C120.31 60.2647 122.445 61.1524 124.672 61.1585H150.581C152.587 61.1514 154.525 60.4297 156.047 59.1229C157.569 57.816 158.575 56.0096 158.886 54.0277Z" fill="#00A3EB"/>
<path d="M155.31 47.9669C155.544 47.9627 155.711 46.7257 155.684 45.204C155.656 43.6823 155.445 42.4521 155.211 42.4563C154.978 42.4605 154.811 43.6975 154.838 45.2192C154.865 46.7409 155.077 47.9711 155.31 47.9669Z" fill="white"/>
<path d="M155.367 51.9817C155.601 51.9775 155.779 51.3571 155.765 50.5959C155.752 49.8347 155.551 49.2211 155.318 49.2253C155.084 49.2295 154.906 49.85 154.919 50.6111C154.933 51.3723 155.134 51.9859 155.367 51.9817Z" fill="white"/>
<path d="M158.837 36.5509V39.0195H116.266V35.3746C116.201 35.7967 116.168 36.2232 116.169 36.6503V39.0217H116.12V36.5509C116.126 34.3236 117.014 32.1894 118.589 30.6145C120.164 29.0395 122.298 28.1519 124.525 28.1455H150.432C152.659 28.1519 154.793 29.0395 156.368 30.6145C157.943 32.1894 158.831 34.3236 158.837 36.5509Z" fill="#FFD947"/>
<path d="M159.325 37.0393V39.5079H159.147C158.745 37.6221 157.71 35.9307 156.213 34.7153C154.716 33.4998 152.848 32.8337 150.92 32.8278H125.014C123.085 32.8327 121.216 33.4984 119.718 34.7139C118.22 35.9294 117.184 37.6213 116.783 39.5079H116.75V35.863C116.685 36.2851 116.652 36.7116 116.652 37.1387V39.5101H116.604V37.0393C116.61 34.8111 117.498 32.6759 119.074 31.1006C120.65 29.5253 122.785 28.6381 125.014 28.6328H150.919C153.147 28.6389 155.281 29.5266 156.857 31.1018C158.432 32.677 159.319 34.8116 159.325 37.0393Z" fill="#F3A70F"/>
<path d="M158.837 38.5522H116.12V39.8777H158.837V38.5522Z" fill="#426572"/>
<path d="M149.317 66.1123H125.64C122.94 66.1094 120.352 65.0356 118.443 63.1267C116.534 61.2177 115.46 58.6294 115.457 55.9297V37.8598C115.46 35.1601 116.534 32.5718 118.443 30.6629C120.352 28.7539 122.94 27.6802 125.64 27.6772H149.317C152.017 27.6802 154.605 28.7539 156.514 30.6629C158.423 32.5718 159.497 35.1601 159.5 37.8598V55.9297C159.497 58.6294 158.423 61.2177 156.514 63.1267C154.605 65.0356 152.017 66.1094 149.317 66.1123ZM125.64 29.0027C123.292 29.0053 121.04 29.9393 119.38 31.5998C117.719 33.2602 116.785 35.5116 116.783 37.8598V55.9297C116.785 58.278 117.719 60.5293 119.38 62.1898C121.04 63.8502 123.292 64.7842 125.64 64.7869H149.317C151.666 64.7842 153.917 63.8502 155.577 62.1898C157.238 60.5293 158.172 58.278 158.175 55.9297V37.8598C158.172 35.5116 157.238 33.2602 155.577 31.5998C153.917 29.9393 151.666 29.0053 149.317 29.0027H125.64Z" fill="#426572"/>
<path d="M130.602 25.3654C130.602 24.0728 129.555 23.0249 128.262 23.0249C126.969 23.0249 125.922 24.0728 125.922 25.3654V31.0227C125.922 32.3153 126.969 33.3632 128.262 33.3632C129.555 33.3632 130.602 32.3153 130.602 31.0227V25.3654Z" fill="#32CAF8"/>
<path d="M148.255 25.3654C148.255 24.0728 147.207 23.0249 145.914 23.0249C144.622 23.0249 143.574 24.0728 143.574 25.3654V31.0227C143.574 32.3153 144.622 33.3632 145.914 33.3632C147.207 33.3632 148.255 32.3153 148.255 31.0227V25.3654Z" fill="#32CAF8"/>
<path d="M128.262 34.026C127.466 34.0251 126.702 33.7085 126.139 33.1454C125.576 32.5824 125.26 31.8191 125.259 31.0228V25.3655C125.259 24.569 125.575 23.8051 126.138 23.2419C126.702 22.6787 127.465 22.3623 128.262 22.3623C129.058 22.3623 129.822 22.6787 130.386 23.2419C130.949 23.8051 131.265 24.569 131.265 25.3655V31.0228C131.264 31.8191 130.948 32.5824 130.385 33.1454C129.822 33.7085 129.058 34.0251 128.262 34.026ZM128.262 23.6877C127.817 23.6883 127.391 23.8653 127.076 24.1798C126.762 24.4943 126.585 24.9207 126.584 25.3655V31.0228C126.584 31.4678 126.761 31.8946 127.076 32.2092C127.39 32.5238 127.817 32.7006 128.262 32.7006C128.707 32.7006 129.134 32.5238 129.448 32.2092C129.763 31.8946 129.94 31.4678 129.94 31.0228V25.3655C129.939 24.9207 129.762 24.4943 129.448 24.1798C129.133 23.8653 128.707 23.6883 128.262 23.6877Z" fill="#426572"/>
<path d="M145.914 34.026C145.118 34.0251 144.355 33.7085 143.792 33.1454C143.229 32.5824 142.912 31.8191 142.911 31.0228V25.3655C142.911 24.569 143.228 23.8051 143.791 23.2419C144.354 22.6787 145.118 22.3623 145.914 22.3623C146.711 22.3623 147.475 22.6787 148.038 23.2419C148.601 23.8051 148.918 24.569 148.918 25.3655V31.0228C148.917 31.8191 148.6 32.5824 148.037 33.1454C147.474 33.7085 146.711 34.0251 145.914 34.026ZM145.914 23.6877C145.47 23.6883 145.043 23.8653 144.729 24.1798C144.414 24.4943 144.237 24.9207 144.237 25.3655V31.0228C144.237 31.4678 144.413 31.8946 144.728 32.2092C145.043 32.5238 145.469 32.7006 145.914 32.7006C146.359 32.7006 146.786 32.5238 147.101 32.2092C147.415 31.8946 147.592 31.4678 147.592 31.0228V25.3655C147.592 24.9207 147.415 24.4943 147.1 24.1798C146.786 23.8653 146.359 23.6883 145.914 23.6877Z" fill="#426572"/>
<path d="M127.514 58.3763C126.845 58.3763 126.238 58.2785 125.692 58.0829C125.157 57.8873 124.73 57.6454 124.411 57.3572C124.102 57.0587 123.947 56.7602 123.947 56.4617C123.947 56.3176 123.983 56.1632 124.055 55.9985C124.138 55.8235 124.246 55.6794 124.38 55.5662C124.513 55.4427 124.663 55.3809 124.827 55.3809C124.992 55.3809 125.146 55.4427 125.291 55.5662C125.435 55.6794 125.599 55.8184 125.785 55.9831C125.97 56.1375 126.196 56.2764 126.464 56.3999C126.732 56.5132 127.061 56.5698 127.452 56.5698C127.761 56.5698 128.044 56.5235 128.301 56.4308C128.569 56.3279 128.78 56.1786 128.934 55.9831C129.099 55.7875 129.181 55.5353 129.181 55.2265C129.181 54.8971 129.094 54.6192 128.919 54.3927C128.744 54.1663 128.507 53.9707 128.209 53.806C127.91 53.6413 127.586 53.4818 127.236 53.3274C126.886 53.173 126.531 53.0083 126.171 52.8333C125.821 52.6583 125.496 52.4473 125.198 52.2003C124.91 51.9532 124.673 51.6496 124.488 51.2893C124.313 50.929 124.225 50.4864 124.225 49.9615C124.225 49.385 124.333 48.9013 124.549 48.5101C124.776 48.119 125.069 47.805 125.43 47.5683C125.8 47.3212 126.207 47.1462 126.649 47.0433C127.092 46.9301 127.535 46.8735 127.977 46.8735C128.214 46.8735 128.492 46.8941 128.811 46.9352C129.14 46.9661 129.465 47.0279 129.784 47.1205C130.113 47.2131 130.381 47.3418 130.587 47.5065C130.803 47.6609 130.911 47.8616 130.911 48.1087C130.911 48.2322 130.88 48.3763 130.818 48.541C130.767 48.7057 130.679 48.8549 130.556 48.9887C130.442 49.1123 130.293 49.174 130.108 49.174C129.943 49.174 129.778 49.1277 129.614 49.0351C129.459 48.9321 129.254 48.8343 128.996 48.7417C128.749 48.6388 128.409 48.5873 127.977 48.5873C127.617 48.5873 127.303 48.6388 127.035 48.7417C126.768 48.8343 126.567 48.9682 126.433 49.1431C126.299 49.3078 126.232 49.5189 126.232 49.7762C126.232 50.0438 126.32 50.2703 126.495 50.4555C126.68 50.6408 126.917 50.8055 127.205 50.9496C127.504 51.0937 127.828 51.2378 128.178 51.3819C128.528 51.5261 128.878 51.6959 129.228 51.8915C129.588 52.0767 129.917 52.3032 130.216 52.5708C130.514 52.8385 130.751 53.173 130.926 53.5744C131.101 53.9656 131.189 54.4494 131.189 55.0258C131.189 55.7566 131.029 56.3742 130.71 56.8786C130.391 57.3727 129.953 57.7484 129.398 58.0057C128.852 58.2527 128.224 58.3763 127.514 58.3763ZM132.817 55.35C132.632 55.35 132.477 55.2728 132.354 55.1184C132.241 54.964 132.184 54.7685 132.184 54.5317C132.184 54.295 132.241 54.0994 132.354 53.945C132.477 53.7803 132.632 53.6979 132.817 53.6979H136.831C136.986 53.6979 137.13 53.7803 137.264 53.945C137.398 54.0994 137.464 54.295 137.464 54.5317C137.464 54.7685 137.398 54.964 137.264 55.1184C137.13 55.2728 136.986 55.35 136.831 55.35H132.817ZM142.299 58.3299C141.62 58.3299 141.007 58.2167 140.462 57.9903C139.916 57.7535 139.484 57.3778 139.165 56.8631C138.846 56.3382 138.686 55.6485 138.686 54.7942V50.4864C138.686 49.6321 138.846 48.9476 139.165 48.4329C139.484 47.9079 139.916 47.5322 140.462 47.3058C141.007 47.069 141.62 46.9507 142.299 46.9507C142.979 46.9507 143.591 47.069 144.137 47.3058C144.692 47.5322 145.13 47.9079 145.449 48.4329C145.768 48.9476 145.928 49.6321 145.928 50.4864V54.7942C145.928 55.6485 145.768 56.3382 145.449 56.8631C145.13 57.3778 144.692 57.7535 144.137 57.9903C143.591 58.2167 142.979 58.3299 142.299 58.3299ZM142.299 56.5698C142.804 56.5698 143.2 56.4257 143.488 56.1375C143.776 55.8493 143.92 55.4015 143.92 54.7942V50.4864C143.92 49.8791 143.776 49.4314 143.488 49.1431C143.2 48.8549 142.804 48.7108 142.299 48.7108C141.795 48.7108 141.399 48.8549 141.11 49.1431C140.832 49.4314 140.693 49.8791 140.693 50.4864V54.7942C140.693 55.4015 140.832 55.8493 141.11 56.1375C141.399 56.4257 141.795 56.5698 142.299 56.5698ZM142.299 53.3737C142.083 53.3737 141.908 53.3068 141.774 53.173C141.651 53.0289 141.589 52.8539 141.589 52.648C141.589 52.4319 141.651 52.262 141.774 52.1385C141.908 52.0047 142.083 51.9378 142.299 51.9378C142.526 51.9378 142.701 52.0047 142.824 52.1385C142.958 52.262 143.025 52.4319 143.025 52.648C143.025 52.8539 142.958 53.0289 142.824 53.173C142.701 53.3068 142.526 53.3737 142.299 53.3737ZM149.164 58.2373C148.917 58.2373 148.685 58.1858 148.469 58.0829C148.263 57.9697 148.16 57.8101 148.16 57.6043V49.3593L147.666 49.8534C147.604 49.8946 147.543 49.9306 147.481 49.9615C147.419 49.9821 147.362 49.9923 147.311 49.9923C147.115 49.9923 146.956 49.91 146.832 49.7453C146.719 49.5703 146.662 49.385 146.662 49.1895C146.662 49.0454 146.693 48.9115 146.755 48.788C146.817 48.6542 146.909 48.5461 147.033 48.4638L148.855 47.0742C148.917 47.0227 148.978 46.9867 149.04 46.9661C149.112 46.9352 149.195 46.9198 149.287 46.9198C149.493 46.9198 149.689 46.9815 149.874 47.1051C150.07 47.2183 150.167 47.3727 150.167 47.5683V57.6043C150.167 57.8101 150.064 57.9697 149.859 58.0829C149.653 58.1858 149.421 58.2373 149.164 58.2373Z" fill="white"/>
<path d="M203.36 28.3398H179.683C174.425 28.3398 170.163 32.602 170.163 37.8597V55.9296C170.163 61.1873 174.425 65.4495 179.683 65.4495H203.36C208.618 65.4495 212.88 61.1873 212.88 55.9296V37.8597C212.88 32.602 208.618 28.3398 203.36 28.3398Z" fill="#32CAF8"/>
<path d="M212.929 39.8037H170.211V40.5769H212.929V39.8037Z" fill="#00A3EB"/>
<path d="M212.929 54.0277V57.1413C212.923 59.369 212.035 61.5038 210.46 63.0792C208.885 64.6546 206.751 65.5425 204.523 65.5489H178.618C176.39 65.5428 174.255 64.655 172.68 63.0796C171.105 61.5041 170.217 59.3692 170.211 57.1413V36.8436C170.211 36.4165 170.243 35.99 170.309 35.5679V52.752C170.315 54.9796 171.202 57.1143 172.777 58.6895C174.353 60.2647 176.487 61.1524 178.715 61.1585H204.624C206.63 61.1514 208.568 60.4297 210.09 59.1229C211.612 57.816 212.618 56.0096 212.929 54.0277Z" fill="#00A3EB"/>
<path d="M209.353 47.9669C209.587 47.9627 209.754 46.7257 209.727 45.204C209.699 43.6823 209.488 42.4521 209.254 42.4563C209.02 42.4605 208.853 43.6975 208.881 45.2192C208.908 46.7409 209.119 47.9711 209.353 47.9669Z" fill="white"/>
<path d="M209.41 51.9817C209.643 51.9775 209.822 51.3571 209.808 50.5959C209.794 49.8347 209.594 49.2211 209.36 49.2253C209.127 49.2295 208.948 49.85 208.962 50.6111C208.976 51.3723 209.176 51.9859 209.41 51.9817Z" fill="white"/>
<path d="M212.88 36.5509V39.0195H170.309V35.3746C170.243 35.7967 170.211 36.2232 170.211 36.6503V39.0217H170.163V36.5509C170.169 34.3236 171.057 32.1894 172.632 30.6145C174.207 29.0395 176.341 28.1519 178.568 28.1455H204.475C206.702 28.1519 208.836 29.0395 210.411 30.6145C211.986 32.1894 212.874 34.3236 212.88 36.5509Z" fill="#FFD947"/>
<path d="M213.368 37.0393V39.5079H213.189C212.788 37.6221 211.752 35.9307 210.256 34.7153C208.759 33.4998 206.891 32.8337 204.963 32.8278H179.056C177.127 32.8327 175.259 33.4984 173.761 34.7139C172.263 35.9294 171.227 37.6213 170.825 39.5079H170.792V35.863C170.727 36.2851 170.695 36.7116 170.695 37.1387V39.5101H170.646V37.0393C170.653 34.8111 171.541 32.6759 173.117 31.1006C174.693 29.5253 176.828 28.6381 179.056 28.6328H204.962C207.189 28.6389 209.324 29.5266 210.899 31.1018C212.474 32.677 213.362 34.8116 213.368 37.0393Z" fill="#F3A70F"/>
<path d="M212.88 38.5522H170.163V39.8777H212.88V38.5522Z" fill="#426572"/>
<path d="M203.36 66.1123H179.683C176.983 66.1094 174.395 65.0356 172.486 63.1267C170.577 61.2177 169.503 58.6294 169.5 55.9297V37.8598C169.503 35.1601 170.577 32.5718 172.486 30.6629C174.395 28.7539 176.983 27.6802 179.683 27.6772H203.36C206.06 27.6802 208.648 28.7539 210.557 30.6629C212.466 32.5718 213.54 35.1601 213.543 37.8598V55.9297C213.54 58.6294 212.466 61.2177 210.557 63.1267C208.648 65.0356 206.06 66.1094 203.36 66.1123ZM179.683 29.0027C177.334 29.0053 175.083 29.9393 173.423 31.5998C171.762 33.2602 170.828 35.5116 170.825 37.8598V55.9297C170.828 58.278 171.762 60.5293 173.423 62.1898C175.083 63.8502 177.334 64.7842 179.683 64.7869H203.36C205.708 64.7842 207.96 63.8502 209.62 62.1898C211.281 60.5293 212.215 58.278 212.217 55.9297V37.8598C212.215 35.5116 211.281 33.2602 209.62 31.5998C207.96 29.9393 205.708 29.0053 203.36 29.0027H179.683Z" fill="#426572"/>
<path d="M184.645 25.3654C184.645 24.0728 183.597 23.0249 182.305 23.0249C181.012 23.0249 179.964 24.0728 179.964 25.3654V31.0227C179.964 32.3153 181.012 33.3632 182.305 33.3632C183.597 33.3632 184.645 32.3153 184.645 31.0227V25.3654Z" fill="#32CAF8"/>
<path d="M202.298 25.3654C202.298 24.0728 201.25 23.0249 199.957 23.0249C198.665 23.0249 197.617 24.0728 197.617 25.3654V31.0227C197.617 32.3153 198.665 33.3632 199.957 33.3632C201.25 33.3632 202.298 32.3153 202.298 31.0227V25.3654Z" fill="#32CAF8"/>
<path d="M182.305 34.026C181.508 34.0251 180.745 33.7085 180.182 33.1454C179.619 32.5824 179.302 31.8191 179.301 31.0228V25.3655C179.301 24.569 179.618 23.8051 180.181 23.2419C180.744 22.6787 181.508 22.3623 182.305 22.3623C183.101 22.3623 183.865 22.6787 184.428 23.2419C184.991 23.8051 185.308 24.569 185.308 25.3655V31.0228C185.307 31.8191 184.99 32.5824 184.427 33.1454C183.864 33.7085 183.101 34.0251 182.305 34.026ZM182.305 23.6877C181.86 23.6883 181.433 23.8653 181.119 24.1798C180.804 24.4943 180.628 24.9207 180.627 25.3655V31.0228C180.627 31.4678 180.804 31.8946 181.118 32.2092C181.433 32.5238 181.86 32.7006 182.305 32.7006C182.75 32.7006 183.176 32.5238 183.491 32.2092C183.806 31.8946 183.982 31.4678 183.982 31.0228V25.3655C183.982 24.9207 183.805 24.4943 183.49 24.1798C183.176 23.8653 182.749 23.6883 182.305 23.6877Z" fill="#426572"/>
<path d="M199.957 34.026C199.161 34.0251 198.398 33.7085 197.835 33.1454C197.271 32.5824 196.955 31.8191 196.954 31.0228V25.3655C196.954 24.569 197.27 23.8051 197.834 23.2419C198.397 22.6787 199.161 22.3623 199.957 22.3623C200.754 22.3623 201.517 22.6787 202.081 23.2419C202.644 23.8051 202.96 24.569 202.96 25.3655V31.0228C202.959 31.8191 202.643 32.5824 202.08 33.1454C201.517 33.7085 200.753 34.0251 199.957 34.026ZM199.957 23.6877C199.512 23.6883 199.086 23.8653 198.771 24.1798C198.457 24.4943 198.28 24.9207 198.279 25.3655V31.0228C198.279 31.4678 198.456 31.8946 198.771 32.2092C199.085 32.5238 199.512 32.7006 199.957 32.7006C200.402 32.7006 200.829 32.5238 201.143 32.2092C201.458 31.8946 201.635 31.4678 201.635 31.0228V25.3655C201.634 24.9207 201.457 24.4943 201.143 24.1798C200.828 23.8653 200.402 23.6883 199.957 23.6877Z" fill="#426572"/>
<path d="M180.356 58.2373C180.139 58.2373 179.939 58.1858 179.753 58.0829C179.568 57.9697 179.476 57.8101 179.476 57.6043V47.5837C179.476 47.3778 179.568 47.2234 179.753 47.1205C179.939 47.0073 180.139 46.9507 180.356 46.9507H185.852C186.079 46.9507 186.238 47.0433 186.331 47.2286C186.434 47.4139 186.485 47.6094 186.485 47.8153C186.485 48.0623 186.429 48.2734 186.315 48.4483C186.213 48.6233 186.058 48.7108 185.852 48.7108H181.483V51.7988H183.83C184.036 51.7988 184.19 51.8812 184.293 52.0459C184.406 52.2003 184.463 52.3855 184.463 52.6017C184.463 52.7767 184.411 52.9517 184.308 53.1267C184.216 53.2914 184.056 53.3737 183.83 53.3737H181.483V56.4771H185.852C186.058 56.4771 186.213 56.5646 186.315 56.7396C186.429 56.9146 186.485 57.1256 186.485 57.3727C186.485 57.5785 186.434 57.7741 186.331 57.9594C186.238 58.1447 186.079 58.2373 185.852 58.2373H180.356ZM187.548 55.35C187.363 55.35 187.208 55.2728 187.085 55.1184C186.972 54.964 186.915 54.7685 186.915 54.5317C186.915 54.295 186.972 54.0994 187.085 53.945C187.208 53.7803 187.363 53.6979 187.548 53.6979H191.563C191.717 53.6979 191.861 53.7803 191.995 53.945C192.129 54.0994 192.196 54.295 192.196 54.5317C192.196 54.7685 192.129 54.964 191.995 55.1184C191.861 55.2728 191.717 55.35 191.563 55.35H187.548ZM196.522 58.3299C195.894 58.3299 195.354 58.2425 194.901 58.0675C194.458 57.8925 194.093 57.666 193.804 57.3881C193.516 57.1102 193.305 56.8065 193.171 56.4771C193.048 56.1478 192.986 55.8287 192.986 55.5199C192.986 55.2111 193.053 55.0052 193.187 54.9023C193.331 54.789 193.578 54.7324 193.928 54.7324C194.34 54.7324 194.613 54.789 194.746 54.9023C194.89 55.0052 194.962 55.1853 194.962 55.4427C194.962 55.6177 194.999 55.7772 195.071 55.9213C195.143 56.0551 195.246 56.1735 195.379 56.2764C195.523 56.3691 195.693 56.4411 195.889 56.4926C196.095 56.5441 196.321 56.5698 196.568 56.5698C197.145 56.5698 197.562 56.4411 197.819 56.1838C198.087 55.9265 198.22 55.4993 198.22 54.9023V54.6089C198.22 54.0428 198.061 53.6568 197.742 53.4509C197.433 53.245 197.031 53.1421 196.537 53.1421C196.311 53.1421 196.151 53.0598 196.059 52.8951C195.966 52.7304 195.92 52.5502 195.92 52.3547C195.92 52.1591 195.966 51.979 196.059 51.8143C196.151 51.6496 196.306 51.5672 196.522 51.5672C196.779 51.5672 197.016 51.5363 197.232 51.4746C197.448 51.4025 197.618 51.2584 197.742 51.0423C197.875 50.8261 197.942 50.4967 197.942 50.0541C197.942 49.5394 197.819 49.1843 197.572 48.9887C197.335 48.7932 197.006 48.6954 196.584 48.6954C196.337 48.6954 196.126 48.7211 195.951 48.7726C195.776 48.8138 195.632 48.8807 195.518 48.9733C195.405 49.0659 195.323 49.174 195.271 49.2975C195.23 49.4211 195.21 49.5652 195.21 49.7299C195.21 49.9563 195.143 50.1416 195.009 50.2857C194.885 50.4298 194.638 50.5019 194.268 50.5019C193.959 50.5019 193.732 50.4761 193.588 50.4247C193.444 50.3732 193.346 50.2857 193.295 50.1622C193.243 50.0284 193.218 49.8534 193.218 49.6372C193.218 49.3593 193.274 49.0659 193.388 48.7571C193.501 48.4483 193.686 48.155 193.943 47.8771C194.201 47.5991 194.546 47.3778 194.978 47.2131C195.41 47.0382 195.951 46.9507 196.599 46.9507C197.227 46.9507 197.783 47.0382 198.267 47.2131C198.761 47.3881 199.152 47.6763 199.44 48.0778C199.728 48.4792 199.872 49.0248 199.872 49.7144C199.872 50.3217 199.764 50.857 199.548 51.3202C199.332 51.7834 199.033 52.1025 198.653 52.2775C199.106 52.4525 199.481 52.7252 199.78 53.0958C200.078 53.4663 200.228 53.9707 200.228 54.6089V54.9023C200.228 55.736 200.058 56.4051 199.718 56.9095C199.389 57.4035 198.941 57.7638 198.375 57.9903C197.819 58.2167 197.201 58.3299 196.522 58.3299ZM203.277 58.2373C203.03 58.2373 202.798 58.1858 202.582 58.0829C202.376 57.9697 202.273 57.8101 202.273 57.6043V49.3593L201.779 49.8534C201.717 49.8946 201.655 49.9306 201.594 49.9615C201.532 49.9821 201.475 49.9923 201.424 49.9923C201.228 49.9923 201.069 49.91 200.945 49.7453C200.832 49.5703 200.775 49.385 200.775 49.1895C200.775 49.0454 200.806 48.9115 200.868 48.788C200.93 48.6542 201.022 48.5461 201.146 48.4638L202.968 47.0742C203.03 47.0227 203.091 46.9867 203.153 46.9661C203.225 46.9352 203.308 46.9198 203.4 46.9198C203.606 46.9198 203.802 46.9815 203.987 47.1051C204.182 47.2183 204.28 47.3727 204.28 47.5683V57.6043C204.28 57.8101 204.177 57.9697 203.971 58.0829C203.766 58.1858 203.534 58.2373 203.277 58.2373Z" fill="white"/>
</g>
<g clip-path="url(#clip1_11_204)">
<path opacity="0.5" d="M107.332 90.9268V161.846C107.35 164.878 108.563 167.781 110.707 169.926C112.851 172.07 115.754 173.282 118.786 173.3L234.528 173.78C237.575 173.78 240.497 172.57 242.651 170.416C244.806 168.261 246.016 165.339 246.016 162.292V91.4069L107.332 90.9268Z" fill="#9CE5E5"/>
<path d="M67.8945 242.061H60.5557C56.0975 242.061 52.5309 237.294 52.5309 231.327V108.315C52.5309 102.348 55.9603 97.5127 60.5557 97.5127H67.8945C63.4706 97.5127 59.8698 102.348 59.8698 108.315V231.327C59.6983 237.294 63.2992 242.061 67.8945 242.061Z" fill="#CFB0FF"/>
<path d="M239.638 243.602H221.016C220.616 243.602 220.232 243.443 219.949 243.16C219.666 242.877 219.507 242.493 219.507 242.093C219.507 241.693 219.666 241.309 219.949 241.026C220.232 240.743 220.616 240.584 221.016 240.584H239.638C242.102 240.584 244.466 239.605 246.209 237.862C247.952 236.119 248.931 233.756 248.931 231.291V108.313C248.931 105.849 247.952 103.485 246.209 101.742C244.466 99.9989 242.102 99.0198 239.638 99.0198C239.237 99.0198 238.854 98.8608 238.571 98.5778C238.288 98.2949 238.129 97.9111 238.129 97.5109C238.129 97.1107 238.288 96.7269 238.571 96.4439C238.854 96.1609 239.237 96.002 239.638 96.002C241.254 96.002 242.855 96.3204 244.349 96.9391C245.843 97.5578 247.2 98.4647 248.343 99.6079C249.486 100.751 250.393 102.108 251.012 103.602C251.631 105.096 251.949 106.697 251.949 108.313V231.291C251.949 232.908 251.631 234.508 251.012 236.002C250.393 237.496 249.486 238.853 248.343 239.996C247.2 241.139 245.843 242.046 244.349 242.665C242.855 243.284 241.254 243.602 239.638 243.602Z" fill="#3E3126"/>
<path d="M210.694 91.9902H99.4791C99.0698 91.9902 98.6773 91.8277 98.3879 91.5382C98.0985 91.2488 97.9359 90.8563 97.9359 90.447C97.9359 90.0377 98.0985 89.6452 98.3879 89.3558C98.6773 89.0664 99.0698 88.9038 99.4791 88.9038H210.694C211.103 88.9038 211.495 89.0664 211.785 89.3558C212.074 89.6452 212.237 90.0377 212.237 90.447C212.237 90.8563 212.074 91.2488 211.785 91.5382C211.495 91.8277 211.103 91.9902 210.694 91.9902Z" fill="#3E3126"/>
<path d="M98.073 98.9514H90.2883C89.8882 98.9514 89.5044 98.7925 89.2214 98.5095C88.9384 98.2265 88.7794 97.8427 88.7794 97.4425C88.7794 97.0423 88.9384 96.6585 89.2214 96.3755C89.5044 96.0926 89.8882 95.9336 90.2883 95.9336H98.073C98.4732 95.9336 98.857 96.0926 99.14 96.3755C99.423 96.6585 99.5819 97.0423 99.5819 97.4425C99.5819 97.8427 99.423 98.2265 99.14 98.5095C98.857 98.7925 98.4732 98.9514 98.073 98.9514Z" fill="#3E3126"/>
<path d="M235.351 104.919H75.4735C71.6476 104.919 68.5461 108.02 68.5461 111.846V227.45C68.5461 231.276 71.6476 234.378 75.4735 234.378H235.351C239.177 234.378 242.278 231.276 242.278 227.45V111.846C242.278 108.02 239.177 104.919 235.351 104.919Z" fill="#7C6887"/>
<path opacity="0.5" d="M265.392 171.415C264.495 173.452 263.026 175.184 261.163 176.402C259.3 177.619 257.124 178.27 254.898 178.274L139.123 177.794C136.091 177.794 133.183 176.592 131.035 174.451C128.888 172.31 127.678 169.406 127.669 166.374V98.0264H134.013V164.282C134.022 166.177 134.781 167.991 136.124 169.328C137.467 170.665 139.285 171.415 141.18 171.415H265.392Z" fill="#3D3344"/>
<path d="M68.9234 156.736C68.6706 156.746 68.4236 156.66 68.2325 156.494C68.0413 156.329 67.9205 156.096 67.8945 155.845V111.743C67.8945 109.651 68.7256 107.645 70.2048 106.166C71.684 104.686 73.6902 103.855 75.7821 103.855H105C105.252 103.864 105.492 103.968 105.67 104.146C105.848 104.324 105.952 104.564 105.961 104.816C105.965 104.937 105.946 105.059 105.903 105.173C105.861 105.287 105.797 105.391 105.714 105.481C105.631 105.57 105.531 105.642 105.421 105.692C105.31 105.743 105.191 105.771 105.069 105.776H75.8507C74.2681 105.776 72.7504 106.405 71.6313 107.524C70.5123 108.643 69.8836 110.16 69.8836 111.743V155.776C69.8674 156.026 69.7611 156.261 69.5844 156.437C69.4077 156.614 69.1727 156.72 68.9234 156.736Z" fill="#3E3126"/>
<path d="M235.728 235.201H75.8507C74.8091 235.21 73.7761 235.012 72.8112 234.62C71.8463 234.228 70.9687 233.648 70.229 232.915C69.4892 232.182 68.9021 231.309 68.5014 230.348C68.1008 229.386 67.8945 228.355 67.8945 227.313V183.314C67.9031 183.081 67.9997 182.859 68.1651 182.693C68.3305 182.528 68.5524 182.431 68.7862 182.423C69.0381 182.431 69.2774 182.535 69.4557 182.713C69.634 182.892 69.7379 183.131 69.7464 183.383V227.279C69.7734 228.862 70.4212 230.371 71.5502 231.48C72.6792 232.59 74.199 233.212 75.7821 233.212H235.728C237.311 233.194 238.824 232.555 239.94 231.432C241.056 230.309 241.686 228.793 241.695 227.21V178.307C241.704 178.055 241.808 177.816 241.986 177.638C242.164 177.46 242.403 177.356 242.655 177.347C242.913 177.356 243.157 177.465 243.337 177.65C243.516 177.836 243.616 178.084 243.616 178.342V227.21C243.643 229.285 242.853 231.287 241.415 232.782C239.977 234.278 238.008 235.147 235.934 235.201H235.728Z" fill="#3E3126"/>
<path d="M68.9234 178.171C68.6706 178.181 68.4236 178.095 68.2325 177.929C68.0413 177.763 67.9205 177.531 67.8945 177.28V166.991C67.9031 166.74 68.007 166.5 68.1853 166.322C68.3635 166.144 68.6028 166.04 68.8548 166.031C69.1041 166.047 69.3391 166.154 69.5158 166.33C69.6925 166.507 69.7989 166.742 69.815 166.991V177.074C69.8342 177.205 69.826 177.339 69.7907 177.468C69.7554 177.596 69.6939 177.715 69.6101 177.818C69.5263 177.921 69.422 178.006 69.3038 178.067C69.1856 178.128 69.056 178.163 68.9234 178.171Z" fill="#3E3126"/>
<path opacity="0.35" d="M176.469 216.648C177.397 216.648 178.149 215.896 178.149 214.968C178.149 214.04 177.397 213.288 176.469 213.288C175.54 213.288 174.788 214.04 174.788 214.968C174.788 215.896 175.54 216.648 176.469 216.648Z" fill="#3D3344"/>
<path opacity="0.5" d="M235.351 226.525H182.676V226.113C182.676 225.422 182.401 224.759 181.912 224.27C181.424 223.781 180.761 223.507 180.069 223.507C179.378 223.507 178.715 223.781 178.226 224.27C177.738 224.759 177.463 225.422 177.463 226.113V226.525H173.519C173.61 226.258 173.668 225.982 173.691 225.702C173.691 224.892 173.369 224.116 172.797 223.543C172.224 222.971 171.448 222.649 170.639 222.649C169.829 222.649 169.053 222.971 168.48 223.543C167.908 224.116 167.586 224.892 167.586 225.702C167.553 225.975 167.553 226.251 167.586 226.525H75.4735C73.6544 226.525 71.9099 225.802 70.6236 224.516C69.3373 223.229 68.6147 221.485 68.6147 219.666V227.519C68.6147 229.338 69.3373 231.083 70.6236 232.369C71.9099 233.655 73.6544 234.378 75.4735 234.378H235.351C237.17 234.378 238.914 233.655 240.201 232.369C241.487 231.083 242.21 229.338 242.21 227.519V219.563C242.21 221.382 241.487 223.127 240.201 224.413C238.914 225.699 237.17 226.422 235.351 226.422V226.525Z" fill="#3D3344"/>
<path opacity="0.35" d="M170.296 214.213C170.826 214.213 171.256 213.783 171.256 213.253C171.256 212.722 170.826 212.292 170.296 212.292C169.765 212.292 169.335 212.722 169.335 213.253C169.335 213.783 169.765 214.213 170.296 214.213Z" fill="#3D3344"/>
<path opacity="0.35" d="M183.362 216.167C183.721 216.167 184.013 215.876 184.013 215.516C184.013 215.156 183.721 214.864 183.362 214.864C183.002 214.864 182.71 215.156 182.71 215.516C182.71 215.876 183.002 216.167 183.362 216.167Z" fill="#3D3344"/>
<path opacity="0.35" d="M179.041 210.269C179.836 210.269 180.481 209.624 180.481 208.829C180.481 208.033 179.836 207.388 179.041 207.388C178.245 207.388 177.6 208.033 177.6 208.829C177.6 209.624 178.245 210.269 179.041 210.269Z" fill="#3D3344"/>
<path opacity="0.35" d="M164.431 214.555C165.227 214.555 165.872 213.911 165.872 213.115C165.872 212.32 165.227 211.675 164.431 211.675C163.636 211.675 162.991 212.32 162.991 213.115C162.991 213.911 163.636 214.555 164.431 214.555Z" fill="#3D3344"/>
<path d="M105.686 148.266C105.686 146.315 104.105 144.733 102.154 144.733C100.203 144.733 98.6217 146.315 98.6217 148.266V169.425C98.6217 171.376 100.203 172.957 102.154 172.957C104.105 172.957 105.686 171.376 105.686 169.425V148.266Z" fill="#3D3344"/>
<path d="M267.999 76.8317H115.529C114.776 76.8191 114.026 76.9114 113.299 77.1061H115.254C114.209 77.0787 113.169 77.2575 112.193 77.6322C111.218 78.007 110.325 78.5703 109.567 79.2901C108.809 80.0098 108.201 80.8719 107.776 81.827C107.351 82.7821 107.119 83.8115 107.092 84.8564V191.407C107.092 192.515 107.311 193.612 107.734 194.635C108.158 195.659 108.78 196.589 109.563 197.372C110.347 198.156 111.277 198.777 112.3 199.201C113.324 199.625 114.421 199.843 115.529 199.843H267.999C270.236 199.843 272.382 198.955 273.964 197.372C275.546 195.79 276.435 193.645 276.435 191.407V85.268C276.435 83.0305 275.546 80.8847 273.964 79.3026C272.382 77.7205 270.236 76.8317 267.999 76.8317Z" fill="white"/>
<path opacity="0.2" d="M276.503 86.4009V192.712C276.503 194.949 275.615 197.095 274.032 198.677C272.45 200.259 270.305 201.148 268.067 201.148H162.648C326.195 201.216 214.397 106.771 257.608 78.2047H267.896C268.999 78.1774 270.097 78.3677 271.127 78.7649C272.157 79.162 273.098 79.7582 273.898 80.5194C274.697 81.2805 275.339 82.1917 275.786 83.2009C276.233 84.2101 276.477 85.2975 276.503 86.4009Z" fill="#C9D2DF"/>
<path d="M144.13 102.313H131.235C130.935 102.313 130.647 102.193 130.435 101.981C130.223 101.769 130.103 101.481 130.103 101.181C130.103 100.881 130.223 100.593 130.435 100.381C130.647 100.169 130.935 100.049 131.235 100.049H144.13C144.43 100.049 144.718 100.169 144.93 100.381C145.142 100.593 145.261 100.881 145.261 101.181C145.261 101.481 145.142 101.769 144.93 101.981C144.718 102.193 144.43 102.313 144.13 102.313Z" fill="white"/>
<path d="M144.13 144.289H131.235C130.935 144.289 130.647 144.17 130.435 143.958C130.223 143.746 130.103 143.458 130.103 143.158C130.103 142.857 130.223 142.57 130.435 142.357C130.647 142.145 130.935 142.026 131.235 142.026H144.13C144.43 142.026 144.718 142.145 144.93 142.357C145.142 142.57 145.261 142.857 145.261 143.158C145.261 143.458 145.142 143.746 144.93 143.958C144.718 144.17 144.43 144.289 144.13 144.289Z" fill="white"/>
<path d="M144.13 165.275H131.235C130.935 165.275 130.647 165.156 130.435 164.944C130.223 164.731 130.103 164.444 130.103 164.143C130.103 163.843 130.223 163.555 130.435 163.343C130.647 163.131 130.935 163.012 131.235 163.012H144.13C144.43 163.012 144.718 163.131 144.93 163.343C145.142 163.555 145.261 163.843 145.261 164.143C145.261 164.444 145.142 164.731 144.93 164.944C144.718 165.156 144.43 165.275 144.13 165.275Z" fill="white"/>
<path d="M115.906 200.702H107.127C104.901 200.683 102.773 199.787 101.206 198.207C99.6382 196.626 98.7588 194.491 98.7589 192.265V86.1262C98.7589 83.8888 99.6477 81.743 101.23 80.1609C102.812 78.5788 104.958 77.6899 107.195 77.6899H115.906C114.798 77.6899 113.701 77.9082 112.677 78.3321C111.654 78.7561 110.724 79.3775 109.94 80.1609C109.157 80.9442 108.536 81.8742 108.112 82.8978C107.688 83.9213 107.47 85.0183 107.47 86.1262V192.265C107.47 193.373 107.688 194.47 108.112 195.494C108.536 196.517 109.157 197.447 109.94 198.231C110.724 199.014 111.654 199.635 112.677 200.059C113.701 200.483 114.798 200.702 115.906 200.702Z" fill="#CFB0FF"/>
<path opacity="0.6" d="M102.6 94.6655C103.509 94.6655 104.382 95.0268 105.025 95.67C105.668 96.3131 106.029 97.1854 106.029 98.0949V112.498C106.029 113.408 105.668 114.28 105.025 114.923C104.382 115.566 103.509 115.928 102.6 115.928C101.69 115.928 100.818 115.566 100.175 114.923C99.5318 114.28 99.1704 113.408 99.1704 112.498V98.1978C99.1567 97.7388 99.2352 97.2818 99.4014 96.8538C99.5675 96.4258 99.8179 96.0355 100.138 95.7061C100.458 95.3766 100.84 95.1148 101.263 94.9361C101.686 94.7573 102.141 94.6653 102.6 94.6655Z" fill="#8647EA"/>
<path d="M261.791 91.6468H114.328C114.119 91.6468 113.918 91.5637 113.771 91.4158C113.623 91.2679 113.54 91.0673 113.54 90.8581C113.54 90.6489 113.623 90.4483 113.771 90.3004C113.918 90.1524 114.119 90.0693 114.328 90.0693H261.791C261.992 90.0859 262.179 90.1753 262.318 90.3207C262.457 90.466 262.538 90.6572 262.546 90.8581C262.55 90.9572 262.535 91.0562 262.502 91.1495C262.468 91.2428 262.416 91.3286 262.349 91.4018C262.282 91.4751 262.202 91.5345 262.112 91.5765C262.022 91.6185 261.925 91.6424 261.826 91.6468H261.791Z" fill="#3E3126"/>
<path d="M228.801 130.982H189.774C189.52 130.982 189.276 130.881 189.095 130.701C188.915 130.521 188.814 130.276 188.814 130.022C188.814 129.767 188.915 129.523 189.095 129.343C189.276 129.163 189.52 129.062 189.774 129.062H228.801C229.055 129.062 229.3 129.163 229.48 129.343C229.66 129.523 229.761 129.767 229.761 130.022C229.761 130.276 229.66 130.521 229.48 130.701C229.3 130.881 229.055 130.982 228.801 130.982Z" fill="#3E3126"/>
<path d="M228.801 121.792H189.774C189.525 121.776 189.29 121.669 189.113 121.493C188.937 121.316 188.83 121.081 188.814 120.831C188.823 120.58 188.927 120.34 189.105 120.162C189.283 119.984 189.523 119.88 189.774 119.871H228.801C228.922 119.867 229.044 119.886 229.158 119.928C229.272 119.971 229.377 120.035 229.466 120.118C229.555 120.201 229.627 120.3 229.678 120.411C229.728 120.522 229.757 120.641 229.761 120.763C229.766 120.894 229.744 121.024 229.699 121.146C229.653 121.269 229.583 121.381 229.494 121.476C229.405 121.572 229.298 121.649 229.179 121.703C229.06 121.757 228.931 121.787 228.801 121.792Z" fill="#3E3126"/>
<path d="M249.651 140.517H189.774C189.525 140.501 189.29 140.394 189.113 140.217C188.937 140.041 188.83 139.806 188.814 139.556C188.823 139.304 188.927 139.065 189.105 138.887C189.283 138.709 189.523 138.605 189.774 138.596H249.651C249.903 138.605 250.143 138.709 250.321 138.887C250.499 139.065 250.603 139.304 250.612 139.556C250.595 139.806 250.489 140.041 250.312 140.217C250.136 140.394 249.901 140.501 249.651 140.517Z" fill="#3E3126"/>
<path d="M122.97 87.1205C122.496 87.1205 122.031 86.9797 121.637 86.7159C121.242 86.4521 120.934 86.0772 120.752 85.6386C120.571 85.1999 120.523 84.7172 120.616 84.2516C120.708 83.7859 120.937 83.3582 121.273 83.0224C121.609 82.6867 122.036 82.4581 122.502 82.3655C122.968 82.2728 123.45 82.3204 123.889 82.5021C124.328 82.6838 124.703 82.9914 124.966 83.3862C125.23 83.781 125.371 84.2451 125.371 84.7199C125.371 85.3566 125.118 85.9672 124.668 86.4174C124.218 86.8675 123.607 87.1205 122.97 87.1205ZM122.97 83.2453C122.579 83.2453 122.204 83.4006 121.928 83.6772C121.651 83.9537 121.496 84.3288 121.496 84.7199C121.504 85.1083 121.663 85.4783 121.937 85.753C122.212 86.0276 122.582 86.1858 122.97 86.1945C123.164 86.1945 123.356 86.1564 123.535 86.0823C123.714 86.0082 123.876 85.8996 124.013 85.7626C124.15 85.6257 124.259 85.4631 124.333 85.2842C124.407 85.1053 124.445 84.9135 124.445 84.7199C124.445 84.3288 124.29 83.9537 124.013 83.6772C123.736 83.4006 123.361 83.2453 122.97 83.2453Z" fill="#3E3126"/>
<path d="M131.304 87.1205C130.829 87.1205 130.365 86.9797 129.97 86.7159C129.575 86.4521 129.268 86.0772 129.086 85.6386C128.904 85.1999 128.857 84.7172 128.949 84.2516C129.042 83.7859 129.27 83.3582 129.606 83.0224C129.942 82.6867 130.37 82.4581 130.835 82.3655C131.301 82.2728 131.784 82.3204 132.222 82.5021C132.661 82.6838 133.036 82.9914 133.3 83.3862C133.563 83.781 133.704 84.2451 133.704 84.7199C133.704 85.3566 133.451 85.9672 133.001 86.4174C132.551 86.8675 131.94 87.1205 131.304 87.1205ZM131.304 83.2453C130.913 83.2453 130.537 83.4006 130.261 83.6772C129.984 83.9537 129.829 84.3288 129.829 84.7199C129.777 85.1033 129.877 85.4918 130.109 85.8017C130.341 86.1116 130.685 86.318 131.067 86.3765C131.45 86.435 131.84 86.3409 132.153 86.1144C132.467 85.8879 132.679 85.5472 132.744 85.1657C132.778 85.019 132.778 84.8666 132.744 84.7199C132.749 84.5307 132.716 84.3425 132.648 84.166C132.579 83.9895 132.477 83.8282 132.347 83.6913C132.216 83.5543 132.06 83.4444 131.887 83.3679C131.714 83.2914 131.527 83.2497 131.338 83.2453H131.304Z" fill="#3E3126"/>
<path d="M139.603 87.1205C139.128 87.1205 138.664 86.9797 138.269 86.7159C137.874 86.4521 137.567 86.0772 137.385 85.6386C137.203 85.1999 137.156 84.7172 137.248 84.2516C137.341 83.7859 137.57 83.3582 137.905 83.0224C138.241 82.6867 138.669 82.4581 139.134 82.3655C139.6 82.2728 140.083 82.3204 140.521 82.5021C140.96 82.6838 141.335 82.9914 141.599 83.3862C141.863 83.781 142.003 84.2451 142.003 84.7199C142.003 85.3566 141.75 85.9672 141.3 86.4174C140.85 86.8675 140.239 87.1205 139.603 87.1205ZM139.603 83.2453C139.221 83.2453 138.854 83.397 138.584 83.6671C138.314 83.9372 138.162 84.3036 138.162 84.6856C138.11 85.069 138.211 85.4575 138.442 85.7674C138.674 86.0773 139.018 86.2837 139.401 86.3422C139.783 86.4007 140.173 86.3066 140.487 86.0801C140.801 85.8536 141.013 85.5129 141.077 85.1314C141.111 84.9847 141.111 84.8323 141.077 84.6856C141.077 84.492 141.039 84.3002 140.965 84.1213C140.891 83.9424 140.782 83.7798 140.645 83.6429C140.509 83.506 140.346 83.3973 140.167 83.3232C139.988 83.2491 139.796 83.211 139.603 83.211V83.2453Z" fill="#3E3126"/>
<path d="M83.8754 99.535C84.955 99.535 85.8302 98.6598 85.8302 97.5802C85.8302 96.5007 84.955 95.6255 83.8754 95.6255C82.7958 95.6255 81.9207 96.5007 81.9207 97.5802C81.9207 98.6598 82.7958 99.535 83.8754 99.535Z" fill="#3E3126"/>
<path d="M69.0605 163.63C70.1401 163.63 71.0153 162.755 71.0153 161.675C71.0153 160.595 70.1401 159.72 69.0605 159.72C67.981 159.72 67.1058 160.595 67.1058 161.675C67.1058 162.755 67.981 163.63 69.0605 163.63Z" fill="#3E3126"/>
<path d="M80.9605 128.89H80.6175C80.4163 128.799 80.2577 128.635 80.1746 128.431C80.0916 128.226 80.0906 127.998 80.1717 127.792L84.7671 116.956C84.837 116.761 84.9803 116.602 85.1663 116.513C85.3522 116.423 85.566 116.409 85.7616 116.476C85.9559 116.545 86.115 116.689 86.2047 116.875C86.2945 117.061 86.3078 117.274 86.2417 117.47L81.612 128.307C81.5774 128.46 81.4961 128.598 81.3793 128.702C81.2625 128.807 81.1162 128.872 80.9605 128.89Z" fill="#3E3126"/>
<path d="M87.0647 123.609H86.7218C86.5206 123.519 86.3619 123.355 86.2789 123.15C86.1959 122.946 86.1948 122.717 86.276 122.512L88.7451 116.716C88.8151 116.522 88.9584 116.363 89.1444 116.273C89.3303 116.183 89.544 116.17 89.7397 116.236C89.9384 116.32 90.0964 116.478 90.1798 116.677C90.2631 116.876 90.2652 117.099 90.1855 117.299L87.7163 123.095C87.6699 123.235 87.5835 123.358 87.4676 123.45C87.3518 123.541 87.2118 123.597 87.0647 123.609Z" fill="#3E3126"/>
<path opacity="0.6" d="M103.149 125.907C104.986 125.907 106.475 124.418 106.475 122.58C106.475 120.743 104.986 119.254 103.149 119.254C101.311 119.254 99.822 120.743 99.822 122.58C99.822 124.418 101.311 125.907 103.149 125.907Z" fill="#8647EA"/>
<path d="M139.294 201.559H114.911C112.376 201.55 109.948 200.539 108.156 198.746C106.363 196.954 105.352 194.526 105.343 191.991V85.6803C105.352 83.1455 106.363 80.7171 108.156 78.9247C109.948 77.1323 112.376 76.1213 114.911 76.1123H139.294C139.594 76.1123 139.882 76.2315 140.094 76.4438C140.307 76.656 140.426 76.9439 140.426 77.244C140.426 77.5441 140.307 77.832 140.094 78.0442C139.882 78.2565 139.594 78.3757 139.294 78.3757H114.911C112.98 78.3936 111.132 79.1689 109.766 80.5349C108.4 81.9009 107.625 83.7485 107.607 85.6803V191.991C107.625 193.923 108.4 195.77 109.766 197.136C111.132 198.502 112.98 199.278 114.911 199.295H139.294C139.594 199.295 139.882 199.415 140.094 199.627C140.307 199.839 140.426 200.127 140.426 200.427C140.426 200.727 140.307 201.015 140.094 201.227C139.882 201.44 139.594 201.559 139.294 201.559Z" fill="#3E3126"/>
<path d="M268.684 201.559H107.504C104.969 201.55 102.541 200.539 100.748 198.746C98.9559 196.954 97.9449 194.526 97.9359 191.991V85.6803C97.9449 83.1455 98.9559 80.7171 100.748 78.9247C102.541 77.1323 104.969 76.1213 107.504 76.1123H268.684C271.219 76.1213 273.648 77.1323 275.44 78.9247C277.232 80.7171 278.243 83.1455 278.252 85.6803V191.991C278.243 194.526 277.232 196.954 275.44 198.746C273.648 200.539 271.219 201.55 268.684 201.559ZM107.504 78.5129C105.572 78.5308 103.725 79.3061 102.358 80.6721C100.992 82.0381 100.217 83.8857 100.199 85.8174V192.128C100.19 193.096 100.372 194.057 100.734 194.955C101.096 195.853 101.632 196.671 102.31 197.362C102.989 198.053 103.796 198.604 104.687 198.982C105.579 199.361 106.536 199.561 107.504 199.57H268.684C270.616 199.552 272.464 198.777 273.83 197.411C275.196 196.045 275.971 194.197 275.989 192.265V85.9546C275.998 84.9863 275.816 84.0258 275.454 83.1278C275.092 82.2297 274.556 81.4119 273.878 80.7208C273.2 80.0298 272.392 79.4791 271.501 79.1003C270.61 78.7214 269.653 78.5218 268.684 78.5129H107.504Z" fill="#3E3126"/>
<path opacity="0.6" d="M55.7889 176.559H55.7546C53.8795 176.559 52.3595 178.079 52.3595 179.954V201.079C52.3595 202.954 53.8795 204.474 55.7546 204.474H55.7889C57.6639 204.474 59.1839 202.954 59.1839 201.079V179.954C59.1839 178.079 57.6639 176.559 55.7889 176.559Z" fill="#8647EA"/>
<path d="M203.869 243.636H63.0591C59.7939 243.636 56.6625 242.339 54.3536 240.031C52.0448 237.722 50.7477 234.59 50.7477 231.325V108.313C50.7477 105.048 52.0448 101.917 54.3536 99.6079C56.6625 97.299 59.7939 96.002 63.0591 96.002H77.8397C78.2399 96.002 78.6237 96.1609 78.9067 96.4439C79.1897 96.7269 79.3487 97.1107 79.3487 97.5109C79.3487 97.9111 79.1897 98.2949 78.9067 98.5778C78.6237 98.8608 78.2399 99.0198 77.8397 99.0198H63.0591C60.5943 99.0198 58.2305 99.9989 56.4876 101.742C54.7447 103.485 53.7655 105.849 53.7655 108.313V231.325C53.7519 232.554 53.9823 233.774 54.4432 234.913C54.9042 236.053 55.5866 237.089 56.4509 237.963C57.3153 238.837 58.3444 239.531 59.4787 240.004C60.613 240.478 61.83 240.722 63.0591 240.722H203.869C204.269 240.722 204.653 240.88 204.936 241.163C205.219 241.446 205.378 241.83 205.378 242.23C205.383 242.424 205.349 242.617 205.279 242.797C205.209 242.978 205.104 243.143 204.971 243.283C204.837 243.423 204.677 243.536 204.5 243.614C204.322 243.692 204.131 243.735 203.938 243.739L203.869 243.636Z" fill="#3E3126"/>
<path d="M70.1579 243.089C67.0411 243.08 64.0544 241.838 61.8504 239.634C59.6464 237.43 58.4042 234.443 58.3952 231.326V108.315C58.4401 105.222 59.6982 102.27 61.8983 100.095C64.0984 97.9209 67.0646 96.6976 70.1579 96.689C70.4073 96.7051 70.6423 96.8114 70.819 96.9881C70.9957 97.1648 71.102 97.3998 71.1182 97.6492C71.1096 97.9011 71.0057 98.1404 70.8275 98.3187C70.6492 98.497 70.4099 98.6009 70.1579 98.6094C67.5685 98.6002 65.0805 99.6154 63.2366 101.434C61.3928 103.252 60.3428 105.725 60.3156 108.315V231.326C60.3111 232.614 60.5604 233.89 61.0491 235.082C61.5378 236.274 62.2565 237.358 63.1641 238.272C64.0717 239.185 65.1504 239.912 66.3386 240.409C67.5268 240.906 68.8014 241.164 70.0894 241.168C70.3387 241.185 70.5737 241.291 70.7504 241.468C70.9271 241.644 71.0334 241.879 71.0496 242.129C71.0426 242.37 70.9483 242.6 70.7843 242.776C70.6203 242.953 70.3977 243.064 70.1579 243.089Z" fill="#3E3126"/>
<path d="M174.308 105.845H124.308C122.603 105.845 121.221 107.227 121.221 108.931V150.77C121.221 152.474 122.603 153.856 124.308 153.856H174.308C176.013 153.856 177.394 152.474 177.394 150.77V108.931C177.394 107.227 176.013 105.845 174.308 105.845Z" fill="#B29FBF"/>
<path d="M176.674 108.726V150.564C176.674 151.392 176.346 152.185 175.76 152.771C175.175 153.356 174.381 153.685 173.554 153.685H143.135C159.419 142.66 171.086 126.038 175.92 106.977C176.367 107.454 176.634 108.073 176.674 108.726Z" fill="#7C6887"/>
<path d="M174.205 154.988H124.308C123.235 154.988 122.205 154.561 121.446 153.802C120.687 153.043 120.261 152.014 120.261 150.941V109.205C120.257 108.674 120.357 108.147 120.556 107.654C120.755 107.162 121.049 106.713 121.422 106.334C121.795 105.955 122.238 105.653 122.727 105.446C123.217 105.238 123.742 105.129 124.273 105.125H174.205C175.287 105.125 176.325 105.554 177.091 106.32C177.856 107.085 178.286 108.123 178.286 109.205V150.975C178.268 152.046 177.83 153.066 177.067 153.817C176.303 154.567 175.276 154.988 174.205 154.988ZM124.239 106.976C123.675 106.994 123.139 107.228 122.743 107.631C122.347 108.033 122.121 108.572 122.113 109.137V150.975C122.121 151.54 122.347 152.079 122.743 152.482C123.139 152.884 123.675 153.118 124.239 153.136H174.205C174.778 153.136 175.328 152.908 175.733 152.503C176.138 152.098 176.366 151.548 176.366 150.975V109.205C176.375 108.916 176.326 108.628 176.221 108.358C176.117 108.088 175.959 107.841 175.758 107.633C175.556 107.425 175.315 107.26 175.048 107.147C174.781 107.034 174.495 106.976 174.205 106.976H124.239Z" fill="#3E3126"/>
<circle cx="125" cy="168" r="5" fill="#D9D9D9"/>
<circle cx="125" cy="168" r="5" fill="#D9D9D9"/>
<circle cx="139" cy="168" r="5" fill="#D9D9D9"/>
<circle cx="153" cy="168" r="5" fill="#D9D9D9"/>
<circle cx="167" cy="168" r="5" fill="#D9D9D9"/>
</g>
<defs>
<clipPath id="clip0_11_204">
<rect width="98.0854" height="43.7501" fill="white" transform="translate(115.457 22.3623)"/>
</clipPath>
<clipPath id="clip1_11_204">
<rect width="227.505" height="167.525" fill="white" transform="translate(50.7477 76.1123)"/>
</clipPath>
</defs>
</svg>
