<svg width="116" height="117" viewBox="0 0 116 117" fill="none" xmlns="http://www.w3.org/2000/svg">
<g clip-path="url(#clip0_6_66)">
<rect width="94" height="94" transform="translate(0 25.218) rotate(-15)" fill="#FCAF54"/>
<path d="M30.6174 44.9665L26.9009 45.9624L18.1061 37.1371L18.0212 37.1599C18.6344 38.9704 19.0463 40.2687 19.257 41.0548L20.9959 47.5446L18.383 48.2447L14.6878 34.4539L18.376 33.4656L27.1335 42.1896L27.1996 42.1719C26.625 40.405 26.2383 39.1504 26.0395 38.4084L24.2904 31.8808L26.9222 31.1757L30.6174 44.9665ZM30.1929 30.8553C29.9419 29.9183 30.3383 29.31 31.3822 29.0303C32.4261 28.7506 33.0736 29.0792 33.3246 30.0162C33.4443 30.4627 33.4057 30.8471 33.209 31.1694C33.0169 31.4837 32.6599 31.7108 32.1379 31.8507C31.094 32.1304 30.4457 31.7986 30.1929 30.8553ZM36.7488 43.3236L33.8718 44.0945L31.046 33.5486L33.923 32.7777L36.7488 43.3236ZM44.1098 41.5534C40.8272 42.433 38.7031 41.0711 37.7376 37.4678C37.2574 35.6755 37.3374 34.1881 37.9776 33.0056C38.6161 31.8167 39.7686 30.999 41.4351 30.5525C42.6551 30.2256 43.8133 30.1714 44.9098 30.3898L44.6574 32.8435C44.1557 32.7824 43.6948 32.7475 43.2746 32.7388C42.8527 32.7238 42.4468 32.7685 42.0569 32.873C40.5602 33.274 40.0966 34.5373 40.6662 36.6629C41.2189 38.7255 42.2435 39.5563 43.7402 39.1553C44.2936 39.007 44.7868 38.7974 45.2196 38.5263C45.6508 38.249 46.0601 37.89 46.4475 37.4492L47.1072 39.9112C46.7211 40.3314 46.3042 40.6622 45.8566 40.9034C45.4153 41.143 44.833 41.3597 44.1098 41.5534ZM51.756 29.9809C51.146 30.1444 50.7203 30.4674 50.4789 30.9499C50.2359 31.4262 50.1844 32.0264 50.3245 32.7505L54.3617 31.6687C54.1588 30.9615 53.8266 30.4641 53.3654 30.1765C52.9025 29.8827 52.366 29.8175 51.756 29.9809ZM54.5426 38.758C52.8447 39.213 51.3922 39.1 50.1853 38.4191C48.9784 37.7382 48.1449 36.5394 47.6849 34.8226C47.2114 33.0555 47.286 31.573 47.9086 30.3749C48.5357 29.1689 49.6291 28.3569 51.1887 27.939C52.6791 27.5397 53.9531 27.6533 55.0106 28.2798C56.0682 28.9064 56.7975 29.968 57.1986 31.4646L57.5726 32.8607L50.7715 34.6831C51.022 35.4922 51.4352 36.0656 52.0109 36.4033C52.5867 36.7411 53.2834 36.8004 54.1009 36.5814C54.736 36.4112 55.3189 36.1842 55.8495 35.9005C56.3801 35.6168 56.9148 35.2477 57.4535 34.7933L58.05 37.0195C57.6143 37.4058 57.1264 37.7354 56.5861 38.0082C56.0476 38.2873 55.3664 38.5373 54.5426 38.758ZM70.0303 32.1513C70.5334 32.0165 71.1076 31.7447 71.7529 31.3359L72.3267 33.4771C71.6957 33.99 70.8583 34.3862 69.8144 34.6659C68.6636 34.9743 67.7466 34.91 67.0633 34.473C66.3846 34.028 65.8894 33.2238 65.5777 32.0604L64.2154 26.9761L62.8382 27.3451L62.5121 26.1283L63.839 24.7415L64.0726 22.2929L65.912 21.8L66.5136 24.0451L69.4661 23.2539L70.0449 25.4141L67.0924 26.2052L68.4547 31.2895C68.5643 31.6983 68.7583 31.9698 69.037 32.1041C69.3219 32.2367 69.653 32.2524 70.0303 32.1513ZM75.4206 27.2898C75.7003 28.3337 76.0815 29.0774 76.5643 29.5209C77.0534 29.9628 77.6847 30.0801 78.4582 29.8728C79.2254 29.6673 79.7049 29.2557 79.8967 28.6382C80.093 28.0126 80.0505 27.1748 79.7691 26.1246C79.4894 25.0807 79.1098 24.3433 78.6304 23.9123C78.1509 23.4813 77.5245 23.3695 76.751 23.5767C75.9838 23.7823 75.5003 24.1916 75.3006 24.8045C75.0992 25.4112 75.1392 26.2396 75.4206 27.2898ZM82.7122 25.336C83.1722 27.0528 83.0791 28.5167 82.4331 29.7278C81.787 30.9389 80.6559 31.761 79.0397 32.194C78.0273 32.4653 77.0753 32.4845 76.1839 32.2515C75.2908 32.0123 74.5255 31.5332 73.888 30.8144C73.2505 30.0955 72.7835 29.1826 72.4869 28.0758C72.0252 26.3528 72.116 24.8928 72.7591 23.696C73.4023 22.4992 74.5382 21.6826 76.1669 21.2461C77.1794 20.9749 78.1314 20.9557 79.0228 21.1886C79.9142 21.4216 80.6779 21.8943 81.3136 22.6069C81.9494 23.3195 82.4156 24.2292 82.7122 25.336ZM34.587 71.8553L31.71 72.6262L30.0595 66.4666C29.8556 65.7056 29.5742 65.1711 29.2153 64.8628C28.861 64.5466 28.4103 64.4618 27.8632 64.6084C27.1274 64.8056 26.6653 65.2192 26.4769 65.8493C26.2885 66.4795 26.3603 67.4139 26.6923 68.6528L28.0218 73.6145L25.1447 74.3854L22.319 63.8394L24.5168 63.2505L25.265 64.4958L25.4254 64.4528C25.5786 63.8928 25.8863 63.4059 26.3483 62.9923C26.8087 62.5724 27.3848 62.2697 28.0765 62.0844C29.655 61.6614 30.8622 61.8907 31.6982 62.772L31.9529 62.7038C32.1045 62.1374 32.4176 61.6458 32.8922 61.2288C33.3732 60.8101 33.9595 60.508 34.6512 60.3227C35.8461 60.0025 36.831 60.0689 37.6062 60.5217C38.3859 60.9666 38.9569 61.865 39.3192 63.2171L41.1617 70.0936L38.2753 70.8671L36.6248 64.7074C36.4209 63.9465 36.1395 63.4119 35.7806 63.1037C35.4263 62.7875 34.9755 62.7027 34.4284 62.8493C33.7241 63.038 33.2633 63.4311 33.0459 64.0285C32.8348 64.6243 32.8759 65.4693 33.1691 66.5635L34.587 71.8553ZM46.1607 59.4326C45.5507 59.5961 45.125 59.9191 44.8836 60.4017C44.6405 60.8779 44.589 61.4781 44.7291 62.2022L48.7664 61.1204C48.5634 60.4132 48.2313 59.9158 47.7701 59.6282C47.3072 59.3344 46.7707 59.2692 46.1607 59.4326ZM48.9473 68.2097C47.2493 68.6647 45.7969 68.5517 44.59 67.8708C43.383 67.19 42.5496 65.9911 42.0896 64.2744C41.6161 62.5073 41.6906 61.0247 42.3132 59.8266C42.9404 58.6206 44.0338 57.8086 45.5934 57.3908C47.0838 56.9914 48.3577 57.105 49.4153 57.7315C50.4729 58.3581 51.2022 59.4197 51.6032 60.9164L51.9773 62.3124L45.1762 64.1348C45.4267 64.9439 45.8398 65.5173 46.4156 65.855C46.9914 66.1928 47.688 66.2521 48.5056 66.0331C49.1407 65.8629 49.7236 65.6359 50.2542 65.3522C50.7847 65.0685 51.3194 64.6995 51.8582 64.245L52.4547 66.4712C52.019 66.8575 51.531 67.1871 50.9908 67.46C50.4522 67.7391 49.7711 67.989 48.9473 68.2097ZM57.5745 56.3743C56.9645 56.5378 56.5388 56.8608 56.2974 57.3434C56.0543 57.8196 56.0028 58.4198 56.1429 59.1439L60.1802 58.0621C59.9772 57.3549 59.6451 56.8575 59.1838 56.5699C58.7209 56.2761 58.1845 56.2109 57.5745 56.3743ZM60.361 65.1514C58.6631 65.6064 57.2107 65.4934 56.0037 64.8125C54.7968 64.1317 53.9633 62.9328 53.5033 61.216C53.0298 59.449 53.1044 57.9664 53.727 56.7683C54.3542 55.5623 55.4476 54.7503 57.0071 54.3325C58.4975 53.9331 59.7715 54.0467 60.8291 54.6732C61.8867 55.2998 62.616 56.3614 63.017 57.8581L63.3911 59.2541L56.59 61.0765C56.8405 61.8856 57.2536 62.459 57.8294 62.7967C58.4052 63.1345 59.1018 63.1938 59.9193 62.9748C60.5545 62.8046 61.1373 62.5776 61.6679 62.2939C62.1985 62.0102 62.7332 61.6411 63.272 61.1867L63.8685 63.4129C63.4328 63.7992 62.9448 64.1288 62.4046 64.4016C61.866 64.6807 61.1848 64.9307 60.361 65.1514ZM70.8305 59.8894C71.3335 59.7546 71.9078 59.4828 72.5531 59.0739L73.1269 61.2152C72.4959 61.728 71.6585 62.1243 70.6146 62.404C69.4637 62.7123 68.5467 62.648 67.8634 62.211C67.1848 61.766 66.6896 60.9618 66.3779 59.7985L65.0155 54.7141L63.6383 55.0832L63.3123 53.8663L64.6392 52.4795L64.8728 50.031L66.7122 49.5381L67.3137 51.7831L70.2662 50.992L70.845 53.1521L67.8925 53.9432L69.2549 59.0276C69.3644 59.4363 69.5585 59.7078 69.8371 59.8421C70.122 59.9747 70.4531 59.9905 70.8305 59.8894ZM27.7978 90.3238L30.9484 89.4796L34.5285 94.8796C34.8365 95.3498 35.1163 95.9286 35.3679 96.6161L35.4245 96.6009C35.3201 95.9346 35.2919 95.2884 35.3398 94.6622L35.7026 88.2058L38.7871 87.3793L37.5126 100.47C37.3987 101.68 37.0346 102.66 36.4203 103.411C35.8122 104.16 35.002 104.671 33.9895 104.942C33.4927 105.075 32.991 105.152 32.4845 105.173L31.8728 102.891C32.2406 102.88 32.6289 102.82 33.0376 102.71C33.547 102.574 33.9482 102.298 34.2413 101.882C34.5423 101.471 34.7155 100.923 34.7608 100.236L34.7916 99.6721L27.7978 90.3238ZM44.0058 91.6123C44.2855 92.6562 44.6668 93.3999 45.1496 93.8434C45.6387 94.2853 46.27 94.4026 47.0435 94.1953C47.8107 93.9897 48.2902 93.5782 48.4819 92.9606C48.6783 92.3351 48.6358 91.4973 48.3544 90.4471C48.0747 89.4032 47.6951 88.6657 47.2156 88.2348C46.7362 87.8038 46.1097 87.6919 45.3362 87.8992C44.569 88.1048 44.0856 88.514 43.8858 89.127C43.6844 89.7336 43.7244 90.5621 44.0058 91.6123ZM51.2974 89.6585C51.7574 91.3753 51.6644 92.8392 51.0183 94.0503C50.3723 95.2614 49.2412 96.0834 47.625 96.5165C46.6125 96.7878 45.6606 96.8069 44.7691 96.574C43.876 96.3348 43.1107 95.8557 42.4732 95.1368C41.8358 94.4179 41.3688 93.5051 41.0722 92.3983C40.6105 90.6752 40.7012 89.2153 41.3444 88.0185C41.9875 86.8217 43.1235 86.005 44.7522 85.5686C45.7647 85.2973 46.7166 85.2781 47.6081 85.5111C48.4995 85.744 49.2631 86.2168 49.8989 86.9294C50.5347 87.642 51.0009 88.5517 51.2974 89.6585ZM62.5633 92.3116L61.8151 91.0663L61.6642 91.1067C61.4875 91.6798 61.1524 92.1774 60.6588 92.5994C60.1636 93.0152 59.5544 93.32 58.8313 93.5138C57.5924 93.8457 56.5701 93.7658 55.7643 93.274C54.9568 92.7759 54.3863 91.9043 54.0526 90.6592L52.2101 83.7826L55.0871 83.0117L56.7376 89.1714C56.9415 89.9323 57.23 90.4683 57.6032 90.7795C57.9747 91.0843 58.456 91.1575 59.0472 90.9992C59.8521 90.7835 60.3622 90.3603 60.5774 89.7298C60.7909 89.0929 60.7309 88.1519 60.3973 86.9068L59.0678 81.9451L61.9448 81.1742L64.7706 91.7201L62.5633 92.3116ZM68.9781 85.6893L66.6764 86.306L63.726 77.219L66.9897 76.3445L68.9781 85.6893ZM67.022 89.6711C66.8805 89.1429 66.915 88.7056 67.1255 88.3594C67.3361 88.0132 67.7117 87.7676 68.2525 87.6227C68.7745 87.4828 69.214 87.5133 69.5712 87.7142C69.9346 87.9134 70.1854 88.2708 70.3235 88.7865C70.4567 89.2833 70.4173 89.7151 70.2056 90.0818C69.9921 90.4423 69.6276 90.6917 69.1119 90.8298C68.5837 90.9714 68.1378 90.9426 67.7744 90.7434C67.4093 90.5379 67.1585 90.1805 67.022 89.6711Z" fill="black"/>
</g>
<defs>
<clipPath id="clip0_6_66">
<rect width="94" height="94" fill="white" transform="translate(0 25.218) rotate(-15)"/>
</clipPath>
</defs>
</svg>
