<svg width="145" height="145" viewBox="0 0 145 145" fill="none" xmlns="http://www.w3.org/2000/svg">
<g clip-path="url(#clip0_11_392)">
<rect width="118" height="118" transform="translate(0 30.5405) rotate(-15)" fill="#FCAF54"/>
<path d="M33.7233 61.8803L30.0068 62.8761L21.212 54.0509L21.1271 54.0736C21.7403 55.8842 22.1522 57.1825 22.3628 57.9685L24.1018 64.4584L21.4889 65.1585L17.7936 51.3676L21.4819 50.3794L30.2394 59.1034L30.3054 59.0857C29.7309 57.3187 29.3442 56.0642 29.1453 55.3221L27.3963 48.7946L30.0281 48.0894L33.7233 61.8803ZM33.2988 47.7691C33.0477 46.8321 33.4441 46.2237 34.488 45.944C35.5319 45.6643 36.1794 45.993 36.4305 46.9299C36.5501 47.3764 36.5116 47.7608 36.3149 48.0832C36.1228 48.3975 35.7657 48.6246 35.2438 48.7644C34.1999 49.0442 33.5515 48.7124 33.2988 47.7691ZM39.8547 60.2374L36.9776 61.0083L34.1519 50.4623L37.0289 49.6914L39.8547 60.2374ZM47.2157 58.4672C43.9331 59.3468 41.809 57.9849 40.8435 54.3815C40.3632 52.5893 40.4432 51.1019 41.0835 49.9193C41.722 48.7305 42.8745 47.9128 44.541 47.4663C45.761 47.1394 46.9192 47.0851 48.0157 47.3036L47.7632 49.7572C47.2616 49.6962 46.8007 49.6613 46.3804 49.6526C45.9585 49.6375 45.5526 49.6823 45.1627 49.7868C43.6661 50.1878 43.2025 51.4511 43.772 53.5766C44.3247 55.6393 45.3494 56.4701 46.8461 56.069C47.3995 55.9208 47.8926 55.7111 48.3255 55.4401C48.7567 55.1628 49.166 54.8037 49.5534 54.3629L50.2131 56.8249C49.8269 57.2452 49.41 57.5759 48.9624 57.8172C48.5211 58.0568 47.9389 58.2734 47.2157 58.4672ZM54.8619 46.8947C54.2519 47.0581 53.8262 47.3811 53.5848 47.8637C53.3417 48.34 53.2902 48.9402 53.4303 49.6643L57.4676 48.5825C57.2646 47.8752 56.9325 47.3778 56.4713 47.0903C56.0084 46.7964 55.4719 46.7312 54.8619 46.8947ZM57.6484 55.6718C55.9505 56.1267 54.4981 56.0138 53.2912 55.3329C52.0842 54.652 51.2508 53.4532 50.7908 51.7364C50.3173 49.9693 50.3918 48.4867 51.0144 47.2887C51.6416 46.0826 52.735 45.2707 54.2946 44.8528C55.785 44.4534 57.0589 44.567 58.1165 45.1936C59.1741 45.8201 59.9034 46.8817 60.3044 48.3784L60.6785 49.7745L53.8774 51.5968C54.1279 52.4059 54.541 52.9793 55.1168 53.3171C55.6926 53.6548 56.3892 53.7142 57.2068 53.4951C57.8419 53.3249 58.4248 53.098 58.9554 52.8143C59.4859 52.5305 60.0206 52.1615 60.5594 51.7071L61.1559 53.9332C60.7202 54.3196 60.2322 54.6492 59.692 54.922C59.1534 55.2011 58.4723 55.451 57.6484 55.6718ZM73.1362 49.0651C73.6393 48.9303 74.2135 48.6585 74.8588 48.2496L75.4326 50.3909C74.8016 50.9037 73.9642 51.3 72.9203 51.5797C71.7695 51.888 70.8524 51.8237 70.1692 51.3867C69.4905 50.9417 68.9953 50.1375 68.6836 48.9742L67.3212 43.8898L65.944 44.2589L65.618 43.042L66.9449 41.6552L67.1785 39.2067L69.0179 38.7138L69.6195 40.9588L72.5719 40.1677L73.1507 42.3278L70.1983 43.1189L71.5606 48.2033C71.6701 48.612 71.8642 48.8835 72.1428 49.0178C72.4277 49.1504 72.7589 49.1662 73.1362 49.0651ZM78.5264 44.2035C78.8061 45.2474 79.1874 45.9912 79.6702 46.4347C80.1593 46.8766 80.7906 46.9939 81.5641 46.7866C82.3313 46.581 82.8108 46.1695 83.0025 45.5519C83.1989 44.9264 83.1564 44.0885 82.875 43.0383C82.5953 41.9944 82.2157 41.257 81.7362 40.8261C81.2568 40.3951 80.6303 40.2832 79.8568 40.4905C79.0896 40.6961 78.6062 41.1053 78.4064 41.7183C78.205 42.3249 78.245 43.1533 78.5264 44.2035ZM85.818 42.2498C86.278 43.9665 86.185 45.4305 85.539 46.6416C84.8929 47.8526 83.7618 48.6747 82.1456 49.1078C81.1331 49.379 80.1812 49.3982 79.2897 49.1653C78.3966 48.926 77.6313 48.447 76.9938 47.7281C76.3564 47.0092 75.8894 46.0964 75.5928 44.9896C75.1311 43.2665 75.2218 41.8066 75.865 40.6098C76.5081 39.4129 77.6441 38.5963 79.2728 38.1599C80.2853 37.8886 81.2372 37.8694 82.1287 38.1024C83.0201 38.3353 83.7837 38.8081 84.4195 39.5207C85.0553 40.2333 85.5215 41.143 85.818 42.2498ZM37.6929 88.7691L34.8159 89.54L33.1654 83.3803C32.9615 82.6194 32.6801 82.0848 32.3212 81.7766C31.9668 81.4604 31.5161 81.3756 30.969 81.5222C30.2333 81.7193 29.7712 82.133 29.5828 82.7631C29.3944 83.3932 29.4662 84.3277 29.7981 85.5666L31.1276 90.5282L28.2506 91.2991L25.4248 80.7532L27.6227 80.1643L28.3709 81.4095L28.5312 81.3666C28.6845 80.8065 28.9921 80.3197 29.4542 79.9061C29.9146 79.4861 30.4906 79.1835 31.1824 78.9981C32.7608 78.5752 33.9681 78.8044 34.8041 79.6858L35.0588 79.6175C35.2103 79.0512 35.5234 78.5595 35.9981 78.1425C36.479 77.7238 37.0654 77.4218 37.7571 77.2365C38.9519 76.9163 39.9369 76.9826 40.712 77.4355C41.4918 77.8803 42.0628 78.7788 42.425 80.1308L44.2676 87.0074L41.3812 87.7808L39.7307 81.6212C39.5268 80.8602 39.2454 80.3257 38.8864 80.0174C38.5321 79.7012 38.0814 79.6164 37.5343 79.763C36.83 79.9517 36.3691 80.3448 36.1518 80.9423C35.9407 81.538 35.9818 82.383 36.275 83.4772L37.6929 88.7691ZM49.2666 76.3464C48.6566 76.5098 48.2309 76.8329 47.9895 77.3154C47.7464 77.7917 47.6949 78.3919 47.835 79.116L51.8723 78.0342C51.6693 77.327 51.3372 76.8296 50.8759 76.542C50.413 76.2482 49.8766 76.183 49.2666 76.3464ZM52.0531 85.1235C50.3552 85.5784 48.9028 85.4655 47.6958 84.7846C46.4889 84.1037 45.6554 82.9049 45.1954 81.1881C44.7219 79.421 44.7965 77.9384 45.4191 76.7404C46.0463 75.5344 47.1397 74.7224 48.6992 74.3045C50.1896 73.9052 51.4636 74.0188 52.5212 74.6453C53.5787 75.2718 54.308 76.3334 54.7091 77.8301L55.0832 79.2262L48.2821 81.0485C48.5326 81.8576 48.9457 82.431 49.5215 82.7688C50.0973 83.1065 50.7939 83.1659 51.6114 82.9468C52.2466 82.7766 52.8294 82.5497 53.36 82.266C53.8906 81.9823 54.4253 81.6132 54.9641 81.1588L55.5606 83.385C55.1249 83.7713 54.6369 84.1009 54.0967 84.3737C53.5581 84.6528 52.8769 84.9027 52.0531 85.1235ZM60.6803 73.2881C60.0703 73.4515 59.6447 73.7745 59.4033 74.2571C59.1602 74.7334 59.1087 75.3336 59.2488 76.0577L63.286 74.9759C63.0831 74.2686 62.7509 73.7712 62.2897 73.4837C61.8268 73.1898 61.2903 73.1246 60.6803 73.2881ZM63.4669 82.0652C61.769 82.5201 60.3165 82.4072 59.1096 81.7263C57.9027 81.0454 57.0692 79.8466 56.6092 78.1298C56.1357 76.3627 56.2103 74.8801 56.8329 73.6821C57.4601 72.4761 58.5534 71.6641 60.113 71.2462C61.6034 70.8469 62.8774 70.9605 63.9349 71.587C64.9925 72.2135 65.7218 73.2751 66.1229 74.7718L66.4969 76.1679L59.6958 77.9902C59.9463 78.7993 60.3595 79.3727 60.9352 79.7105C61.511 80.0482 62.2077 80.1076 63.0252 79.8885C63.6603 79.7183 64.2432 79.4914 64.7738 79.2077C65.3044 78.924 65.8391 78.5549 66.3778 78.1005L66.9743 80.3267C66.5386 80.713 66.0507 81.0426 65.5104 81.3154C64.9719 81.5945 64.2907 81.8444 63.4669 82.0652ZM73.9363 76.8031C74.4394 76.6683 75.0136 76.3965 75.659 75.9877L76.2327 78.129C75.6018 78.6418 74.7643 79.038 73.7204 79.3177C72.5696 79.6261 71.6526 79.5618 70.9693 79.1248C70.2906 78.6798 69.7955 77.8756 69.4837 76.7122L68.1214 71.6279L66.7442 71.9969L66.4181 70.7801L67.7451 69.3933L67.9786 66.9447L69.8181 66.4519L70.4196 68.6969L73.3721 67.9058L73.9509 70.0659L70.9984 70.857L72.3608 75.9413C72.4703 76.3501 72.6644 76.6216 72.943 76.7559C73.2279 76.8885 73.559 76.9042 73.9363 76.8031ZM79.1356 66.3614L82.2862 65.5172L85.8663 70.9172C86.1743 71.3874 86.4541 71.9662 86.7057 72.6537L86.7623 72.6385C86.6579 71.9722 86.6296 71.326 86.6775 70.6998L87.0403 64.2434L90.1249 63.4169L88.8503 76.5072C88.7365 77.7173 88.3724 78.6978 87.758 79.4488C87.15 80.1981 86.3398 80.7084 85.3273 80.9797C84.8305 81.1128 84.3288 81.1899 83.8222 81.2111L83.2106 78.9283C83.5784 78.9174 83.9666 78.8572 84.3754 78.7476C84.8848 78.6112 85.286 78.3351 85.579 77.9196C85.8801 77.5087 86.0532 76.9602 86.0986 76.274L86.1293 75.7097L79.1356 66.3614ZM95.3436 67.6499C95.6233 68.6938 96.0046 69.4375 96.4874 69.881C96.9765 70.3229 97.6078 70.4402 98.3813 70.2329C99.1485 70.0273 99.6279 69.6158 99.8197 68.9982C100.016 68.3727 99.9735 67.5349 99.6921 66.4847C99.4124 65.4408 99.0328 64.7033 98.5534 64.2724C98.074 63.8414 97.4475 63.7295 96.674 63.9368C95.9068 64.1424 95.4233 64.5516 95.2236 65.1646C95.0222 65.7712 95.0622 66.5997 95.3436 67.6499ZM102.635 65.6961C103.095 67.4129 103.002 68.8768 102.356 70.0879C101.71 71.299 100.579 72.121 98.9628 72.5541C97.9503 72.8254 96.9984 72.8445 96.1069 72.6116C95.2138 72.3724 94.4485 71.8933 93.811 71.1744C93.1735 70.4555 92.7065 69.5427 92.41 68.4359C91.9483 66.7128 92.039 65.2529 92.6821 64.0561C93.3253 62.8593 94.4612 62.0426 96.09 61.6062C97.1024 61.3349 98.0544 61.3158 98.9458 61.5487C99.8373 61.7816 100.601 62.2544 101.237 62.967C101.872 63.6796 102.339 64.5893 102.635 65.6961ZM113.901 68.3492L113.153 67.1039L113.002 67.1443C112.825 67.7174 112.49 68.215 111.997 68.637C111.501 69.0528 110.892 69.3576 110.169 69.5514C108.93 69.8833 107.908 69.8034 107.102 69.3116C106.295 68.8135 105.724 67.9419 105.39 66.6968L103.548 59.8202L106.425 59.0493L108.075 65.209C108.279 65.9699 108.568 66.5059 108.941 66.8171C109.312 67.1219 109.794 67.1951 110.385 67.0368C111.19 66.8211 111.7 66.3979 111.915 65.7674C112.129 65.1305 112.069 64.1895 111.735 62.9444L110.406 57.9827L113.283 57.2118L116.108 67.7577L113.901 68.3492ZM41.9361 115.585L40.9953 114.3L40.9199 114.32C40.5991 115.06 40.2129 115.618 39.7613 115.995C39.3142 116.365 38.6788 116.66 37.855 116.88C36.8425 117.152 35.9664 117.076 35.2265 116.654C34.493 116.231 33.9829 115.485 33.6965 114.416C33.3966 113.296 33.5657 112.368 34.204 111.631C34.8468 110.886 35.9499 110.273 37.5131 109.794L39.3279 109.247L39.2041 108.785C38.9176 107.716 38.2273 107.328 37.1331 107.621C36.2904 107.847 35.3682 108.367 34.3665 109.181L32.8931 107.493C33.9366 106.533 35.1972 105.855 36.6751 105.459C38.09 105.079 39.2573 105.097 40.1771 105.511C41.0969 105.925 41.7252 106.761 42.0622 108.019L43.9453 115.046L41.9361 115.585ZM39.7778 110.926L38.6749 111.262C37.8452 111.511 37.2631 111.829 36.9285 112.215C36.5939 112.601 36.5024 113.077 36.654 113.643C36.8714 114.455 37.4454 114.735 38.3761 114.486C39.0427 114.307 39.5227 113.973 39.8161 113.484C40.1158 112.992 40.1806 112.429 40.0104 111.794L39.7778 110.926ZM53.269 101.245L53.6608 102.707L52.1238 103.574C52.552 103.964 52.8445 104.452 53.0012 105.037C53.3045 106.169 53.145 107.159 52.5229 108.006C51.9053 108.846 50.8953 109.453 49.493 109.829L48.9666 109.94L48.5295 110.006C48.2946 110.312 48.2142 110.603 48.2883 110.88C48.3995 111.295 48.9834 111.361 50.0399 111.078L51.8321 110.598C52.9892 110.287 53.9362 110.3 54.673 110.635C55.4161 110.968 55.9166 111.616 56.1744 112.578C56.5046 113.811 56.2451 114.905 55.3957 115.86C54.5527 116.814 53.169 117.549 51.2447 118.065C49.7732 118.459 48.5784 118.503 47.6605 118.196C46.7505 117.894 46.1717 117.28 45.924 116.356C45.7538 115.721 45.8095 115.136 46.0911 114.603C46.3727 114.069 46.8726 113.608 47.591 113.22C47.2617 113.174 46.9491 113.038 46.6532 112.814C46.3556 112.584 46.1638 112.308 46.0779 111.988C45.97 111.585 45.9971 111.221 46.159 110.894C46.3192 110.562 46.5849 110.207 46.956 109.831C46.3386 109.741 45.7956 109.475 45.327 109.035C44.8648 108.592 44.5376 108.013 44.3455 107.296C44.0371 106.145 44.1729 105.155 44.7527 104.325C45.3326 103.496 46.3174 102.895 47.7071 102.523C48.0027 102.444 48.3593 102.378 48.7769 102.327C49.1992 102.268 49.4703 102.236 49.5902 102.231L53.269 101.245ZM48.3536 115.462C48.4597 115.859 48.7318 116.119 49.1698 116.245C49.614 116.368 50.1789 116.338 50.8643 116.155C51.8957 115.878 52.6658 115.52 53.1749 115.08C53.6839 114.641 53.8727 114.176 53.7412 113.685C53.6351 113.289 53.3888 113.062 53.0025 113.004C52.6162 112.945 52.0615 113.013 51.3383 113.207L49.8479 113.606C49.3196 113.748 48.9092 113.989 48.6164 114.33C48.3317 114.676 48.244 115.054 48.3536 115.462ZM47.1006 106.598C47.2539 107.17 47.5041 107.588 47.8513 107.853C48.2047 108.115 48.6487 108.175 49.1832 108.032C49.724 107.887 50.0756 107.614 50.2378 107.213C50.4 106.812 50.4045 106.326 50.2511 105.754C49.9108 104.483 49.2186 103.988 48.1747 104.268C47.1182 104.551 46.7602 105.328 47.1006 106.598ZM64.5372 109.529L63.5965 108.244L63.521 108.264C63.2002 109.004 62.814 109.562 62.3624 109.939C61.9154 110.309 61.28 110.604 60.4562 110.824C59.4437 111.096 58.5675 111.02 57.8277 110.599C57.0941 110.175 56.5841 109.429 56.2976 108.36C55.9977 107.24 56.1669 106.312 56.8051 105.575C57.448 104.83 58.551 104.217 60.1143 103.738L61.9291 103.191L61.8052 102.729C61.5188 101.66 60.8285 101.272 59.7342 101.565C58.8916 101.791 57.9694 102.311 56.9676 103.125L55.4942 101.437C56.5377 100.477 57.7984 99.7986 59.2762 99.4027C60.6911 99.0235 61.8585 99.041 62.7783 99.4551C63.698 99.8692 64.3264 100.705 64.6634 101.963L66.5464 108.99L64.5372 109.529ZM62.379 104.87L61.276 105.206C60.4464 105.455 59.8642 105.773 59.5296 106.159C59.195 106.545 59.1035 107.021 59.2552 107.587C59.4726 108.399 60.0466 108.68 60.9773 108.43C61.6439 108.252 62.1239 107.917 62.4173 107.428C62.717 106.936 62.7817 106.373 62.6115 105.738L62.379 104.87ZM65.8389 94.9549C65.5878 94.0179 65.9843 93.4096 67.0282 93.1298C68.0721 92.8501 68.7195 93.1788 68.9706 94.1158C69.0902 94.5623 69.0517 94.9467 68.855 95.269C68.6629 95.5833 68.3058 95.8104 67.7839 95.9503C66.74 96.23 66.0917 95.8982 65.8389 94.9549ZM72.3948 107.423L69.5178 108.194L66.692 97.6481L69.569 96.8772L72.3948 107.423ZM85.1575 104.003L82.2804 104.774L80.63 98.6147C80.4261 97.8538 80.1384 97.3209 79.7669 97.016C79.3937 96.7049 78.9115 96.6285 78.3204 96.7869C77.5154 97.0026 77.0062 97.4288 76.7927 98.0657C76.5774 98.6963 76.6366 99.6341 76.9703 100.879L78.2998 105.841L75.4227 106.612L72.597 96.0659L74.7948 95.477L75.543 96.7223L75.7034 96.6793C75.8876 96.084 76.225 95.5824 76.7156 95.1746C77.2108 94.7589 77.8169 94.4549 78.5338 94.2628C79.76 93.9343 80.78 94.0182 81.5938 94.5146C82.4059 95.0047 82.9796 95.8755 83.3149 97.1269L85.1575 104.003ZM89.3083 97.9878L87.0067 98.6045L84.0562 89.5175L87.32 88.643L89.3083 97.9878ZM87.3523 101.97C87.2108 101.441 87.2453 101.004 87.4558 100.658C87.6663 100.312 88.042 100.066 88.5828 99.9212C89.1048 99.7813 89.5443 99.8118 89.9015 100.013C90.2649 100.212 90.5157 100.569 90.6538 101.085C90.787 101.582 90.7476 102.014 90.5359 102.38C90.3224 102.741 89.9579 102.99 89.4422 103.128C88.914 103.27 88.4681 103.241 88.1047 103.042C87.7396 102.836 87.4888 102.479 87.3523 101.97Z" fill="white"/>
</g>
<defs>
<clipPath id="clip0_11_392">
<rect width="118" height="118" fill="white" transform="translate(0 30.5405) rotate(-15)"/>
</clipPath>
</defs>
</svg>
