<svg width="277" height="176" viewBox="0 0 277 176" fill="none" xmlns="http://www.w3.org/2000/svg">
<g clip-path="url(#clip0_13_13513)">
<path d="M262.384 112.567C252.594 137.986 234.189 160.254 208.624 170.041C205.299 171.312 201.904 172.39 198.456 173.27C180.217 177.934 160.263 176.311 143.45 167.812C136.314 164.203 129.807 159.434 122.645 155.876C115.483 152.319 107.305 149.993 99.5101 151.749C92.7986 153.261 87.136 157.593 81.4346 161.453C67.9943 170.553 51.8336 177.754 35.9184 174.629C28.5952 173.192 21.3839 169.214 17.9829 162.563C10.4658 147.861 24.6428 130.38 21.7716 114.12C19.9343 103.714 11.5427 95.9208 6.326 86.7368C-2.59975 71.0276 -1.54219 50.1605 8.9236 35.4384C19.3894 20.7163 38.7142 12.9124 56.4322 16.2517C78.0379 20.3232 94.3731 38.6632 115.382 45.143C128.521 49.1972 142.786 47.9876 155.335 42.6482C175.61 34.0193 203.464 20.7854 226.28 22.941C238.413 24.0879 250.313 29.4878 258.321 38.7085C268.445 50.3484 271.48 66.8741 269.791 82.2225C268.632 92.6147 266.143 102.814 262.384 112.567Z" fill="url(#paint0_linear_13_13513)"/>
<path d="M268.897 132.672C268.447 132.672 267.999 132.617 267.562 132.51C266.179 132.169 264.979 131.312 264.205 130.114C263.432 128.916 263.143 127.466 263.399 126.062C263.655 124.658 264.436 123.405 265.582 122.558C266.728 121.711 268.153 121.335 269.566 121.507C270.98 121.678 272.274 122.384 273.186 123.48C274.098 124.577 274.558 125.981 274.473 127.405C274.387 128.83 273.763 130.169 272.726 131.148C271.69 132.126 270.321 132.672 268.897 132.672ZM268.882 123.993C268.14 123.996 267.425 124.27 266.872 124.765C266.318 125.26 265.965 125.94 265.877 126.679C265.79 127.417 265.976 128.162 266.399 128.773C266.822 129.384 267.453 129.818 268.173 129.994C268.56 130.088 268.962 130.105 269.356 130.043C269.749 129.982 270.127 129.843 270.467 129.635C270.807 129.427 271.103 129.154 271.338 128.832C271.573 128.509 271.742 128.143 271.836 127.755C271.93 127.367 271.947 126.964 271.885 126.569C271.824 126.175 271.686 125.796 271.478 125.455C271.271 125.114 270.999 124.817 270.677 124.581C270.355 124.346 269.991 124.176 269.603 124.082C269.367 124.023 269.125 123.993 268.882 123.991V123.993Z" fill="#E7F6FF"/>
<path d="M263.798 138.613C264.116 137.3 263.311 135.977 262.001 135.659C260.692 135.34 259.372 136.147 259.055 137.46C258.737 138.774 259.541 140.097 260.851 140.415C262.161 140.734 263.48 139.927 263.798 138.613Z" fill="#E7F6FF"/>
<path d="M11.8874 132.138C10.408 132.106 9.00102 131.49 7.97196 130.423C6.94291 129.357 6.37479 127.927 6.39096 126.443C6.40712 124.959 7.00626 123.541 8.05831 122.498C9.11035 121.454 10.5304 120.869 12.0101 120.869C13.4899 120.869 14.9099 121.454 15.962 122.498C17.014 123.541 17.6132 124.959 17.6293 126.443C17.6455 127.927 17.0774 129.357 16.0483 130.423C15.0193 131.49 13.6123 132.106 12.1329 132.138H11.8874ZM11.8874 123.462H11.7603C10.9613 123.479 10.2013 123.812 9.64547 124.388C9.0896 124.964 8.78267 125.736 8.79132 126.537C8.79997 127.339 9.1235 128.104 9.69167 128.668C10.2598 129.232 11.0268 129.548 11.826 129.548C12.6252 129.548 13.3921 129.232 13.9603 128.668C14.5285 128.104 14.852 127.339 14.8607 126.537C14.8693 125.736 14.5624 124.964 14.0065 124.388C13.4506 123.812 12.6907 123.479 11.8917 123.462H11.8874Z" fill="#E7F6FF"/>
<path d="M7.88092 141.596C9.22745 141.538 10.2719 140.396 10.2139 139.046C10.1558 137.695 9.01711 136.648 7.67058 136.706C6.32406 136.764 5.27957 137.906 5.33765 139.256C5.39574 140.607 6.5344 141.654 7.88092 141.596Z" fill="#E7F6FF"/>
<path d="M152.729 41.0392C151.387 41.0435 150.089 40.5661 149.068 39.6935C148.047 38.8208 147.371 37.6105 147.163 36.2816C146.955 34.9527 147.229 33.593 147.934 32.4486C148.639 31.3042 149.729 30.4508 151.007 30.0427C152.285 29.6346 153.667 29.6989 154.902 30.2239C156.137 30.7489 157.144 31.6999 157.74 32.9048C158.337 34.1097 158.483 35.4889 158.153 36.7928C157.824 38.0967 157.039 39.2391 155.942 40.0132C155.001 40.6774 153.879 41.0355 152.729 41.0392ZM152.711 32.3563C151.927 32.3555 151.173 32.6582 150.606 33.2013C150.039 33.7443 149.703 34.4858 149.668 35.2713C149.633 36.0567 149.901 36.8255 150.417 37.4173C150.934 38.0092 151.657 38.3785 152.438 38.4482C153.219 38.518 153.997 38.2828 154.609 37.7917C155.222 37.3007 155.621 36.5916 155.725 35.8123C155.829 35.033 155.629 34.2435 155.166 33.6086C154.704 32.9736 154.015 32.542 153.243 32.4038C153.068 32.3724 152.89 32.3565 152.711 32.3563Z" fill="#E7F6FF"/>
<path d="M141.272 40.7233C142.376 39.9473 142.643 38.4212 141.869 37.3146C141.095 36.208 139.574 35.94 138.47 36.716C137.367 37.492 137.099 39.0182 137.873 40.1247C138.647 41.2313 140.169 41.4993 141.272 40.7233Z" fill="#E7F6FF"/>
<path d="M276.991 70.0602C276.991 67.6852 276.051 65.4074 274.376 63.728C272.701 62.0486 270.43 61.1051 268.061 61.1051C267.863 61.1051 267.667 61.1051 267.473 61.1245C267.486 60.9301 267.493 60.7336 267.493 60.5349C267.492 59.2621 267.222 58.004 266.698 56.8445C266.175 55.6849 265.411 54.6505 264.458 53.8103C263.505 52.9701 262.384 52.3433 261.17 51.9717C259.956 51.6001 258.677 51.4923 257.418 51.6554C256.159 51.8185 254.95 52.2488 253.87 52.9177C252.79 53.5865 251.865 54.4785 251.156 55.5342C250.447 56.5898 249.97 57.7849 249.758 59.0398C249.546 60.2946 249.603 61.5804 249.925 62.8115C248.846 62.0263 247.605 61.4936 246.293 61.2525C244.981 61.0114 243.632 61.068 242.345 61.4181C241.057 61.7683 239.865 62.4032 238.854 63.276C237.844 64.1489 237.041 65.2377 236.505 66.4624C235.969 67.6871 235.714 69.0166 235.758 70.3533C235.801 71.6901 236.143 73 236.757 74.187C237.372 75.374 238.244 76.4079 239.309 77.2127C240.374 78.0176 241.605 78.573 242.912 78.8382C243.446 80.2568 244.33 81.5163 245.481 82.4988C246.633 83.4813 248.014 84.1546 249.496 84.4555C250.978 84.7564 252.511 84.6751 253.953 84.2192C255.395 83.7634 256.698 82.9478 257.74 81.8491C258.806 82.6559 260.039 83.2128 261.348 83.4785C262.657 83.7443 264.008 83.7123 265.303 83.3849C266.598 83.0574 267.803 82.4429 268.83 81.5865C269.857 80.7301 270.679 79.6536 271.236 78.4364C272.929 77.7902 274.387 76.643 275.414 75.147C276.442 73.651 276.992 71.8769 276.991 70.0602Z" fill="white"/>
<path d="M41.2364 48.5255C41.2364 46.1509 40.2958 43.8734 38.6216 42.1941C36.9474 40.5147 34.6765 39.571 32.3085 39.5704C32.1103 39.5704 31.9143 39.5704 31.7205 39.5899C31.7334 39.3955 31.7399 39.1989 31.7399 39.0002C31.7396 37.7274 31.4688 36.4694 30.9455 35.3098C30.4222 34.1502 29.6585 33.1159 28.7051 32.2756C27.7518 31.4354 26.6308 30.8086 25.4169 30.437C24.203 30.0654 22.924 29.9576 21.6653 30.1207C20.4065 30.2839 19.1969 30.7142 18.1171 31.383C17.0372 32.0518 16.112 32.9438 15.403 33.9995C14.694 35.0552 14.2175 36.2502 14.0054 37.5051C13.7932 38.76 13.8502 40.0458 14.1727 41.2768C13.0934 40.4919 11.8525 39.9593 10.5412 39.7181C9.22986 39.4769 7.8813 39.5331 6.59449 39.8828C5.30767 40.2325 4.11526 40.8666 3.10476 41.7387C2.09425 42.6109 1.2913 43.6988 0.754823 44.9227C0.218348 46.1467 -0.0380351 47.4755 0.00448871 48.8118C0.0470125 50.1481 0.387364 51.4579 1.00057 52.645C1.61377 53.8322 2.48426 54.8666 3.54816 55.6723C4.61206 56.478 5.84236 57.0347 7.14879 57.3013C7.68293 58.7185 8.56689 59.9767 9.71793 60.958C10.869 61.9393 12.2495 62.6117 13.7303 62.9123C15.211 63.2129 16.7436 63.1319 18.1847 62.6768C19.6257 62.2217 20.928 61.4074 21.9698 60.3101C23.0357 61.117 24.2685 61.6738 25.5775 61.9396C26.8865 62.2054 28.2382 62.1733 29.5332 61.8459C30.8281 61.5184 32.0334 60.9039 33.0602 60.0475C34.087 59.1911 34.9091 58.1146 35.4661 56.8974C37.1614 56.2539 38.6214 55.1084 39.6521 53.6131C40.6827 52.1177 41.2353 50.3433 41.2364 48.5255Z" fill="white"/>
<path d="M205.521 175.955H77.0406V173.147H205.521C205.892 173.147 206.248 173.295 206.511 173.558C206.773 173.821 206.921 174.179 206.921 174.551C206.921 174.923 206.773 175.28 206.511 175.544C206.248 175.807 205.892 175.955 205.521 175.955Z" fill="#426572"/>
<path d="M71.2941 175.955H63.4388C63.0675 175.955 62.7114 175.807 62.4488 175.544C62.1863 175.28 62.0387 174.923 62.0387 174.551C62.0387 174.179 62.1863 173.821 62.4488 173.558C62.7114 173.295 63.0675 173.147 63.4388 173.147H71.2941C71.6654 173.147 72.0215 173.295 72.284 173.558C72.5466 173.821 72.6941 174.179 72.6941 174.551C72.6941 174.923 72.5466 175.28 72.284 175.544C72.0215 175.807 71.6654 175.955 71.2941 175.955Z" fill="#426572"/>
<path d="M58.3405 175.955H55.8377C55.4664 175.955 55.1103 175.807 54.8477 175.544C54.5851 175.28 54.4376 174.923 54.4376 174.551C54.4376 174.179 54.5851 173.821 54.8477 173.558C55.1103 173.295 55.4664 173.147 55.8377 173.147H58.3405C58.7118 173.147 59.0679 173.295 59.3305 173.558C59.593 173.821 59.7405 174.179 59.7405 174.551C59.7405 174.923 59.593 175.28 59.3305 175.544C59.0679 175.807 58.7118 175.955 58.3405 175.955Z" fill="#426572"/>
<path d="M250.572 175.955H211.082V173.147H250.572C250.943 173.147 251.299 173.295 251.562 173.558C251.824 173.821 251.972 174.179 251.972 174.551C251.972 174.923 251.824 175.28 251.562 175.544C251.299 175.807 250.943 175.955 250.572 175.955Z" fill="#426572"/>
<path d="M48.6781 175.955H9.18638V173.147H48.6781C49.0494 173.147 49.4055 173.295 49.6681 173.558C49.9306 173.821 50.0781 174.179 50.0781 174.551C50.0781 174.923 49.9306 175.28 49.6681 175.544C49.4055 175.807 49.0494 175.955 48.6781 175.955Z" fill="#426572"/>
<path d="M213.637 26.6821V174.92H55.6783V26.6821C55.6857 23.9528 56.77 21.3374 58.6943 19.4073C60.6186 17.4772 63.2264 16.3893 65.9481 16.3813H203.367C206.088 16.3893 208.696 17.4772 210.621 19.4073C212.545 21.3374 213.629 23.9528 213.637 26.6821Z" fill="white"/>
<path d="M203.35 40.8252H64.2422V174.92H203.35V40.8252Z" fill="white"/>
<path opacity="0.4" d="M212.775 23.7444V25.8331C211.506 22.9776 207.567 20.8825 202.936 20.8825H65.5173C59.8676 20.8825 55.2475 24.0015 55.2475 27.8159V123.514H54.8167V23.7444C54.8167 19.9321 59.4368 16.811 65.0865 16.811H202.505C208.155 16.8132 212.775 19.9321 212.775 23.7444Z" fill="#C1CEDE"/>
<path d="M214.067 176H53.5244V26.4658C53.5278 23.3916 54.747 20.4443 56.9145 18.2703C59.082 16.0963 62.0209 14.8731 65.0865 14.8691H202.505C205.571 14.8731 208.51 16.0963 210.677 18.2703C212.845 20.4443 214.064 23.3916 214.067 26.4658V78.1552H211.483V26.4658C211.48 24.0787 210.534 21.7899 208.851 20.1018C207.168 18.4136 204.886 17.4639 202.505 17.4611H65.0865C62.706 17.4639 60.4239 18.4136 58.7409 20.1018C57.0578 21.7899 56.1113 24.0787 56.1091 26.4658V173.408H211.483V108.394H214.067V176Z" fill="#426572"/>
<path d="M66.3078 52.8606H202.781V43.75L202.563 40.333H80.5386H64.8022L64.5847 43.75V52.8606H66.3078Z" fill="#E2F2FF"/>
<path d="M195.025 45.3545H70.8547C70.0814 45.3545 69.4546 45.9831 69.4546 46.7584V47.4064C69.4546 48.1818 70.0814 48.8104 70.8547 48.8104H195.025C195.798 48.8104 196.425 48.1818 196.425 47.4064V46.7584C196.425 45.9831 195.798 45.3545 195.025 45.3545Z" fill="#CADCE8"/>
<path d="M204.642 175.784H62.9499V39.0952H204.642V175.784ZM65.5345 173.193H202.057V41.6871H65.5345V173.193Z" fill="#426572"/>
<path d="M184.296 132.91H152.763V165.093H184.296V132.91Z" fill="#DDE4ED"/>
<path d="M105 65H87V77H105V65Z" fill="#DDE4ED"/>
<path d="M130 65H112V77H130V65Z" fill="#DDE4ED"/>
<path d="M154 65H136V77H154V65Z" fill="#DDE4ED"/>
<path d="M195 57H88V63H195V57Z" fill="#DDE4ED"/>
<path d="M150.107 132.91H87.0412V165.093H150.107V132.91Z" fill="#DDE4ED"/>
<path d="M184.26 66.7075H156.55V78.8031H184.26V66.7075Z" fill="#E8837E"/>
<path d="M184.26 80.998H156.55V93.0937H184.26V80.998Z" fill="#87D6FE"/>
<path d="M184.26 109.583H156.55V121.678H184.26V109.583Z" fill="#FBC907"/>
<path d="M184.26 95.29H156.55V107.386H184.26V95.29Z" fill="#A8EF9E"/>
<path opacity="0.2" d="M79.0653 40.0369C80.5818 37.2026 81.5157 34.0919 81.8117 30.8891C82.1078 27.6864 81.7599 24.4566 80.7888 21.391C79.8177 18.3255 78.243 15.4865 76.1581 13.0422C74.0731 10.5979 71.5202 8.59803 68.6506 7.16095C65.781 5.72387 62.6531 4.87882 59.4519 4.67585C56.2508 4.47287 53.0416 4.9161 50.0143 5.97928C46.9871 7.04246 44.2034 8.70398 41.828 10.8654C39.4526 13.0269 37.5339 15.6444 36.1855 18.5629C34.3153 22.0846 33.3484 26.0177 33.3719 30.0076C33.3954 33.9975 34.4086 37.9189 36.3202 41.4182C38.2317 44.9176 40.9816 47.8849 44.3219 50.0529C47.6622 52.2208 51.4879 53.5211 55.4543 53.8367C54.7622 54.0009 54.0593 54.1341 53.3456 54.2363C57.1003 54.7792 60.9299 54.4209 64.5196 53.1908C68.1094 51.9607 71.3568 49.8939 73.995 47.1604C76.1045 45.1161 77.823 42.7018 79.0653 40.0369Z" fill="#606060"/>
<path opacity="0.2" d="M219.168 8.4066C216.071 7.59694 212.844 7.41723 209.677 7.87805C206.51 8.33886 203.466 9.43089 200.727 11.0897C197.987 12.7486 195.606 14.9407 193.725 17.5368C191.844 20.1329 190.499 23.0805 189.772 26.2058C189.044 29.331 188.948 32.5707 189.489 35.7339C190.03 38.897 191.197 41.9196 192.921 44.6233C194.645 47.3271 196.891 49.6573 199.528 51.4767C202.164 53.2961 205.137 54.5677 208.271 55.2167C212.121 56.2255 216.161 56.2579 220.026 55.3108C223.891 54.3636 227.461 52.4668 230.413 49.7913C233.365 47.1158 235.606 43.7457 236.936 39.9848C238.265 36.2239 238.64 32.1903 238.027 28.2477C238.346 28.8842 238.638 29.5387 238.904 30.2111C238.561 26.4226 237.326 22.7699 235.301 19.5531C233.276 16.3363 230.519 13.6473 227.256 11.707C224.783 10.1208 222.042 9.0022 219.168 8.4066Z" fill="#606060"/>
<path opacity="0.2" d="M80.517 136.255C81.9166 133.628 82.7768 130.746 83.0468 127.779C83.3168 124.813 82.9911 121.822 82.0891 118.984C81.187 116.146 79.7268 113.518 77.7948 111.255C75.8628 108.992 73.4981 107.141 70.8406 105.81C68.183 104.48 65.2864 103.697 62.3219 103.507C59.3574 103.318 56.3852 103.727 53.5808 104.709C50.7765 105.691 48.1969 107.227 45.9946 109.226C43.7922 111.225 42.0117 113.646 40.7582 116.347C39.0239 119.612 38.1271 123.259 38.1487 126.958C38.1702 130.657 39.1095 134.293 40.8818 137.538C42.6541 140.782 45.2038 143.533 48.3009 145.543C51.3979 147.553 54.9451 148.758 58.6227 149.051C57.9808 149.202 57.3296 149.326 56.6691 149.422C60.1509 149.926 63.7022 149.594 67.031 148.453C70.3599 147.312 73.3711 145.395 75.8172 142.86C77.7728 140.965 79.3656 138.726 80.517 136.255Z" fill="#606060"/>
<path d="M54.6767 48.2315C67.9166 48.2315 78.6496 37.4684 78.6496 24.1914C78.6496 10.9145 67.9166 0.151367 54.6767 0.151367C41.4369 0.151367 30.7038 10.9145 30.7038 24.1914C30.7038 37.4684 41.4369 48.2315 54.6767 48.2315Z" fill="#A8EF9E"/>
<path d="M77.5081 25.9087C77.5074 29.3557 76.7677 32.7622 75.339 35.8973C73.9104 39.0324 71.8261 41.8227 69.2277 44.0792C66.6292 46.3357 63.5773 48.0054 60.2789 48.9753C56.9804 49.9452 53.5126 50.1924 50.1105 49.7004C55.8149 48.8734 61.0313 46.0132 64.8041 41.6436C68.5769 37.274 70.6535 31.6875 70.6535 25.9076C70.6535 20.1277 68.5769 14.5413 64.8041 10.1717C61.0313 5.80207 55.8149 2.94183 50.1105 2.11489C53.5127 1.6228 56.9808 1.87013 60.2794 2.84013C63.578 3.81012 66.63 5.48008 69.2285 7.73677C71.827 9.99347 73.9112 12.7841 75.3397 15.9195C76.7682 19.0548 77.5077 22.4616 77.5081 25.9087Z" fill="#A7E59C"/>
<path d="M54.1059 50.6701C49.1089 50.6701 44.224 49.1841 40.0691 46.4001C35.9142 43.616 32.6759 39.6589 30.7637 35.0292C28.8515 30.3996 28.3513 25.3052 29.3263 20.3905C30.3014 15.4757 32.7079 10.9613 36.2415 7.41804C39.7751 3.87482 44.2771 1.46197 49.1783 0.484619C54.0794 -0.492732 59.1594 0.00931335 63.776 1.92727C68.3926 3.84522 72.3383 7.09294 75.1143 11.2597C77.8902 15.4265 79.3716 20.3252 79.3712 25.3362C79.3632 32.0531 76.6987 38.4925 71.9622 43.2419C67.2257 47.9912 60.804 50.6627 54.1059 50.6701ZM54.1059 2.59214C49.6201 2.59214 45.2351 3.92606 41.5053 6.42521C37.7755 8.92436 34.8685 12.4765 33.1518 16.6324C31.4352 20.7884 30.9861 25.3615 31.8612 29.7734C32.7363 34.1853 34.8964 38.2379 38.0684 41.4187C41.2403 44.5996 45.2816 46.7657 49.6812 47.6433C54.0808 48.5209 58.6411 48.0705 62.7854 46.349C66.9297 44.6276 70.472 41.7124 72.9641 37.9722C75.4563 34.2319 76.7865 29.8346 76.7865 25.3362C76.7802 19.3061 74.3887 13.5247 70.1366 9.26068C65.8845 4.99669 60.1193 2.59843 54.1059 2.59214Z" fill="#426572"/>
<path d="M216.538 3.80176C210.349 3.81264 204.418 6.28704 200.047 10.6812C195.677 15.0754 193.225 21.0298 193.231 27.2359C193.236 33.4421 195.698 39.3921 200.076 43.7786C204.454 48.1651 210.39 50.6291 216.579 50.6291C222.768 50.6291 228.703 48.1651 233.081 43.7786C237.459 39.3921 239.922 33.4421 239.927 27.2359C239.932 21.0298 237.481 15.0754 233.11 10.6812C228.74 6.28704 222.809 3.81264 216.62 3.80176H216.538Z" fill="#87D6FE"/>
<path d="M240.127 27.4877C240.12 33.0226 238.161 38.3766 234.596 42.6018C231.03 46.827 226.089 49.651 220.647 50.5739C215.205 51.4967 209.612 50.4589 204.86 47.6442C200.108 44.8294 196.501 40.4192 194.68 35.1944C194.802 35.1312 194.928 35.0771 195.057 35.0324C197.441 34.1986 199.58 36.5918 201.359 38.3846C205.114 42.1666 210.679 44.1797 215.922 43.2768C221.164 42.374 225.866 38.417 227.297 33.2785C228.589 28.6541 227.381 23.3018 229.959 19.2562C230.709 18.1142 231.715 17.1645 232.898 16.4837C234.08 15.8028 235.406 15.4097 236.767 15.3359C238.981 18.9995 240.143 23.2043 240.127 27.4877Z" fill="#37B5FF"/>
<path d="M217.184 52.2489C210.642 52.2489 204.367 49.6426 199.741 45.0034C195.114 40.3641 192.515 34.072 192.515 27.5112C192.515 20.9503 195.114 14.6582 199.741 10.0189C204.367 5.37972 210.642 2.77344 217.184 2.77344H217.266C223.808 2.78432 230.079 5.40105 234.697 10.048C239.316 14.6949 241.904 20.9913 241.894 27.5522C241.883 34.113 239.273 40.4009 234.639 45.0324C230.005 49.6639 223.727 52.2598 217.184 52.2489ZM217.184 5.36536C211.345 5.37595 205.75 7.71066 201.627 11.8564C197.504 16.0022 195.191 21.6199 195.196 27.4749C195.201 33.33 197.524 38.9435 201.655 43.0818C205.785 47.22 211.385 49.5446 217.224 49.5446C223.063 49.5446 228.663 47.22 232.793 43.0818C236.923 38.9435 239.247 33.33 239.252 27.4749C239.257 21.6199 236.944 16.0022 232.821 11.8564C228.698 7.71066 223.102 5.37595 217.264 5.36536H217.184Z" fill="#426572"/>
<path d="M220.189 44.8188C212.59 44.8188 211.061 38.9589 210.692 37.4923V25.7725H206.309V19.9126C208.329 18.9115 210.099 17.4692 211.489 15.6919C212.88 13.9146 213.856 11.8473 214.345 9.64209H218.728V19.9126H225.298V25.7725H218.728V36.0429C218.944 37.6521 219.82 38.8293 221.651 38.974C223.549 38.8293 224.574 37.948 224.649 37.6046L224.574 37.529C224.592 37.5272 224.61 37.5325 224.624 37.5438C224.638 37.5551 224.647 37.5715 224.649 37.5895C224.65 37.5945 224.65 37.5996 224.649 37.6046L226.767 41.9244C226.767 41.9244 224.867 44.8188 220.189 44.8188Z" fill="white"/>
<path d="M52.6262 101.863C46.4374 101.874 40.5061 104.348 36.1357 108.742C31.7653 113.136 29.3135 119.091 29.3189 125.297C29.3243 131.503 31.7866 137.453 36.1646 141.84C40.5427 146.226 46.4783 148.69 52.6671 148.69C58.8559 148.69 64.7915 146.226 69.1696 141.84C73.5477 137.453 76.01 131.503 76.0154 125.297C76.0208 119.091 73.5689 113.136 69.1985 108.742C64.8281 104.348 58.8968 101.874 52.7081 101.863H52.6262Z" fill="#E8837E"/>
<path d="M76.2157 125.549C76.2087 131.084 74.2492 136.438 70.6838 140.663C67.1185 144.888 62.1774 147.712 56.7353 148.635C51.2931 149.558 45.7008 148.52 40.9483 145.705C36.1959 142.89 32.5898 138.48 30.7684 133.255C30.89 133.192 31.016 133.138 31.1454 133.093C33.5297 132.26 35.6686 134.653 37.4477 136.446C41.2019 140.228 46.7676 142.241 52.0102 141.338C57.2528 140.435 61.9547 136.478 63.3849 131.34C64.6773 126.715 63.4689 121.363 66.0472 117.317C66.7971 116.175 67.8037 115.226 68.9862 114.545C70.1687 113.864 71.494 113.471 72.8556 113.397C75.0689 117.061 76.2315 121.265 76.2157 125.549Z" fill="#D66765"/>
<path d="M53.2724 150.31C46.7299 150.31 40.4553 147.704 35.829 143.064C31.2028 138.425 28.6038 132.133 28.6038 125.572C28.6038 119.011 31.2028 112.719 35.829 108.08C40.4553 103.441 46.7299 100.834 53.2724 100.834H53.3542C59.8968 100.845 66.167 103.462 70.7856 108.109C75.4042 112.756 77.9928 119.052 77.9819 125.613C77.9711 132.174 75.3616 138.462 70.7277 143.093C66.0938 147.725 59.8149 150.321 53.2724 150.31ZM53.2724 103.426C47.4337 103.437 41.838 105.772 37.715 109.917C33.592 114.063 31.279 119.681 31.2843 125.536C31.2896 131.391 33.6127 137.004 37.7432 141.143C41.8736 145.281 47.4735 147.606 53.3122 147.606C59.1509 147.606 64.7508 145.281 68.8813 141.143C73.0117 137.004 75.3349 131.391 75.3401 125.536C75.3454 119.681 73.0324 114.063 68.9094 109.917C64.7865 105.772 59.1908 103.437 53.3521 103.426H53.2724Z" fill="#426572"/>
<path d="M49.8951 139.013V123.332L45.5873 127.611L41.2407 123.075L50.9656 113.522H57.5716V139.013H49.8951Z" fill="white"/>
<path d="M150.975 126.97H88.2194L101.143 109.073L109.758 117.436L122.068 96.2666L150.975 126.97Z" fill="#DDE4ED"/>
<path d="M112.121 93.8905C113.309 93.8905 114.47 93.5373 115.457 92.8756C116.445 92.2139 117.215 91.2734 117.669 90.1731C118.124 89.0727 118.243 87.8619 118.011 86.6938C117.779 85.5256 117.207 84.4526 116.367 83.6105C115.528 82.7683 114.458 82.1947 113.293 81.9624C112.128 81.73 110.92 81.8493 109.823 82.3051C108.726 82.7609 107.788 83.5327 107.128 84.523C106.468 85.5133 106.116 86.6776 106.116 87.8686C106.123 89.4636 106.758 90.9913 107.882 92.1192C109.007 93.247 110.531 93.8836 112.121 93.8905Z" fill="#DDE4ED"/>
<path d="M213.981 98.7095H211.397V103.569H213.981V98.7095Z" fill="#426572"/>
<path d="M213.981 82.4751H211.397V95.5773H213.981V82.4751Z" fill="#426572"/>
<path d="M63.0791 35.9156C56.0444 36.9156 47.3728 34.328 47.3728 34.328L43.0974 35.1812C42.9099 35.2174 42.7168 35.2107 42.5323 35.1617C42.3478 35.1126 42.1767 35.0225 42.0318 34.8979C41.8869 34.7733 41.7718 34.6176 41.6953 34.4423C41.6187 34.2669 41.5826 34.0765 41.5896 33.8853C41.6761 30.819 41.5978 27.7503 41.3548 24.6926C41.3333 24.4716 41.3699 24.2489 41.4611 24.0466C41.5524 23.8443 41.6949 23.6696 41.8746 23.5399C42.0543 23.4102 42.2648 23.3301 42.4851 23.3076C42.7053 23.2851 42.9276 23.321 43.1297 23.4117C44.093 23.8885 45.1487 24.148 46.2227 24.172C48.8181 24.1504 51.084 22.1547 52.2428 19.7852C53.4016 17.4158 53.6644 15.88 53.9078 13.2449C54.0133 12.0937 54.1813 10.8172 55.0536 10.0785C56.5614 8.79763 59.0427 10.2945 59.5316 12.2276C60.0205 14.1607 59.2322 15.0139 58.5667 16.8995C58.1359 18.1264 58.2306 18.1955 57.8817 19.4591C57.8373 19.5616 57.8154 19.6726 57.8176 19.7845C57.8199 19.8963 57.8461 20.0063 57.8946 20.107C57.9571 20.1773 58.0333 20.2339 58.1185 20.2733C58.2038 20.3127 58.2962 20.334 58.39 20.336C59.7987 20.5174 60.7227 21.0444 62.1335 21.2C62.7817 21.2702 63.3976 21.52 63.9122 21.9213C64.4269 22.3226 64.8201 22.8596 65.0477 23.4722V34.0753C65.05 34.3283 64.9998 34.5789 64.9004 34.8114C64.8009 35.0439 64.6545 35.2532 64.4702 35.426C64.286 35.5988 64.068 35.7313 63.83 35.8152C63.592 35.8991 63.3392 35.9326 63.0877 35.9134L63.0791 35.9156Z" fill="#85D175"/>
</g>
<defs>
<linearGradient id="paint0_linear_13_13513" x1="0.284316" y1="95.6616" x2="270.228" y2="95.6616" gradientUnits="userSpaceOnUse">
<stop stop-color="#C5E9FA"/>
<stop offset="1" stop-color="#C4F4EA"/>
</linearGradient>
<clipPath id="clip0_13_13513">
<rect width="277" height="176" fill="white"/>
</clipPath>
</defs>
</svg>
