<svg width="275" height="160" viewBox="0 0 275 160" fill="none" xmlns="http://www.w3.org/2000/svg">
<g clip-path="url(#clip0_13_16372)">
<path d="M260.489 96.4467C250.77 121.699 232.498 143.823 207.118 153.545C203.817 154.808 200.447 155.879 197.023 156.753C178.916 161.386 159.106 159.775 142.414 151.333C135.33 147.747 128.87 143.009 121.76 139.475C114.65 135.941 106.53 133.628 98.7916 135.372C92.1286 136.874 86.5068 141.179 80.8466 145.013C67.5033 154.054 51.4593 161.208 35.6591 158.103C28.3887 156.676 21.2295 152.723 17.8531 146.116C10.3902 131.51 24.4648 114.143 21.6144 97.9896C19.7904 87.651 11.4594 79.9088 6.28033 70.7847C-2.58312 55.178 -1.53533 34.4471 8.85704 19.8232C19.2494 5.19935 38.4347 -2.55785 56.0247 0.759611C77.4745 4.80666 93.6917 23.0227 114.549 29.4688C127.593 33.4965 141.755 32.2948 154.213 26.9903C174.342 18.4177 201.995 5.27016 224.646 7.4117C236.692 8.55114 248.506 13.9157 256.456 23.0763C266.506 34.6402 269.519 51.058 267.843 66.3063C266.692 76.6284 264.221 86.7587 260.489 96.4467Z" fill="url(#paint0_linear_13_16372)"/>
<path d="M266.956 116.42C266.509 116.42 266.064 116.366 265.63 116.259C264.257 115.921 263.066 115.069 262.298 113.879C261.53 112.688 261.243 111.249 261.497 109.853C261.751 108.458 262.526 107.213 263.664 106.372C264.802 105.531 266.217 105.158 267.62 105.328C269.023 105.498 270.308 106.199 271.214 107.289C272.119 108.378 272.576 109.772 272.491 111.188C272.406 112.604 271.786 113.933 270.757 114.906C269.729 115.878 268.369 116.42 266.956 116.42ZM266.956 107.798C266.22 107.801 265.512 108.074 264.963 108.564C264.414 109.055 264.063 109.73 263.975 110.463C263.888 111.195 264.071 111.935 264.489 112.541C264.907 113.148 265.532 113.581 266.246 113.757C266.659 113.857 267.088 113.868 267.506 113.789C267.924 113.71 268.32 113.543 268.669 113.3C269.018 113.056 269.311 112.741 269.53 112.375C269.749 112.01 269.888 111.602 269.939 111.178C269.989 110.755 269.95 110.325 269.823 109.918C269.696 109.511 269.485 109.136 269.203 108.816C268.921 108.497 268.575 108.241 268.188 108.066C267.801 107.89 267.381 107.799 266.956 107.798Z" fill="#E7F6FF"/>
<path d="M261.893 122.324C262.208 121.019 261.41 119.704 260.109 119.388C258.809 119.072 257.499 119.873 257.184 121.178C256.869 122.483 257.667 123.797 258.968 124.113C260.268 124.43 261.578 123.629 261.893 122.324Z" fill="#E7F6FF"/>
<path d="M11.8015 115.89C10.3328 115.858 8.93604 115.246 7.91441 114.186C6.89278 113.127 6.32877 111.706 6.34482 110.232C6.36086 108.758 6.95568 107.349 8.00013 106.313C9.04457 105.276 10.4544 104.694 11.9234 104.694C13.3925 104.694 14.8023 105.276 15.8467 106.313C16.8912 107.349 17.486 108.758 17.502 110.232C17.5181 111.706 16.9541 113.127 15.9325 114.186C14.9108 115.246 13.514 115.858 12.0453 115.89H11.8015ZM11.8015 107.27H11.6754C10.8821 107.287 10.1277 107.618 9.57583 108.19C9.02397 108.762 8.71926 109.529 8.72785 110.326C8.73644 111.122 9.05763 111.882 9.6217 112.442C10.1858 113.002 10.9472 113.316 11.7406 113.316C12.534 113.316 13.2954 113.002 13.8595 112.442C14.4236 111.882 14.7448 111.122 14.7534 110.326C14.7619 109.529 14.4572 108.762 13.9054 108.19C13.3535 107.618 12.5991 107.287 11.8058 107.27H11.8015Z" fill="#E7F6FF"/>
<path d="M7.82402 125.285C9.16082 125.228 10.1978 124.093 10.1401 122.752C10.0824 121.41 8.952 120.37 7.6152 120.427C6.2784 120.485 5.24145 121.62 5.29911 122.961C5.35678 124.303 6.48722 125.343 7.82402 125.285Z" fill="#E7F6FF"/>
<path d="M151.626 25.3765C150.295 25.3777 149.007 24.9006 147.996 24.0315C146.985 23.1624 146.317 21.9588 146.114 20.6386C145.91 19.3183 146.185 17.9686 146.887 16.8338C147.59 15.6989 148.674 14.854 149.943 14.4518C151.213 14.0496 152.584 14.1168 153.808 14.6412C155.033 15.1656 156.03 16.1126 156.619 17.3107C157.207 18.5089 157.349 19.879 157.019 21.1731C156.688 22.4672 155.907 23.5997 154.816 24.3658C153.881 25.0225 152.767 25.3753 151.626 25.3765ZM151.609 16.7588C150.83 16.758 150.081 17.0589 149.517 17.5988C148.954 18.1386 148.62 18.8758 148.585 19.6567C148.55 20.4376 148.817 21.2019 149.33 21.7903C149.842 22.3788 150.562 22.7459 151.337 22.8153C152.113 22.8846 152.886 22.6508 153.494 22.1626C154.103 21.6743 154.5 20.9694 154.603 20.1946C154.706 19.4198 154.507 18.635 154.048 18.0037C153.588 17.3724 152.904 16.9434 152.137 16.806C151.963 16.7748 151.786 16.759 151.609 16.7588Z" fill="#E7F6FF"/>
<path d="M140.251 25.0706C141.346 24.2997 141.612 22.7835 140.844 21.6842C140.075 20.5848 138.564 20.3185 137.469 21.0895C136.373 21.8604 136.108 23.3766 136.876 24.4759C137.645 25.5753 139.155 25.8415 140.251 25.0706Z" fill="#E7F6FF"/>
<path d="M274.991 54.2169C274.991 51.8574 274.057 49.5945 272.395 47.9261C270.732 46.2576 268.477 45.3203 266.126 45.3203C265.929 45.3203 265.735 45.3203 265.542 45.3396C265.555 45.1465 265.561 44.9512 265.561 44.7538C265.561 43.4893 265.292 42.2394 264.773 41.0875C264.253 39.9355 263.495 38.9079 262.549 38.0731C261.602 37.2383 260.489 36.6156 259.284 36.2465C258.079 35.8773 256.809 35.7702 255.559 35.9323C254.31 36.0943 253.109 36.5218 252.037 37.1863C250.965 37.8508 250.046 38.7369 249.342 39.7857C248.639 40.8345 248.165 42.0218 247.955 43.2684C247.744 44.5151 247.801 45.7925 248.121 47.0155C247.049 46.2357 245.818 45.7066 244.516 45.467C243.214 45.2273 241.875 45.2832 240.598 45.6306C239.32 45.978 238.136 46.608 237.133 47.4744C236.13 48.3409 235.333 49.4217 234.8 50.6377C234.267 51.8536 234.013 53.1738 234.055 54.5014C234.097 55.8289 234.435 57.1301 235.044 58.3095C235.653 59.4889 236.517 60.5166 237.573 61.3171C238.629 62.1175 239.851 62.6705 241.148 62.9355C241.677 64.3448 242.555 65.5962 243.698 66.5723C244.841 67.5483 246.213 68.2172 247.684 68.5161C249.155 68.8151 250.677 68.7343 252.109 68.2814C253.54 67.8285 254.834 67.0183 255.868 65.9268C256.926 66.7283 258.15 67.2815 259.45 67.5456C260.749 67.8096 262.091 67.7778 263.377 67.4525C264.663 67.1272 265.859 66.5167 266.879 65.6659C267.898 64.815 268.714 63.7456 269.267 62.5363C270.95 61.8962 272.398 60.7576 273.421 59.2716C274.443 57.7857 274.991 56.0227 274.991 54.2169Z" fill="white"/>
<path d="M40.9387 32.8315C40.9398 31.6626 40.7114 30.505 40.2665 29.4247C39.8216 28.3445 39.1689 27.3628 38.3458 26.5358C37.5226 25.7088 36.5452 25.0527 35.4692 24.6049C34.3933 24.1571 33.24 23.9265 32.0752 23.9263C31.8785 23.9263 31.6839 23.9263 31.4914 23.9456C31.5043 23.7524 31.5107 23.5572 31.5107 23.3598C31.5104 22.0953 31.2416 20.8454 30.7221 19.6934C30.2026 18.5414 29.4443 17.5138 28.4979 16.6791C27.5514 15.8443 26.4385 15.2216 25.2334 14.8524C24.0282 14.4833 22.7585 14.3762 21.5088 14.5382C20.2592 14.7003 19.0583 15.1278 17.9863 15.7923C16.9142 16.4567 15.9956 17.3429 15.2918 18.3917C14.5879 19.4404 14.1149 20.6277 13.9042 21.8744C13.6936 23.1211 13.7502 24.3985 14.0703 25.6215C12.9988 24.8417 11.767 24.3126 10.4651 24.0729C9.16322 23.8333 7.82439 23.8892 6.54687 24.2366C5.26935 24.584 4.08555 25.214 3.08234 26.0804C2.07913 26.9468 1.28197 28.0277 0.749373 29.2436C0.216771 30.4596 -0.0377609 31.7798 0.0044559 33.1073C0.0466727 34.4349 0.384567 35.7361 0.993342 36.9155C1.60212 38.0949 2.46632 39.1225 3.52254 39.923C4.57876 40.7235 5.80018 41.2765 7.09717 41.5414C7.62722 42.9495 8.50462 44.1997 9.64725 45.1748C10.7899 46.1499 12.1604 46.8182 13.6305 47.1171C15.1006 47.416 16.6222 47.3356 18.053 46.8836C19.4837 46.4317 20.7768 45.6228 21.8111 44.5327C22.8694 45.3343 24.0933 45.8875 25.3928 46.1515C26.6923 46.4156 28.0343 46.3838 29.3199 46.0585C30.6056 45.7332 31.8021 45.1226 32.8215 44.2718C33.8408 43.421 34.6571 42.3516 35.21 41.1423C36.8921 40.5034 38.3408 39.3664 39.3639 37.882C40.3871 36.3977 40.9363 34.6363 40.9387 32.8315Z" fill="white"/>
<path d="M204.037 159.42H76.4844V156.631H204.037C204.405 156.631 204.759 156.778 205.02 157.039C205.28 157.301 205.427 157.656 205.427 158.026C205.427 158.396 205.28 158.75 205.02 159.012C204.759 159.273 204.405 159.42 204.037 159.42Z" fill="#426572"/>
<path d="M70.7793 159.42H62.9807C62.6121 159.42 62.2586 159.273 61.9979 159.012C61.7373 158.75 61.5908 158.396 61.5908 158.026C61.5908 157.656 61.7373 157.301 61.9979 157.039C62.2586 156.778 62.6121 156.631 62.9807 156.631H70.7793C71.1479 156.631 71.5015 156.778 71.7621 157.039C72.0228 157.301 72.1692 157.656 72.1692 158.026C72.1692 158.396 72.0228 158.75 71.7621 159.012C71.5015 159.273 71.1479 159.42 70.7793 159.42Z" fill="#426572"/>
<path d="M57.9193 159.42H55.4345C55.0659 159.42 54.7123 159.273 54.4517 159.012C54.191 158.75 54.0446 158.396 54.0446 158.026C54.0446 157.656 54.191 157.301 54.4517 157.039C54.7123 156.778 55.0659 156.631 55.4345 156.631H57.9193C58.2879 156.631 58.6414 156.778 58.9021 157.039C59.1628 157.301 59.3092 157.656 59.3092 158.026C59.3092 158.396 59.1628 158.75 58.9021 159.012C58.6414 159.273 58.2879 159.42 57.9193 159.42Z" fill="#426572"/>
<path d="M248.762 159.42H209.558V156.631H248.762C249.131 156.631 249.485 156.778 249.745 157.039C250.006 157.301 250.152 157.656 250.152 158.026C250.152 158.396 250.006 158.75 249.745 159.012C249.485 159.273 249.131 159.42 248.762 159.42Z" fill="#426572"/>
<path d="M48.3266 159.42H9.12005V156.631H48.3266C48.6953 156.631 49.0488 156.778 49.3095 157.039C49.5701 157.301 49.7166 157.656 49.7166 158.026C49.7166 158.396 49.5701 158.75 49.3095 159.012C49.0488 159.273 48.6953 159.42 48.3266 159.42Z" fill="#426572"/>
<path d="M60.7504 50.5474H203.554C206.131 50.5474 208.603 51.5745 210.426 53.403C212.249 55.2315 213.273 57.7116 213.274 60.298V153.054H51.0295V60.298C51.0307 57.7116 52.0553 55.2315 53.8782 53.403C55.7011 51.5745 58.173 50.5474 60.7504 50.5474Z" fill="#EBF0F9"/>
<path d="M207.636 57.6606H57.312V143.837H207.636V57.6606Z" fill="#637F91"/>
<path d="M56.1851 143.677H208.275C208.275 144.361 208.005 145.017 207.524 145.502C207.043 145.987 206.391 146.261 205.709 146.265H58.7618C58.0778 146.265 57.4219 145.992 56.9383 145.507C56.4546 145.021 56.1829 144.363 56.1829 143.677H56.1851Z" fill="white"/>
<g opacity="0.5">
<path d="M102.232 57.3389L79.7561 144.322H68.4378L90.914 57.3389H102.232Z" fill="#A7BCD5"/>
<path d="M131.081 57.3389L108.607 144.322H84.871L107.347 57.3389H131.081Z" fill="#A7BCD5"/>
</g>
<path d="M214.557 154.341H49.7465V56.1393C49.7488 54.3154 50.4718 52.5669 51.757 51.2773C53.0421 49.9876 54.7845 49.262 56.6021 49.2598H207.702C209.519 49.262 211.262 49.9876 212.547 51.2773C213.832 52.5669 214.555 54.3154 214.557 56.1393V154.341ZM52.3125 151.766H211.991V56.1393C211.99 54.998 211.538 53.9038 210.734 53.0968C209.93 52.2898 208.839 51.8359 207.702 51.8348H56.6021C55.4647 51.8359 54.3743 52.2898 53.5701 53.0968C52.766 53.9038 52.3137 54.998 52.3125 56.1393V151.766Z" fill="#426572"/>
<path d="M30.5677 149.983H238.088V150.668C238.088 152.887 237.209 155.016 235.645 156.586C234.081 158.155 231.96 159.037 229.748 159.037H38.9072C36.6954 159.037 34.5742 158.155 33.0103 156.586C31.4463 155.016 30.5677 152.887 30.5677 150.668V149.983Z" fill="#EBF0F9"/>
<path opacity="0.5" d="M237.025 154.348C236.569 155.538 235.764 156.562 234.716 157.284C233.668 158.005 232.426 158.391 231.155 158.39H36.2065C34.9362 158.39 33.6958 158.004 32.6487 157.282C31.6016 156.561 30.797 155.537 30.341 154.348H237.025Z" fill="#A7BCD5"/>
<path d="M228.78 160H37.9407C35.3895 159.997 32.9436 158.979 31.1396 157.168C29.3357 155.358 28.321 152.904 28.3181 150.344V148.372H238.404V150.344C238.402 152.904 237.386 155.359 235.582 157.169C233.778 158.98 231.331 159.998 228.78 160ZM30.9077 150.947C31.0582 152.714 31.8641 154.36 33.166 155.56C34.4679 156.759 36.1711 157.425 37.9386 157.425H228.78C230.547 157.425 232.25 156.759 233.552 155.56C234.854 154.36 235.66 152.714 235.811 150.947H30.9077Z" fill="#426572"/>
<path d="M208.596 144.64H55.7039V56.3735H208.596V144.64ZM58.27 142.065H206.03V58.9485H58.27V142.065Z" fill="#426572"/>
<path d="M184.657 29.9967V143.353H82.1852V29.9967C82.1891 29.4857 82.3932 28.9968 82.7532 28.6354C83.1133 28.2741 83.6005 28.0694 84.1097 28.0654H182.724C182.84 28.0655 182.956 28.0763 183.07 28.0976C183.513 28.1799 183.914 28.4144 184.204 28.761C184.493 29.1075 184.654 29.5445 184.657 29.9967Z" fill="white"/>
<path d="M83.7975 37.4339H184.98V30.6145L183.045 28.0566H94.4315H85.7306L82.5081 30.6145V37.4339H83.7975Z" fill="#E2F2FF"/>
<path d="M186.263 144.64H81.2251V29.9966C81.2285 29.144 81.5675 28.3272 82.1683 27.7243C82.7691 27.1214 83.583 26.7812 84.4326 26.7778H183.043C183.892 26.7812 184.706 27.1214 185.307 27.7243C185.908 28.3272 186.247 29.144 186.25 29.9966L186.263 144.64ZM83.7911 142.065H183.697V29.9966C183.693 29.8272 183.624 29.666 183.504 29.5462C183.385 29.4264 183.224 29.3572 183.055 29.3528H84.4412C84.2724 29.3572 84.1118 29.4264 83.9924 29.5462C83.873 29.666 83.804 29.8272 83.7997 29.9966L83.7911 142.065Z" fill="#426572"/>
<path d="M178.676 32.0308H88.5361C87.824 32.0308 87.2467 32.6101 87.2467 33.3247C87.2467 34.0393 87.824 34.6186 88.5361 34.6186H178.676C179.388 34.6186 179.965 34.0393 179.965 33.3247C179.965 32.6101 179.388 32.0308 178.676 32.0308Z" fill="#CADCE8"/>
<path d="M115.922 49.5771H94.8528V73.6685H115.922V49.5771Z" fill="#E8837E"/>
<path d="M167.869 49.5771H117.911V73.6685H167.869V49.5771Z" fill="#E8837E"/>
<path d="M167.869 76.3359H144.281V100.427H167.869V76.3359Z" fill="#DDE4ED"/>
<path d="M142.292 76.3359H95.118V100.427H142.292V76.3359Z" fill="#DDE4ED"/>
<path d="M168.001 103.095H95.118V127.186H168.001V103.095Z" fill="#DDE4ED"/>
<path d="M168.645 130.424H149.956V132.999H168.645V130.424Z" fill="#DDE4ED"/>
<path d="M66.5496 137.213H35.9584C35.4548 137.217 34.9583 137.093 34.5151 136.853C33.8736 136.501 33.463 135.924 33.463 135.274L33.4801 93.0736C33.4805 92.7974 33.5544 92.5263 33.6939 92.2882C34.0831 91.6102 34.962 91.1338 35.9756 91.1338H66.5667C67.6359 91.1338 68.5362 91.6531 68.8954 92.3784C69.0042 92.5931 69.0614 92.8305 69.0622 93.0715L69.0472 135.274C69.0472 136.248 68.1085 137.061 66.896 137.194C66.781 137.207 66.6654 137.214 66.5496 137.213Z" fill="white"/>
<path d="M67.3815 136.889L36.7796 136.883C36.2759 136.887 35.7794 136.763 35.3362 136.522C34.6947 136.17 34.2841 135.593 34.2841 134.943L34.3012 92.7431C34.3017 92.4668 34.3755 92.1957 34.5151 91.9577C34.9042 91.2796 35.7831 90.8032 36.7967 90.8032H37.2137L37.2072 132.355C37.2072 132.999 37.6221 133.583 38.2593 133.935C38.7026 134.175 39.199 134.299 39.7027 134.295H69.879V134.939C69.879 135.913 68.9403 136.726 67.7279 136.859C67.6131 136.876 67.4974 136.886 67.3815 136.889Z" fill="#D6DEE9"/>
<path d="M66.9645 138.177H36.3711C35.6498 138.181 34.9392 138.001 34.3055 137.656C33.2363 137.061 32.5948 136.048 32.5948 134.95L32.6119 92.7496C32.6145 92.2463 32.7495 91.7525 33.0032 91.3183C33.6447 90.2132 34.9278 89.5244 36.3925 89.5244H66.9837C68.4806 89.5244 69.817 90.2647 70.4243 91.4149L70.5954 91.6788V91.799C70.7061 92.1051 70.7626 92.4283 70.7622 92.7539L70.7451 134.954C70.7451 136.572 69.3273 137.958 67.4499 138.153C67.2886 138.17 67.1266 138.178 66.9645 138.177ZM36.3861 92.0887C35.8109 92.0887 35.3618 92.344 35.2186 92.5972C35.1905 92.64 35.175 92.6898 35.1737 92.741L35.1566 134.941C35.1566 135.083 35.3127 135.263 35.5457 135.394C35.7999 135.529 36.0836 135.598 36.3711 135.596H66.9623C67.0295 135.596 67.0966 135.592 67.1633 135.585C67.8048 135.516 68.1769 135.156 68.1769 134.941L68.194 92.741C68.194 92.7154 68.1897 92.69 68.1812 92.6659L68.0614 92.4814C67.7657 92.2137 67.3774 92.0727 66.9794 92.0887H36.3882H36.3861Z" fill="#426572"/>
<path d="M63.4362 109.395H42.69V111.97H63.4362V109.395Z" fill="#426572"/>
<path d="M63.4362 104.021H42.69V106.596H63.4362V104.021Z" fill="#426572"/>
<path d="M63.4362 115.482H42.69V118.057H63.4362V115.482Z" fill="#426572"/>
<path opacity="0.2" d="M229.231 60.9419C230.725 58.1268 231.643 55.0398 231.929 51.863C232.216 48.6863 231.865 45.4842 230.898 42.4456C229.931 39.407 228.368 36.5936 226.3 34.1712C224.232 31.7489 221.701 29.7667 218.858 28.3417C216.014 26.9168 212.914 26.0778 209.742 25.8743C206.57 25.6709 203.39 26.1071 200.388 27.1572C197.387 28.2073 194.625 29.85 192.267 31.9884C189.909 34.1269 188.001 36.7177 186.656 39.608C184.8 43.1068 183.84 47.0142 183.863 50.9781C183.886 54.9419 184.892 58.8377 186.79 62.3142C188.688 65.7907 191.418 68.7387 194.734 70.8925C198.05 73.0463 201.848 74.3381 205.786 74.6517C205.099 74.8147 204.401 74.9471 203.693 75.0486C207.42 75.588 211.222 75.232 214.786 74.0099C218.35 72.7879 221.574 70.7346 224.193 68.0189C226.289 65.9883 227.996 63.5898 229.231 60.9419Z" fill="#606060"/>
<path d="M205.016 69.0744C218.16 69.0744 228.816 58.3816 228.816 45.1913C228.816 32.001 218.16 21.3081 205.016 21.3081C191.872 21.3081 181.216 32.001 181.216 45.1913C181.216 58.3816 191.872 69.0744 205.016 69.0744Z" fill="#A8EF9E"/>
<path d="M227.681 46.8973C227.68 50.3216 226.946 53.7056 225.527 56.8201C224.109 59.9346 222.04 62.7066 219.461 64.9483C216.881 67.19 213.852 68.8489 210.577 69.8126C207.303 70.7763 203.86 71.0222 200.483 70.5337C206.146 69.7122 211.325 66.8706 215.07 62.5295C218.816 58.1884 220.878 52.6384 220.878 46.8962C220.878 41.1541 218.816 35.6041 215.07 31.263C211.325 26.9219 206.146 24.0803 200.483 23.2588C203.861 22.7699 207.304 23.0156 210.578 23.9793C213.853 24.943 216.883 26.602 219.463 28.844C222.043 31.0859 224.112 33.8584 225.53 36.9733C226.948 40.0882 227.682 43.4727 227.683 46.8973H227.681Z" fill="#A7E59C"/>
<path d="M204.449 71.4971C199.489 71.4971 194.639 70.0209 190.514 67.2551C186.389 64.4893 183.174 60.5582 181.276 55.9588C179.378 51.3595 178.881 46.2985 179.849 41.4159C180.816 36.5333 183.205 32.0483 186.713 28.5281C190.221 25.0079 194.69 22.6106 199.556 21.6394C204.422 20.6682 209.465 21.1667 214.048 23.0718C218.632 24.9769 222.549 28.2031 225.305 32.3424C228.061 36.4817 229.532 41.3481 229.532 46.3264C229.525 52.9998 226.88 59.3978 222.178 64.1166C217.475 68.8354 211.1 71.4897 204.449 71.4971ZM204.449 23.7329C199.996 23.7329 195.643 25.0581 191.94 27.541C188.237 30.0238 185.351 33.5528 183.647 37.6816C181.942 41.8104 181.497 46.3536 182.365 50.7368C183.234 55.1199 185.379 59.1461 188.528 62.3061C191.677 65.4662 195.689 67.6182 200.057 68.4901C204.425 69.3619 208.952 68.9145 213.066 67.2042C217.181 65.494 220.697 62.5979 223.172 58.8821C225.646 55.1662 226.966 50.7976 226.966 46.3286C226.96 40.3378 224.586 34.5941 220.364 30.3579C216.143 26.1218 210.419 23.7392 204.449 23.7329Z" fill="#426572"/>
<path d="M216.471 36.5607C215.958 36.2727 215.353 36.1955 214.784 36.3451C214.216 36.4947 213.727 36.8596 213.42 37.3632L209.299 44.1226L202.715 54.9118L202.531 55.2144L194.93 49.1117L193.544 48.0001C192.635 47.2705 191.264 47.0409 190.39 48.0001C189.646 48.8134 189.417 50.3841 190.39 51.1652L200.164 59.0104L201.55 60.1219C202.125 60.5854 202.673 60.8386 203.423 60.7378C203.759 60.6964 204.08 60.5781 204.363 60.392C204.645 60.206 204.881 59.9572 205.053 59.6649L209.173 52.9055L215.759 42.1184L217.28 39.6249C217.88 38.625 217.521 37.1229 216.471 36.5607Z" fill="white"/>
</g>
<defs>
<linearGradient id="paint0_linear_13_16372" x1="0.282267" y1="79.6513" x2="268.277" y2="79.6513" gradientUnits="userSpaceOnUse">
<stop stop-color="#C5E9FA"/>
<stop offset="1" stop-color="#C4F4EA"/>
</linearGradient>
<clipPath id="clip0_13_16372">
<rect width="275" height="160" fill="white"/>
</clipPath>
</defs>
</svg>
