<svg width="173" height="236" viewBox="0 0 173 236" fill="none" xmlns="http://www.w3.org/2000/svg">
<g clip-path="url(#clip0_13_7460)">
<path d="M159.155 9.56934H16.0257C9.83889 9.56934 4.82353 14.5847 4.82353 20.7715V199.04C4.82353 205.227 9.83889 210.243 16.0257 210.243H159.155C165.342 210.243 170.358 205.227 170.358 199.04V20.7715C170.358 14.5847 165.342 9.56934 159.155 9.56934Z" fill="#5DCBFD"/>
<path d="M170.624 188.331V200.261C170.623 203.232 169.442 206.08 167.341 208.179C165.24 210.279 162.392 211.459 159.422 211.459H16.287C13.3173 211.459 10.4693 210.279 8.36944 208.179C6.26958 206.079 5.08989 203.231 5.08989 200.261V188.331C5.08923 189.801 5.37836 191.258 5.94078 192.617C6.50319 193.976 7.32785 195.211 8.36767 196.251C9.40748 197.292 10.6421 198.117 12.0009 198.68C13.3597 199.243 14.8161 199.533 16.287 199.533H159.422C162.393 199.533 165.242 198.352 167.343 196.252C169.444 194.151 170.624 191.302 170.624 188.331Z" fill="#4FAEFD"/>
<path d="M159.246 213.997H15.4879C11.9512 213.991 8.56097 212.584 6.06061 210.082C3.56026 207.581 2.15389 204.19 2.1499 200.653V22.0076C2.15389 18.4709 3.56026 15.0801 6.06061 12.5788C8.56097 10.0775 11.9512 8.66987 15.4879 8.66455H159.221C162.763 8.66189 166.161 10.066 168.668 12.5682C171.174 15.0703 172.585 18.4657 172.589 22.0076V200.653C172.585 204.191 171.178 207.583 168.676 210.084C166.175 212.585 162.784 213.993 159.246 213.997ZM15.4879 13.1876C13.1504 13.1916 10.9098 14.1223 9.25743 15.7756C7.60503 17.429 6.67562 19.6701 6.67296 22.0076V200.653C6.67562 202.991 7.60503 205.232 9.25743 206.885C10.9098 208.539 13.1504 209.469 15.4879 209.473H159.221C161.559 209.471 163.801 208.541 165.455 206.887C167.108 205.234 168.038 202.992 168.041 200.653V22.0076C168.038 19.6692 167.108 17.4274 165.455 15.7739C163.801 14.1204 161.559 13.1903 159.221 13.1876H15.4879Z" fill="#25252D"/>
<path d="M87.8971 108.881C87.5639 108.881 87.2443 108.748 87.0087 108.513C86.7731 108.277 86.6407 107.957 86.6407 107.624V78.3599C86.6407 78.0267 86.7731 77.7071 87.0087 77.4715C87.2443 77.2359 87.5639 77.1035 87.8971 77.1035C88.2303 77.1035 88.5499 77.2359 88.7855 77.4715C89.0212 77.7071 89.1535 78.0267 89.1535 78.3599V107.644C89.1483 107.974 89.0136 108.288 88.7785 108.52C88.5434 108.751 88.2269 108.881 87.8971 108.881Z" fill="white"/>
<path d="M87.8971 123.083C87.5639 123.083 87.2443 122.951 87.0087 122.715C86.7731 122.48 86.6407 122.16 86.6407 121.827V115.686C86.6407 115.352 86.7731 115.033 87.0087 114.797C87.2443 114.562 87.5639 114.429 87.8971 114.429C88.2303 114.429 88.5499 114.562 88.7855 114.797C89.0212 115.033 89.1535 115.352 89.1535 115.686V121.832C89.1522 122.164 89.0192 122.483 88.7838 122.717C88.5483 122.952 88.2295 123.083 87.8971 123.083Z" fill="white"/>
<path d="M87.8971 132.089C87.5639 132.089 87.2443 131.956 87.0087 131.721C86.7731 131.485 86.6407 131.166 86.6407 130.832V129.038C86.6407 128.705 86.7731 128.385 87.0087 128.15C87.2443 127.914 87.5639 127.782 87.8971 127.782C88.2303 127.782 88.5499 127.914 88.7855 128.15C89.0212 128.385 89.1535 128.705 89.1535 129.038V130.832C89.1535 131.166 89.0212 131.485 88.7855 131.721C88.5499 131.956 88.2303 132.089 87.8971 132.089Z" fill="white"/>
<path d="M87.9373 102.684C87.7722 102.685 87.6085 102.653 87.4557 102.59C87.303 102.527 87.1642 102.434 87.0474 102.318C86.9306 102.201 86.8381 102.062 86.7752 101.909C86.7123 101.757 86.6803 101.593 86.6809 101.428V72.1685C86.6809 71.8353 86.8133 71.5157 87.0489 71.2801C87.2845 71.0445 87.6041 70.9121 87.9373 70.9121C88.2706 70.9121 88.5901 71.0445 88.8257 71.2801C89.0614 71.5157 89.1937 71.8353 89.1937 72.1685V101.428C89.1944 101.593 89.1624 101.757 89.0995 101.909C89.0365 102.062 88.944 102.201 88.8272 102.318C88.7104 102.434 88.5717 102.527 88.4189 102.59C88.2662 102.653 88.1025 102.685 87.9373 102.684Z" fill="white"/>
<path d="M87.8569 112.449C87.5237 112.449 87.2041 112.316 86.9685 112.081C86.7329 111.845 86.6005 111.526 86.6005 111.192V107.257C86.6005 106.924 86.7329 106.605 86.9685 106.369C87.2041 106.133 87.5237 106.001 87.8569 106.001C88.1901 106.001 88.5097 106.133 88.7453 106.369C88.9809 106.605 89.1133 106.924 89.1133 107.257V111.192C89.1133 111.526 88.9809 111.845 88.7453 112.081C88.5097 112.316 88.1901 112.449 87.8569 112.449Z" fill="white"/>
<path d="M145.938 189.597H30.1879C25.313 189.597 21.3528 187.356 21.3428 182.2L21.0161 35.562C21.0135 34.614 21.1977 33.6749 21.5583 32.7983C21.9189 31.9216 22.4488 31.1247 23.1177 30.453C23.7866 29.7813 24.5813 29.2481 25.4564 28.8838C26.3316 28.5196 27.2699 28.3314 28.2178 28.3301H147.235C149.144 28.3314 150.976 29.0896 152.327 30.4385C153.679 31.7874 154.441 33.6171 154.446 35.5268L154.783 180.22C154.793 185.396 150.833 189.597 145.938 189.597Z" fill="white"/>
<path d="M153.436 192.406L21.8554 192.879L21.4785 186.31H154.919L153.436 192.406Z" fill="#E1E4FE"/>
<path d="M154.195 196.512H18.5686L18.5334 194.216L18.1515 26.1035L20.4532 26.0684H156.07L156.12 28.35L156.492 194.196V196.457L154.195 196.512ZM23.0264 191.989H151.964L151.602 30.5914H22.6846L23.0264 191.989Z" fill="#25252D"/>
<path d="M121.78 85.6523H71.7397V88.6677H121.78V85.6523Z" fill="#CDCDCF"/>
<path d="M103.547 104.559H71.7397V107.574H103.547V104.559Z" fill="#CDCDCF"/>
<path d="M121.78 125.088H71.7397V128.104H121.78V125.088Z" fill="#CDCDCF"/>
<path d="M103.547 145.975H71.7397V148.99H103.547V145.975Z" fill="#CDCDCF"/>
<path d="M127.278 21.3594H50.1999C42.7058 21.3594 36.6307 27.4345 36.6307 34.9286C36.6307 42.4226 42.7058 48.4978 50.1999 48.4978H127.278C134.772 48.4978 140.847 42.4226 140.847 34.9286C140.847 27.4345 134.772 21.3594 127.278 21.3594Z" fill="#373635"/>
<path opacity="0.5" d="M140.847 33.7977C140.847 37.3965 139.417 40.8479 136.873 43.3926C134.328 45.9373 130.877 47.3669 127.278 47.3669H50.1999C48.1525 47.3715 46.1307 46.9118 44.2865 46.0224C42.4423 45.1331 40.8237 43.8372 39.5525 42.2322C38.2813 40.6272 37.3905 38.7549 36.9471 36.7561C36.5037 34.7572 36.5192 32.6839 36.9926 30.6919C37.6936 33.6683 39.3794 36.3206 41.7767 38.2189C44.1739 40.1172 47.1421 41.1501 50.1999 41.1502H127.273C130.332 41.1513 133.301 40.1188 135.699 38.2205C138.097 36.3221 139.784 33.6691 140.485 30.6919C140.726 31.7097 140.847 32.7519 140.847 33.7977Z" fill="#21201F"/>
<path d="M127.273 50.7641H50.1999C46.0704 50.6601 42.145 48.9465 39.2611 45.989C36.3772 43.0315 34.7631 39.0642 34.7631 34.9334C34.7631 30.8026 36.3772 26.8353 39.2611 23.8778C42.145 20.9203 46.0704 19.2067 50.1999 19.1027H127.273C129.385 19.0494 131.487 19.4196 133.454 20.1912C135.422 20.9628 137.215 22.1204 138.727 23.5957C140.24 25.071 141.443 26.8341 142.264 28.7813C143.085 30.7285 143.508 32.8202 143.508 34.9334C143.508 37.0466 143.085 39.1383 142.264 41.0855C141.443 43.0327 140.24 44.7958 138.727 46.2711C137.215 47.7464 135.422 48.904 133.454 49.6756C131.487 50.4473 129.385 50.8174 127.273 50.7641ZM50.1999 23.6257C47.2593 23.7134 44.4685 24.9432 42.4195 27.0542C40.3704 29.1653 39.2244 31.9915 39.2244 34.9334C39.2244 37.8753 40.3704 40.7015 42.4195 42.8126C44.4685 44.9236 47.2593 46.1534 50.1999 46.2411H127.273C128.786 46.2862 130.293 46.0271 131.705 45.4791C133.116 44.9312 134.403 44.1055 135.489 43.051C136.576 41.9965 137.439 40.7347 138.029 39.3403C138.619 37.946 138.923 36.4474 138.923 34.9334C138.923 33.4194 138.619 31.9208 138.029 30.5265C137.439 29.1321 136.576 27.8703 135.489 26.8158C134.403 25.7613 133.116 24.9356 131.705 24.3877C130.293 23.8397 128.786 23.5806 127.273 23.6257H50.1999Z" fill="#25252D"/>
<path d="M55.9945 93.5727C54.6029 93.5727 53.2426 93.1601 52.0855 92.387C50.9285 91.6139 50.0267 90.515 49.4942 89.2294C48.9616 87.9437 48.8223 86.529 49.0938 85.1642C49.3652 83.7994 50.0354 82.5457 51.0193 81.5617C52.0033 80.5778 53.257 79.9077 54.6218 79.6362C55.9866 79.3647 57.4013 79.504 58.687 80.0366C59.9726 80.5691 61.0715 81.4709 61.8446 82.6279C62.6177 83.785 63.0303 85.1453 63.0303 86.5369C63.0224 88.4004 62.2786 90.1854 60.9608 91.5032C59.643 92.821 57.858 93.5648 55.9945 93.5727ZM55.9945 81.9786C55.0999 81.9786 54.2254 82.2439 53.4816 82.7409C52.7378 83.2379 52.158 83.9443 51.8157 84.7708C51.4733 85.5973 51.3838 86.5067 51.5583 87.3841C51.7328 88.2615 52.1636 89.0674 52.7962 89.7C53.4287 90.3325 54.2347 90.7633 55.112 90.9378C55.9894 91.1123 56.8989 91.0228 57.7254 90.6804C58.5518 90.3381 59.2582 89.7584 59.7552 89.0146C60.2522 88.2707 60.5175 87.3962 60.5175 86.5017C60.5004 85.3106 60.0173 84.1737 59.1718 83.3348C58.3262 82.4958 57.1856 82.0216 55.9945 82.0138V81.9786Z" fill="#CDCDCF"/>
<path d="M55.9945 113.746C54.6029 113.746 53.2426 113.333 52.0855 112.56C50.9285 111.787 50.0267 110.688 49.4942 109.402C48.9616 108.117 48.8223 106.702 49.0938 105.337C49.3652 103.972 50.0354 102.719 51.0193 101.735C52.0033 100.751 53.257 100.081 54.6218 99.809C55.9866 99.5375 57.4013 99.6769 58.687 100.209C59.9726 100.742 61.0715 101.644 61.8446 102.801C62.6177 103.958 63.0303 105.318 63.0303 106.71C63.0303 107.634 62.8483 108.549 62.4948 109.402C62.1412 110.256 61.6229 111.031 60.9696 111.685C60.3162 112.338 59.5406 112.856 58.687 113.21C57.8333 113.564 56.9184 113.746 55.9945 113.746ZM55.9945 102.156C55.0999 102.156 54.2254 102.422 53.4816 102.919C52.7378 103.416 52.158 104.122 51.8157 104.949C51.4733 105.775 51.3838 106.685 51.5583 107.562C51.7328 108.439 52.1636 109.245 52.7962 109.878C53.4287 110.51 54.2347 110.941 55.112 111.116C55.9894 111.29 56.8989 111.201 57.7254 110.858C58.5518 110.516 59.2582 109.936 59.7552 109.192C60.2522 108.449 60.5175 107.574 60.5175 106.68C60.5175 105.48 60.041 104.329 59.1927 103.481C58.3445 102.633 57.194 102.156 55.9945 102.156Z" fill="#CDCDCF"/>
<path d="M55.9945 133.903C54.6029 133.903 53.2426 133.491 52.0855 132.718C50.9285 131.944 50.0267 130.846 49.4942 129.56C48.9616 128.274 48.8223 126.86 49.0938 125.495C49.3652 124.13 50.0354 122.876 51.0193 121.892C52.0033 120.908 53.257 120.238 54.6218 119.967C55.9866 119.695 57.4013 119.835 58.687 120.367C59.9726 120.9 61.0715 121.801 61.8446 122.958C62.6177 124.116 63.0303 125.476 63.0303 126.867C63.0303 128.733 62.2891 130.523 60.9696 131.843C59.6501 133.162 57.8605 133.903 55.9945 133.903ZM55.9945 122.314C55.0999 122.314 54.2254 122.579 53.4816 123.076C52.7378 123.573 52.158 124.28 51.8157 125.106C51.4733 125.933 51.3838 126.842 51.5583 127.72C51.7328 128.597 52.1636 129.403 52.7962 130.036C53.4287 130.668 54.2347 131.099 55.112 131.273C55.9894 131.448 56.8989 131.358 57.7254 131.016C58.5518 130.674 59.2582 130.094 59.7552 129.35C60.2522 128.606 60.5175 127.732 60.5175 126.837C60.5175 125.638 60.041 124.487 59.1927 123.639C58.3445 122.791 57.194 122.314 55.9945 122.314Z" fill="#CDCDCF"/>
<path d="M55.9945 154.066C54.6029 154.066 53.2426 153.654 52.0855 152.881C50.9285 152.108 50.0267 151.009 49.4942 149.723C48.9616 148.437 48.8223 147.023 49.0938 145.658C49.3652 144.293 50.0354 143.039 51.0193 142.055C52.0033 141.071 53.257 140.401 54.6218 140.13C55.9866 139.858 57.4013 139.998 58.687 140.53C59.9726 141.063 61.0715 141.965 61.8446 143.122C62.6177 144.279 63.0303 145.639 63.0303 147.031C63.0224 148.894 62.2786 150.679 60.9608 151.997C59.643 153.315 57.858 154.058 55.9945 154.066ZM55.9945 142.472C55.0999 142.472 54.2254 142.738 53.4816 143.235C52.7378 143.732 52.158 144.438 51.8157 145.264C51.4733 146.091 51.3838 147 51.5583 147.878C51.7328 148.755 52.1636 149.561 52.7962 150.194C53.4287 150.826 54.2347 151.257 55.112 151.431C55.9894 151.606 56.8989 151.516 57.7254 151.174C58.5518 150.832 59.2582 150.252 59.7552 149.508C60.2522 148.764 60.5175 147.89 60.5175 146.995C60.5096 145.798 60.0305 144.652 59.184 143.806C58.3375 142.959 57.1916 142.48 55.9945 142.472Z" fill="#CDCDCF"/>
<path d="M88.7012 29.5967C96.0842 29.5967 102.069 23.6115 102.069 16.2285C102.069 8.84548 96.0842 2.86035 88.7012 2.86035C81.3182 2.86035 75.3331 8.84548 75.3331 16.2285C75.3331 23.6115 81.3182 29.5967 88.7012 29.5967Z" fill="white"/>
<path d="M101.607 15.8614C101.611 17.7601 101.211 19.6379 100.433 21.3698C99.6554 23.1018 98.5175 24.6482 97.0952 25.906C95.673 27.1639 93.9992 28.1044 92.1851 28.6648C90.3711 29.2253 88.4584 29.3929 86.5745 29.1565C84.6907 28.9202 82.8787 28.2852 81.2594 27.2939C79.6401 26.3026 78.2505 24.9777 77.1831 23.4075C76.1157 21.8373 75.3951 20.0577 75.0692 18.1872C74.7432 16.3167 74.8195 14.3983 75.2929 12.5596C76.0252 15.4402 77.6966 17.9946 80.0429 19.8191C82.3892 21.6435 85.2767 22.6341 88.2489 22.6341C91.2211 22.6341 94.1086 21.6435 96.4549 19.8191C98.8013 17.9946 100.473 15.4402 101.205 12.5596C101.477 13.6389 101.612 14.7483 101.607 15.8614Z" fill="#E1E4FE"/>
<path d="M88.7012 31.858C85.61 31.858 82.5881 30.9414 80.0178 29.224C77.4475 27.5065 75.4442 25.0655 74.2613 22.2096C73.0783 19.3536 72.7688 16.211 73.3718 13.1791C73.9749 10.1473 75.4635 7.36232 77.6494 5.17647C79.8352 2.99062 82.6202 1.50204 85.652 0.89896C88.6839 0.295885 91.8265 0.605405 94.6824 1.78838C97.5384 2.97135 99.9794 4.97465 101.697 7.54494C103.414 10.1152 104.331 13.1371 104.331 16.2283C104.327 20.3724 102.679 24.3455 99.7487 27.2758C96.8184 30.2061 92.8452 31.854 88.7012 31.858ZM88.7012 5.1217C86.5045 5.1217 84.3572 5.7731 82.5307 6.99351C80.7042 8.21392 79.2807 9.94854 78.44 11.978C77.5994 14.0075 77.3794 16.2407 77.808 18.3951C78.2365 20.5496 79.2944 22.5286 80.8476 24.0819C82.4009 25.6352 84.3799 26.693 86.5344 27.1216C88.6889 27.5501 90.9221 27.3302 92.9515 26.4895C94.981 25.6489 96.7156 24.2253 97.9361 22.3989C99.1565 20.5724 99.8079 18.425 99.8079 16.2283C99.8039 13.2839 98.6324 10.4612 96.5504 8.37917C94.4684 6.29713 91.6457 5.12569 88.7012 5.1217Z" fill="#25252D"/>
<path opacity="0.5" d="M163.518 44.4473H160V72.2993H163.518V44.4473Z" fill="white"/>
<path opacity="0.5" d="M163.437 77.7671H159.919V84.024H163.437V77.7671Z" fill="white"/>
<path d="M163.518 90.9141H160V99.8949H163.518V90.9141Z" fill="white"/>
<path d="M105.502 230.878H58.854V235.401H105.502V230.878Z" fill="#25252D"/>
<path d="M52.5921 230.878H47.0639V235.401H52.5921V230.878Z" fill="#25252D"/>
<path d="M118.141 230.878H111.764V235.401H118.141V230.878Z" fill="#25252D"/>
<path d="M6.67296 78.9834H0.411034V85.2453H6.67296V78.9834Z" fill="white"/>
<path d="M6.67296 91.4917H0.411034V97.7536H6.67296V91.4917Z" fill="white"/>
<path d="M6.67296 104.021H0.411034V110.283H6.67296V104.021Z" fill="white"/>
<path d="M6.67296 116.55H0.411034V122.812H6.67296V116.55Z" fill="white"/>
<path d="M137.068 215.69V209.428H130.806V215.69H137.068Z" fill="white"/>
<path d="M124.559 215.69V209.428H118.297V215.69H124.559Z" fill="white"/>
<path d="M119.197 215.696V209.434H105.773V215.696H119.197Z" fill="white"/>
<path d="M99.5063 215.696V209.434H93.2444V215.696H99.5063Z" fill="white"/>
<path opacity="0.5" d="M14.4476 141.215H10.9297V169.092H14.4476V141.215Z" fill="white"/>
<path opacity="0.5" d="M14.3571 174.646H10.8392V180.234H14.3571V174.646Z" fill="white"/>
<path opacity="0.5" d="M76.2678 35.6421H48.3907V39.16H76.2678V35.6421Z" fill="white"/>
<path opacity="0.5" d="M87.4046 35.7275H81.8161V39.2455H87.4046V35.7275Z" fill="white"/>
<g clip-path="url(#clip1_13_7460)">
<path opacity="0.08" d="M147.646 143.903H75.884C74.7649 143.903 73.8577 144.811 73.8577 145.93V189.249C73.8577 190.368 74.7649 191.275 75.884 191.275H147.646C148.765 191.275 149.672 190.368 149.672 189.249V145.93C149.672 144.811 148.765 143.903 147.646 143.903Z" fill="#4B2E4C"/>
<path d="M145.563 141.788H73.8012C72.6821 141.788 71.7749 142.695 71.7749 143.814V187.133C71.7749 188.252 72.6821 189.159 73.8012 189.159H145.563C146.682 189.159 147.589 188.252 147.589 187.133V143.814C147.589 142.695 146.682 141.788 145.563 141.788Z" fill="#4B2E4C"/>
<path d="M101.442 145.321H75.752V149.228H101.442V145.321Z" fill="#67FFCA"/>
<path d="M101.442 153.846H75.752V155.507H101.442V153.846Z" fill="white"/>
<path d="M101.442 157.776H75.752V159.437H101.442V157.776Z" fill="white"/>
<path d="M87.4483 161.712H75.752V163.363H87.4483V161.712Z" fill="white"/>
<path d="M77.2331 184.553C76.8551 184.553 76.4857 184.441 76.1716 184.23C75.8575 184.02 75.6128 183.721 75.4684 183.372C75.324 183.023 75.2864 182.639 75.3603 182.268C75.4343 181.897 75.6164 181.557 75.8838 181.29C76.1512 181.023 76.4918 180.841 76.8625 180.767C77.2332 180.693 77.6175 180.731 77.9666 180.876C78.3158 181.021 78.6142 181.266 78.8241 181.58C79.0341 181.894 79.1462 182.264 79.1462 182.642C79.1457 183.149 78.9439 183.635 78.5852 183.994C78.2265 184.352 77.7401 184.553 77.2331 184.553ZM77.2331 181.589C77.0245 181.59 76.8208 181.652 76.6476 181.768C76.4744 181.884 76.3396 182.049 76.2601 182.242C76.1806 182.434 76.1601 182.646 76.2011 182.851C76.2421 183.055 76.3428 183.243 76.4905 183.39C76.6382 183.537 76.8262 183.638 77.0308 183.678C77.2353 183.718 77.4473 183.697 77.6398 183.617C77.8323 183.537 77.9967 183.401 78.1123 183.228C78.2279 183.054 78.2894 182.85 78.289 182.642C78.289 182.503 78.2617 182.366 78.2086 182.238C78.1555 182.11 78.0776 181.994 77.9795 181.896C77.8814 181.799 77.765 181.721 77.6369 181.668C77.5088 181.616 77.3716 181.589 77.2331 181.589Z" fill="#67FFCA"/>
<path d="M79.4033 180.609C79.3313 180.609 79.2611 180.586 79.2028 180.543C79.1292 180.49 79.0797 180.41 79.0653 180.32C79.0508 180.231 79.0725 180.139 79.1256 180.065L80.4336 178.27C80.4591 178.232 80.4921 178.199 80.5307 178.173C80.5693 178.148 80.6126 178.131 80.658 178.122C80.7035 178.114 80.7501 178.115 80.7952 178.125C80.8403 178.135 80.8828 178.155 80.9203 178.182C80.9577 178.209 80.9893 178.243 81.0132 178.283C81.037 178.322 81.0526 178.366 81.0591 178.412C81.0655 178.458 81.0626 178.504 81.0505 178.549C81.0385 178.593 81.0176 178.635 80.989 178.672L79.681 180.477C79.6482 180.519 79.606 180.553 79.5578 180.576C79.5096 180.598 79.4567 180.61 79.4033 180.609ZM92.0236 177.856C91.9781 177.856 91.933 177.847 91.8909 177.83C91.8488 177.812 91.8106 177.787 91.7785 177.754L90.8905 176.854C90.8563 176.823 90.8288 176.785 90.8097 176.743C90.7906 176.7 90.7803 176.655 90.7794 176.608C90.7785 176.562 90.787 176.516 90.8045 176.473C90.822 176.43 90.848 176.391 90.881 176.358C90.914 176.325 90.9533 176.3 90.9965 176.283C91.0397 176.266 91.0859 176.258 91.1324 176.259C91.1788 176.26 91.2244 176.271 91.2665 176.291C91.3087 176.31 91.3464 176.338 91.3774 176.373L91.9894 176.992L92.3322 176.539C92.3874 176.467 92.4691 176.419 92.5593 176.407C92.6495 176.395 92.7408 176.419 92.8131 176.475C92.8853 176.53 92.9327 176.612 92.9448 176.702C92.9568 176.792 92.9326 176.883 92.8773 176.956L92.2911 177.722C92.2613 177.761 92.2236 177.793 92.1804 177.816C92.1372 177.839 92.0896 177.852 92.0408 177.856H92.0236ZM82.1204 176.863C82.057 176.863 81.9949 176.846 81.9408 176.813C81.8867 176.78 81.8428 176.732 81.814 176.676C81.7853 176.619 81.7727 176.556 81.7778 176.493C81.7828 176.43 81.8053 176.369 81.8427 176.318L83.1524 174.514C83.1778 174.475 83.2108 174.442 83.2495 174.416C83.2882 174.39 83.3318 174.373 83.3776 174.364C83.4233 174.356 83.4704 174.357 83.5158 174.367C83.5611 174.377 83.604 174.397 83.6416 174.424C83.6792 174.451 83.7109 174.486 83.7347 174.526C83.7585 174.566 83.7738 174.611 83.7799 174.657C83.7859 174.703 83.7825 174.75 83.7698 174.795C83.7571 174.839 83.7354 174.881 83.7061 174.917L82.4033 176.728C82.3703 176.771 82.3274 176.806 82.2782 176.83C82.229 176.853 82.1749 176.865 82.1204 176.863ZM89.4471 175.248C89.4019 175.248 89.3571 175.239 89.3153 175.222C89.2735 175.205 89.2356 175.179 89.2037 175.147L87.6386 173.561C87.6044 173.53 87.5769 173.492 87.5577 173.45C87.5386 173.407 87.5283 173.362 87.5274 173.315C87.5265 173.269 87.5351 173.223 87.5526 173.18C87.57 173.137 87.5961 173.098 87.6291 173.065C87.6621 173.032 87.7014 173.007 87.7446 172.99C87.7878 172.973 87.834 172.964 87.8804 172.966C87.9268 172.967 87.9725 172.978 88.0146 172.998C88.0567 173.017 88.0944 173.045 88.1254 173.08L89.6923 174.665C89.7395 174.714 89.7715 174.775 89.7842 174.841C89.7969 174.907 89.7896 174.976 89.7635 175.038C89.7373 175.1 89.6933 175.154 89.637 175.191C89.5807 175.228 89.5147 175.248 89.4471 175.248ZM94.0602 175.185C93.9852 175.185 93.9123 175.16 93.8527 175.114C93.7805 175.059 93.7331 174.978 93.7209 174.888C93.7087 174.798 93.7327 174.707 93.7876 174.634L95.1419 172.864C95.1971 172.791 95.2788 172.744 95.369 172.732C95.4592 172.72 95.5504 172.744 95.6227 172.799C95.695 172.855 95.7424 172.936 95.7544 173.026C95.7665 173.117 95.7422 173.208 95.687 173.28L94.3327 175.051C94.3006 175.093 94.2593 175.127 94.2121 175.15C94.1648 175.173 94.1128 175.185 94.0602 175.185ZM84.8375 173.116C84.7746 173.115 84.7129 173.098 84.6594 173.064C84.6058 173.031 84.5624 172.984 84.5339 172.928C84.5054 172.872 84.4929 172.809 84.4978 172.746C84.5026 172.683 84.5247 172.623 84.5615 172.572L85.6209 171.11C85.6502 171.07 85.6879 171.036 85.7314 171.012C85.7749 170.988 85.8232 170.973 85.8729 170.969C85.9224 170.966 85.9721 170.973 86.0186 170.99C86.0651 171.008 86.1072 171.035 86.1421 171.071L86.4386 171.372C86.4729 171.404 86.5004 171.442 86.5195 171.484C86.5386 171.526 86.5489 171.572 86.5498 171.618C86.5507 171.665 86.5421 171.711 86.5246 171.754C86.5072 171.797 86.4811 171.836 86.4481 171.869C86.4151 171.901 86.3758 171.927 86.3326 171.944C86.2894 171.961 86.2432 171.969 86.1968 171.968C86.1504 171.966 86.1047 171.956 86.0626 171.936C86.0205 171.916 85.9828 171.889 85.9518 171.854L85.9381 171.84L85.1152 172.973C85.0835 173.017 85.0418 173.053 84.9935 173.078C84.9452 173.103 84.8918 173.116 84.8375 173.116ZM110.064 171.899C110.016 171.898 109.968 171.888 109.923 171.868C109.879 171.848 109.839 171.819 109.807 171.782L108.333 170.111C108.278 170.042 108.251 169.954 108.258 169.866C108.266 169.778 108.307 169.696 108.374 169.638C108.44 169.58 108.526 169.549 108.614 169.553C108.703 169.557 108.786 169.594 108.847 169.658L110.322 171.329C110.381 171.398 110.412 171.487 110.406 171.577C110.4 171.668 110.359 171.753 110.291 171.813C110.228 171.868 110.148 171.898 110.064 171.899ZM96.8767 171.506C96.8129 171.506 96.7503 171.488 96.6961 171.454C96.6419 171.421 96.5982 171.372 96.5699 171.315C96.5416 171.258 96.5297 171.194 96.5358 171.131C96.5418 171.067 96.5655 171.007 96.6041 170.956L97.9567 169.185C98.0119 169.113 98.0936 169.065 98.1838 169.053C98.2739 169.041 98.3652 169.065 98.4375 169.121C98.5098 169.176 98.5572 169.258 98.5692 169.348C98.5813 169.438 98.557 169.529 98.5018 169.601L97.1458 171.372C97.1141 171.414 97.0733 171.447 97.0267 171.47C96.9801 171.493 96.9288 171.506 96.8767 171.506ZM111.619 170.721C111.554 170.721 111.49 170.702 111.435 170.667C111.38 170.632 111.336 170.582 111.308 170.523C111.281 170.463 111.27 170.397 111.279 170.333C111.288 170.268 111.315 170.207 111.357 170.157L112.792 168.451C112.85 168.382 112.934 168.338 113.025 168.33C113.116 168.323 113.206 168.351 113.275 168.41C113.345 168.469 113.388 168.553 113.396 168.643C113.404 168.734 113.375 168.824 113.316 168.893L111.882 170.599C111.85 170.639 111.809 170.671 111.763 170.693C111.717 170.716 111.667 170.727 111.616 170.728L111.619 170.721ZM125.676 169.763C125.586 169.763 125.5 169.728 125.436 169.665L123.849 168.1C123.789 168.035 123.756 167.95 123.758 167.862C123.759 167.774 123.794 167.69 123.856 167.627C123.918 167.564 124.001 167.527 124.089 167.524C124.177 167.522 124.263 167.553 124.329 167.611L125.916 169.176C125.964 169.224 125.997 169.285 126.011 169.351C126.024 169.418 126.018 169.487 125.992 169.55C125.966 169.612 125.923 169.666 125.866 169.704C125.81 169.742 125.744 169.762 125.676 169.763ZM127.33 169.73C127.264 169.73 127.199 169.711 127.143 169.675C127.087 169.639 127.043 169.587 127.016 169.527C126.989 169.466 126.98 169.399 126.991 169.333C127.001 169.268 127.03 169.207 127.075 169.157L128.561 167.496C128.621 167.433 128.704 167.395 128.791 167.39C128.878 167.385 128.964 167.414 129.031 167.471C129.065 167.501 129.092 167.537 129.112 167.578C129.131 167.618 129.143 167.662 129.145 167.707C129.148 167.753 129.142 167.798 129.127 167.84C129.112 167.883 129.088 167.922 129.058 167.956L127.572 169.617C127.54 169.653 127.5 169.681 127.456 169.701C127.412 169.72 127.365 169.73 127.317 169.73H127.33ZM107.011 168.427C106.963 168.427 106.915 168.417 106.87 168.397C106.826 168.376 106.786 168.347 106.754 168.311L105.28 166.639C105.225 166.57 105.198 166.483 105.205 166.395C105.213 166.307 105.254 166.225 105.32 166.167C105.387 166.108 105.473 166.078 105.561 166.082C105.65 166.085 105.733 166.123 105.794 166.187L107.268 167.858C107.312 167.908 107.34 167.969 107.35 168.034C107.36 168.099 107.35 168.165 107.323 168.225C107.296 168.286 107.252 168.336 107.197 168.372C107.142 168.408 107.077 168.427 107.011 168.427ZM99.6949 167.829C99.6199 167.829 99.5471 167.804 99.4875 167.759C99.4155 167.703 99.3685 167.622 99.3566 167.532C99.3447 167.442 99.3689 167.351 99.4241 167.279L100.777 165.508C100.804 165.472 100.838 165.442 100.877 165.419C100.916 165.397 100.959 165.382 101.004 165.376C101.048 165.37 101.094 165.373 101.137 165.385C101.181 165.396 101.222 165.416 101.257 165.444C101.293 165.471 101.323 165.505 101.346 165.544C101.368 165.583 101.383 165.626 101.389 165.671C101.395 165.715 101.392 165.761 101.381 165.804C101.369 165.848 101.349 165.889 101.322 165.924L99.9675 167.695C99.9345 167.738 99.8918 167.773 99.843 167.796C99.7941 167.819 99.7404 167.83 99.6863 167.829H99.6949ZM114.609 167.179C114.544 167.179 114.479 167.161 114.424 167.125C114.369 167.09 114.325 167.04 114.298 166.981C114.27 166.922 114.26 166.856 114.269 166.791C114.277 166.726 114.304 166.665 114.347 166.615L115.781 164.91C115.84 164.84 115.924 164.797 116.015 164.789C116.105 164.781 116.195 164.81 116.265 164.868C116.334 164.927 116.378 165.011 116.386 165.102C116.393 165.192 116.365 165.282 116.306 165.352L114.871 167.066C114.837 167.104 114.794 167.134 114.747 167.154C114.699 167.173 114.648 167.182 114.597 167.179H114.609ZM122.383 166.514C122.292 166.514 122.206 166.478 122.141 166.415L120.554 164.851C120.489 164.787 120.452 164.7 120.452 164.609C120.451 164.518 120.487 164.431 120.55 164.366C120.614 164.301 120.701 164.265 120.792 164.264C120.883 164.263 120.971 164.299 121.036 164.363L122.623 165.926C122.672 165.974 122.705 166.035 122.719 166.102C122.733 166.168 122.726 166.238 122.701 166.301C122.675 166.364 122.631 166.418 122.574 166.456C122.518 166.494 122.451 166.514 122.383 166.514ZM130.402 166.271C130.318 166.27 130.237 166.239 130.174 166.183C130.107 166.123 130.066 166.038 130.061 165.947C130.055 165.857 130.086 165.768 130.147 165.7L131.637 164.042C131.666 164.008 131.703 163.981 131.743 163.961C131.784 163.941 131.828 163.93 131.873 163.927C131.918 163.924 131.963 163.931 132.006 163.945C132.049 163.96 132.088 163.983 132.122 164.013C132.155 164.043 132.183 164.079 132.203 164.12C132.222 164.16 132.234 164.204 132.237 164.25C132.239 164.295 132.233 164.34 132.218 164.382C132.204 164.425 132.181 164.464 132.151 164.498L130.666 166.161C130.633 166.197 130.592 166.226 130.546 166.245C130.501 166.264 130.452 166.272 130.402 166.271ZM103.938 164.949C103.889 164.949 103.841 164.938 103.797 164.918C103.752 164.898 103.713 164.869 103.681 164.832L102.854 163.896L102.767 164.011C102.712 164.084 102.63 164.131 102.54 164.143C102.45 164.155 102.358 164.131 102.286 164.076C102.214 164.02 102.166 163.939 102.154 163.848C102.142 163.758 102.166 163.667 102.222 163.595L102.565 163.147C102.595 163.107 102.635 163.074 102.68 163.051C102.725 163.028 102.775 163.015 102.825 163.014C102.876 163.012 102.926 163.021 102.973 163.041C103.019 163.061 103.061 163.091 103.094 163.128L104.197 164.38C104.24 164.429 104.268 164.49 104.278 164.555C104.288 164.621 104.279 164.687 104.251 164.747C104.224 164.807 104.18 164.858 104.125 164.894C104.07 164.93 104.005 164.949 103.939 164.949H103.938ZM117.573 163.631C117.507 163.631 117.443 163.612 117.388 163.577C117.333 163.542 117.289 163.492 117.262 163.432C117.234 163.373 117.224 163.307 117.233 163.242C117.241 163.178 117.268 163.117 117.311 163.067L118.168 162.057C118.198 162.021 118.236 161.991 118.278 161.971C118.32 161.95 118.366 161.938 118.414 161.935C118.461 161.933 118.508 161.941 118.552 161.957C118.596 161.974 118.636 162 118.67 162.033L119.318 162.671C119.383 162.735 119.419 162.822 119.42 162.913C119.421 163.004 119.385 163.091 119.321 163.156C119.257 163.221 119.17 163.257 119.079 163.258C118.989 163.259 118.901 163.223 118.836 163.159L118.454 162.782L117.842 163.509C117.81 163.549 117.77 163.581 117.724 163.603C117.678 163.626 117.627 163.637 117.576 163.638L117.573 163.631ZM133.488 162.827C133.403 162.827 133.321 162.796 133.258 162.739C133.191 162.679 133.15 162.594 133.145 162.503C133.141 162.412 133.172 162.323 133.232 162.256L134.717 160.595C134.747 160.561 134.783 160.533 134.824 160.514C134.864 160.494 134.909 160.482 134.954 160.48C134.999 160.477 135.044 160.483 135.086 160.498C135.129 160.513 135.168 160.536 135.202 160.566C135.236 160.596 135.263 160.632 135.283 160.672C135.303 160.713 135.314 160.757 135.317 160.802C135.32 160.847 135.314 160.892 135.299 160.935C135.284 160.978 135.261 161.017 135.231 161.051L133.747 162.712C133.714 162.748 133.674 162.777 133.63 162.797C133.585 162.817 133.537 162.827 133.488 162.827ZM136.574 159.376C136.507 159.376 136.443 159.357 136.387 159.321C136.332 159.285 136.288 159.233 136.261 159.173C136.234 159.113 136.225 159.046 136.235 158.981C136.245 158.915 136.274 158.854 136.318 158.805L137.803 157.142C137.833 157.109 137.869 157.081 137.91 157.061C137.951 157.042 137.995 157.03 138.04 157.027C138.085 157.025 138.13 157.031 138.173 157.046C138.216 157.061 138.255 157.084 138.289 157.114C138.322 157.144 138.35 157.18 138.37 157.221C138.389 157.262 138.401 157.306 138.403 157.351C138.406 157.396 138.4 157.441 138.385 157.484C138.37 157.527 138.347 157.566 138.317 157.6L136.832 159.261C136.8 159.298 136.76 159.327 136.715 159.346C136.671 159.366 136.622 159.376 136.574 159.376ZM139.659 155.925C139.593 155.925 139.528 155.906 139.472 155.87C139.416 155.834 139.372 155.783 139.345 155.722C139.318 155.661 139.309 155.594 139.32 155.529C139.33 155.463 139.359 155.402 139.404 155.353L140.444 154.189C140.505 154.12 140.59 154.079 140.681 154.074C140.773 154.069 140.862 154.1 140.93 154.16C140.999 154.221 141.04 154.306 141.045 154.397C141.05 154.489 141.019 154.578 140.959 154.646L139.915 155.814C139.882 155.849 139.843 155.877 139.799 155.897C139.755 155.916 139.707 155.925 139.659 155.925Z" fill="white"/>
<path d="M139.29 152.438L138.397 153.645L141.898 156.237L142.791 155.03L139.29 152.438Z" fill="#67FFCA"/>
<path d="M142.549 153.123L141.382 152.178L138.64 155.562L139.807 156.507L142.549 153.123Z" fill="#67FFCA"/>
</g>
<path d="M50.0317 120.711L48.657 122.568L61.9722 132.425L63.3469 130.568L50.0317 120.711Z" fill="#FF5F57"/>
<path d="M49.328 131.608L50.9618 133.242L62.6759 121.528L61.0421 119.894L49.328 131.608Z" fill="#FF5F57"/>
<path d="M62.2788 77.6942C62.0208 77.5495 61.717 77.5106 61.4311 77.5858C61.1452 77.661 60.8994 77.8444 60.7453 78.0975L58.6744 81.4945L55.3656 86.9168L55.2731 87.0688L51.4528 84.0018L50.7564 83.4432C50.2997 83.0765 49.6108 82.9611 49.1713 83.4432C48.7973 83.8519 48.6823 84.6413 49.1713 85.0339L54.0835 88.9766L54.7799 89.5352C55.069 89.7681 55.3441 89.8954 55.7213 89.8447C55.8898 89.8239 56.0514 89.7644 56.1934 89.6709C56.3354 89.5774 56.454 89.4524 56.5402 89.3055L58.611 85.9085L61.921 80.4873L62.685 79.2341C62.987 78.7316 62.8065 77.9767 62.2788 77.6942Z" fill="#60FC54"/>
<path d="M62.2788 95.7288C62.0208 95.5841 61.717 95.5453 61.4311 95.6205C61.1452 95.6957 60.8994 95.8791 60.7453 96.1322L58.6744 99.5292L55.3656 104.951L55.2731 105.104L51.4528 102.036L50.7564 101.478C50.2997 101.111 49.6108 100.996 49.1713 101.478C48.7973 101.887 48.6823 102.676 49.1713 103.069L54.0835 107.011L54.7799 107.57C55.069 107.803 55.3441 107.93 55.7213 107.879C55.8898 107.859 56.0514 107.799 56.1934 107.706C56.3354 107.612 56.454 107.487 56.5402 107.34L58.611 103.943L61.921 98.5219L62.685 97.2688C62.987 96.7663 62.8065 96.0114 62.2788 95.7288Z" fill="#60FC54"/>
</g>
<defs>
<clipPath id="clip0_13_7460">
<rect width="172.178" height="234.802" fill="white" transform="translate(0.411034 0.598633)"/>
</clipPath>
<clipPath id="clip1_13_7460">
<rect width="77.8972" height="94.6728" fill="white" transform="translate(71.7749 129.757)"/>
</clipPath>
</defs>
</svg>
