<svg width="261" height="194" viewBox="0 0 261 194" fill="none" xmlns="http://www.w3.org/2000/svg">
<g clip-path="url(#clip0_13_8007)">
<path d="M170.369 14.8535H11.2112C6.37994 14.8535 2.46346 18.77 2.46346 23.6012V63.0712C2.46346 67.9024 6.37994 71.8189 11.2112 71.8189H170.369C175.2 71.8189 179.117 67.9024 179.117 63.0712V23.6012C179.117 18.77 175.2 14.8535 170.369 14.8535Z" fill="white"/>
<path d="M179.117 50.5073V68.4068C179.117 70.2924 175.318 71.8188 170.659 71.8188H10.9314C6.25885 71.8188 2.47382 70.2924 2.47382 68.4068V58.0463C13.2418 60.8989 25.5017 62.8225 38.0759 64.0174C53.2713 65.4609 68.9328 65.8823 84.5288 65.9444C103.178 66.0204 122.137 65.568 139.691 63.0366C155.778 60.7228 170.693 56.4577 179.117 50.5073Z" fill="#E8F0F9"/>
<path d="M170.203 73.2657H11.0454C8.36042 73.263 5.78616 72.1954 3.88728 70.2972C1.9884 68.399 0.919945 65.8251 0.916288 63.1401L0.916288 23.6667C0.919945 20.9817 1.9884 18.4078 3.88728 16.5096C5.78616 14.6113 8.36042 13.5438 11.0454 13.541H170.203C172.889 13.5438 175.463 14.6118 177.362 16.5108C179.261 18.4098 180.329 20.9846 180.332 23.6701V63.1435C180.328 65.8279 179.259 68.4009 177.36 70.2984C175.461 72.1959 172.887 73.263 170.203 73.2657ZM11.0454 16.3038C9.09288 16.3056 7.22082 17.0818 5.83986 18.4621C4.45891 19.8425 3.68183 21.7142 3.67908 23.6667V63.1401C3.68091 65.0932 4.45759 66.9658 5.83864 68.3468C7.2197 69.7279 9.09228 70.5046 11.0454 70.5064H170.203C172.156 70.5046 174.029 69.7279 175.41 68.3468C176.791 66.9658 177.568 65.0932 177.569 63.1401V23.6667C177.568 21.7136 176.791 19.841 175.41 18.4599C174.029 17.0789 172.156 16.3022 170.203 16.3004L11.0454 16.3038Z" fill="#314E5D"/>
<path d="M250.145 103.263H68.218C63.3867 103.263 59.4703 107.179 59.4703 112.01V151.48C59.4703 156.312 63.3867 160.228 68.218 160.228H250.145C254.976 160.228 258.892 156.312 258.892 151.48V112.01C258.892 107.179 254.976 103.263 250.145 103.263Z" fill="white"/>
<path d="M258.892 138.917V156.816C258.892 158.702 254.617 160.228 249.343 160.228H69.0192C63.7457 160.228 59.4703 158.702 59.4703 156.816V146.456C71.6266 149.309 85.4682 151.232 99.662 152.427C116.798 153.871 134.494 154.292 152.103 154.354C173.149 154.43 194.561 153.978 214.377 151.446C232.546 149.132 249.385 144.867 258.892 138.917Z" fill="#E8F0F9"/>
<path d="M131.569 103.404C112.782 104.53 86.6734 103.442 70.4731 107.583C62.7822 109.545 60.8862 113.35 59.6464 116.496L59.6706 107.687C59.6706 106.557 59.7776 105.328 61.8187 104.464C64.3432 103.401 68.774 103.318 72.6764 103.321C91.8364 103.328 112.789 102.569 131.569 103.404Z" fill="#4ED9FF"/>
<path d="M249.958 161.675H68.028C65.3431 161.673 62.7688 160.605 60.8699 158.707C58.971 156.809 57.9026 154.235 57.8989 151.55V112.076C57.9017 109.391 58.9697 106.816 60.8687 104.917C62.7677 103.018 65.3425 101.95 68.028 101.947H249.958C252.644 101.95 255.218 103.018 257.117 104.917C259.016 106.816 260.084 109.391 260.087 112.076V151.55C260.083 154.235 259.015 156.809 257.116 158.707C255.217 160.605 252.643 161.673 249.958 161.675ZM68.028 104.714C66.0755 104.715 64.2035 105.492 62.8225 106.872C61.4415 108.252 60.6645 110.124 60.6617 112.076V151.55C60.6636 153.503 61.4402 155.375 62.8213 156.757C64.2023 158.138 66.0749 158.914 68.028 158.916H249.958C251.911 158.914 253.784 158.138 255.165 156.757C256.546 155.375 257.323 153.503 257.324 151.55V112.076C257.323 110.123 256.546 108.251 255.165 106.87C253.784 105.489 251.911 104.712 249.958 104.71L68.028 104.714Z" fill="#314E5D"/>
<path d="M224.858 1.16748H42.9557C38.1244 1.16748 34.208 5.08396 34.208 9.91518V172.295C34.208 177.126 38.1244 181.043 42.9557 181.043H224.858C229.689 181.043 233.606 177.126 233.606 172.295V9.91518C233.606 5.08396 229.689 1.16748 224.858 1.16748Z" fill="#1DCDFF"/>
<path d="M233.606 113.751V170.257C233.606 176.207 229.33 181.028 224.057 181.028H43.7396C38.4661 181.028 34.1907 176.194 34.1907 170.257V137.58C46.347 146.587 60.1852 152.665 74.3756 156.44C91.5118 161.002 109.204 162.335 126.81 162.528C147.856 162.766 169.26 161.337 189.076 153.342C207.263 146.014 224.102 132.538 233.606 113.751Z" fill="#1AB5E1"/>
<path d="M106.3 1.6197C87.5161 5.18026 61.4249 1.74403 45.2108 14.8121C37.5233 21.0076 35.6273 33.0223 34.3875 42.958L34.4152 15.147C34.4152 11.5865 34.5222 7.6944 36.5632 4.9765C39.0877 1.6197 43.5186 1.36069 47.4176 1.36069C66.5706 1.38141 87.5195 -0.973869 106.3 1.6197Z" fill="#4ED9FF"/>
<path d="M224.672 182.638H42.7657C40.0802 182.635 37.5054 181.567 35.6064 179.668C33.7074 177.769 32.6394 175.194 32.6366 172.509V10.1291C32.6394 7.44354 33.7074 4.86875 35.6064 2.96977C37.5054 1.07079 40.0802 0.0027427 42.7657 0L224.672 0C227.357 0.0027427 229.932 1.07079 231.831 2.96977C233.73 4.86875 234.798 7.44354 234.801 10.1291V172.512C234.797 175.197 233.729 177.771 231.83 179.669C229.931 181.568 227.357 182.635 224.672 182.638ZM42.7657 2.76279C40.8126 2.76462 38.94 3.5413 37.559 4.92235C36.1779 6.30341 35.4013 8.17599 35.3994 10.1291V172.512C35.4013 174.465 36.1779 176.338 37.559 177.719C38.94 179.1 40.8126 179.877 42.7657 179.879H224.672C226.625 179.877 228.497 179.1 229.878 177.719C231.259 176.338 232.036 174.465 232.038 172.512V10.1291C232.036 8.17599 231.259 6.30341 229.878 4.92235C228.497 3.5413 226.625 2.76462 224.672 2.76279H42.7657Z" fill="#314E5D"/>
<path d="M210.878 12.7642H57.7435C54.7185 12.7642 52.2663 15.2164 52.2663 18.2414V162.166C52.2663 165.191 54.7185 167.643 57.7435 167.643H210.878C213.903 167.643 216.356 165.191 216.356 162.166V18.2414C216.356 15.2164 213.903 12.7642 210.878 12.7642Z" fill="white"/>
<path d="M216.093 17.1572V47.2303H51.9935V17.1572C51.9935 14.8503 54.3418 12.9785 57.2393 12.9785H210.847C213.745 12.9785 216.093 14.8503 216.093 17.1572Z" fill="#DCEAEF"/>
<path d="M210.681 169.884H57.5536C55.7351 169.882 53.9917 169.159 52.7058 167.873C51.42 166.587 50.6968 164.844 50.695 163.025V17.9787C50.6977 16.1609 51.4213 14.4183 52.707 13.1332C53.9928 11.8481 55.7357 11.1254 57.5536 11.1235H210.681C212.5 11.1254 214.243 11.8486 215.529 13.1344C216.815 14.4203 217.538 16.1637 217.54 17.9822V163.029C217.537 164.847 216.814 166.589 215.528 167.874C214.242 169.16 212.499 169.882 210.681 169.884ZM57.5536 13.8863C56.4679 13.8882 55.4271 14.3203 54.6594 15.088C53.8917 15.8557 53.4596 16.8964 53.4577 17.9822V163.029C53.4605 164.114 53.893 165.154 54.6606 165.921C55.4282 166.688 56.4685 167.119 57.5536 167.121H210.681C211.767 167.119 212.808 166.687 213.576 165.92C214.343 165.152 214.776 164.111 214.777 163.025V17.9787C214.775 16.8936 214.342 15.8537 213.574 15.0868C212.807 14.3198 211.767 13.8882 210.681 13.8863H57.5536Z" fill="#314E5D"/>
<path d="M140.299 33.0117H70.5076V39.0415H140.299V33.0117Z" fill="white"/>
<path d="M68.3319 62.0698L102.477 62.0698V60.6366L68.3319 60.6366V62.0698Z" fill="#CED5D8"/>
<path d="M68.3319 65.2266L142.648 65.2266V63.7934L68.3319 63.7934V65.2266Z" fill="#CED5D8"/>
<path d="M68.3319 68.3823H102.477V66.9491H68.3319V68.3823Z" fill="#CED5D8"/>
<path d="M68.3319 71.5391L142.648 71.5391V70.1059L68.3319 70.1059V71.5391Z" fill="#CED5D8"/>
<path d="M68.3319 74.6958H102.477V73.2626H68.3319V74.6958Z" fill="#CED5D8"/>
<path d="M68.3319 77.8486L142.648 77.8486V76.4154L68.3319 76.4154V77.8486Z" fill="#CED5D8"/>
<path d="M68.3319 90.5923H102.477V89.1591H68.3319V90.5923Z" fill="#CED5D8"/>
<path d="M68.3319 93.7485L142.648 93.7485V92.3153L68.3319 92.3153V93.7485Z" fill="#CED5D8"/>
<path d="M68.3319 96.9048H102.477V95.4716H68.3319V96.9048Z" fill="#CED5D8"/>
<path d="M68.3319 100.062L142.648 100.062V98.6283L68.3319 98.6283V100.062Z" fill="#CED5D8"/>
<path d="M68.3319 103.218H102.477V101.785H68.3319V103.218Z" fill="#CED5D8"/>
<path d="M68.3319 106.371L142.648 106.371V104.937L68.3319 104.937V106.371Z" fill="#CED5D8"/>
<path d="M68.3319 119.115H102.477V117.682H68.3319V119.115Z" fill="#CED5D8"/>
<path d="M68.3319 122.271L142.648 122.271V120.837L68.3319 120.837V122.271Z" fill="#CED5D8"/>
<path d="M68.3319 125.427H102.477V123.994H68.3319V125.427Z" fill="#CED5D8"/>
<path d="M68.3319 128.584H142.648V127.151L68.3319 127.151V128.584Z" fill="#CED5D8"/>
<path d="M68.3319 131.74H102.477V130.307H68.3319V131.74Z" fill="#CED5D8"/>
<path d="M68.3319 134.894H142.648V133.46H68.3319V134.894Z" fill="#CED5D8"/>
<path d="M183.592 22.4199L209.224 22.4199V19.405L183.592 19.405V22.4199Z" fill="#EEA248"/>
<path d="M154.424 22.4199L180.056 22.4199V19.405L154.424 19.405V22.4199Z" fill="#EEA248"/>
<path d="M60.1472 23.8186C61.7531 23.8186 63.055 22.5167 63.055 20.9108C63.055 19.3048 61.7531 18.0029 60.1472 18.0029C58.5412 18.0029 57.2393 19.3048 57.2393 20.9108C57.2393 22.5167 58.5412 23.8186 60.1472 23.8186Z" fill="#EEA248"/>
<path d="M162.949 129.934L153.677 138.727L172.49 158.566L181.762 149.773L162.949 129.934Z" fill="#314E5D"/>
<g opacity="0.5">
<path d="M154.904 130.248C166.988 118.789 167.494 99.7044 156.036 87.621C144.577 75.5375 125.492 75.0311 113.409 86.4899C101.325 97.9486 100.819 117.033 112.277 129.117C123.736 141.2 142.821 141.707 154.904 130.248Z" fill="#8BDDEB"/>
<path d="M118.266 125.794C115.217 122.58 112.913 118.733 111.52 114.528C110.127 110.322 109.678 105.861 110.206 101.462C110.734 97.0637 112.225 92.8353 114.573 89.0786C116.921 85.3218 120.069 82.129 123.792 79.7275C119.808 81.1873 116.177 83.4713 113.137 86.4303C110.096 89.3892 107.715 92.9565 106.147 96.8989C104.58 100.841 103.862 105.07 104.041 109.309C104.219 113.548 105.291 117.701 107.184 121.498C109.078 125.294 111.752 128.648 115.03 131.341C118.309 134.034 122.119 136.004 126.211 137.123C130.304 138.242 134.586 138.486 138.779 137.837C142.971 137.188 146.98 135.661 150.542 133.357C145.012 135.387 139.008 135.752 133.272 134.408C127.536 133.064 122.319 130.069 118.266 125.794Z" fill="#62D6F8"/>
</g>
<path d="M167.064 76.1773C163.778 72.7041 159.974 69.7602 155.788 67.4503C155.716 67.4054 155.643 67.3675 155.564 67.3295C145.886 62.0591 134.649 60.4023 123.862 62.6552C113.075 64.9081 103.44 70.9239 96.6811 79.6273C89.9217 88.3306 86.4778 99.1542 86.9651 110.163C87.4523 121.172 91.839 131.649 99.3409 139.722C99.4479 139.842 99.5584 139.96 99.6862 140.067C103.116 143.693 107.111 146.741 111.514 149.091L111.639 149.157C121.37 154.304 132.614 155.826 143.364 153.452C154.114 151.078 163.671 144.961 170.33 136.194C176.988 127.427 180.315 116.579 179.717 105.586C179.119 94.5931 174.634 84.1703 167.064 76.1773ZM155.705 87.6222C159.809 91.9493 162.538 97.3961 163.546 103.274C164.554 109.152 163.797 115.196 161.369 120.644C158.942 126.091 154.954 130.696 149.909 133.877C144.865 137.058 138.99 138.671 133.029 138.513C127.067 138.355 121.287 136.433 116.417 132.99C111.548 129.546 107.81 124.736 105.674 119.168C103.539 113.6 103.103 107.524 104.421 101.707C105.739 95.8913 108.752 90.5966 113.079 86.4929C115.952 83.768 119.334 81.6358 123.031 80.218C126.728 78.8002 130.668 78.1246 134.627 78.2298C138.585 78.3349 142.484 79.2189 146.101 80.831C149.717 82.4432 152.981 84.752 155.705 87.6256V87.6222Z" fill="#E7E7E7"/>
<path d="M170.321 135.177C162.436 142.654 152.178 147.13 141.334 147.824C130.489 148.519 119.744 145.388 110.97 138.977C102.196 132.566 95.9485 123.28 93.315 112.737C90.6814 102.194 91.8288 91.0619 96.5573 81.2778C92.7348 86.481 90.0393 92.424 88.6428 98.7275C87.2462 105.031 87.1795 111.556 88.4467 117.887C89.7139 124.218 92.2872 130.215 96.0024 135.495C99.7176 140.775 104.493 145.223 110.024 148.554C115.554 151.885 121.719 154.026 128.124 154.84C134.528 155.655 141.033 155.125 147.221 153.285C153.41 151.444 159.146 148.333 164.065 144.151C168.983 139.969 172.976 134.807 175.787 128.995C174.151 131.213 172.322 133.281 170.321 135.177Z" fill="#CED0D0"/>
<path d="M133.758 156.191C125.808 156.195 117.984 154.202 111.003 150.396L110.831 150.303C100.693 144.725 92.9125 135.673 88.9217 124.812C88.8319 124.578 88.7455 124.332 88.6661 124.08C85.5136 115.01 85.1647 105.2 87.6649 95.9288C90.1651 86.6572 95.3985 78.353 102.684 72.0972C109.969 65.8413 118.969 61.9235 128.512 60.8538C138.055 59.7841 147.699 61.6121 156.189 66.0997C156.282 66.1445 156.375 66.1964 156.465 66.2482C165.402 71.0527 172.579 78.5752 176.958 87.7279C181.338 96.8806 182.692 107.189 180.826 117.162C178.96 127.136 173.97 136.257 166.578 143.207C159.186 150.158 149.775 154.576 139.705 155.825C137.732 156.068 135.746 156.19 133.758 156.191ZM133.838 63.292C126.646 63.2945 119.558 65.0178 113.168 68.3179C106.778 71.6181 101.269 76.3992 97.1037 82.2622C92.9379 88.1252 90.2354 94.8998 89.2217 102.02C88.2081 109.141 88.9128 116.4 91.2769 123.193V123.234C91.3426 123.441 91.4185 123.649 91.4945 123.852C95.2551 134.097 102.594 142.635 112.157 147.892L112.278 147.958C121.706 153.115 132.667 154.732 143.183 152.517C153.699 150.302 163.076 144.401 169.623 135.879C176.17 127.357 179.455 116.776 178.885 106.044C178.315 95.3128 173.928 85.1386 166.515 77.358C163.213 73.8661 159.37 70.9277 155.135 68.6552L155.084 68.6242L154.973 68.5654L154.921 68.5378C148.427 65.095 141.188 63.2973 133.838 63.3023V63.292ZM133.838 139.894C133.551 139.894 133.268 139.894 132.981 139.894C124.666 139.781 116.733 136.384 110.913 130.444C105.093 124.504 101.858 116.503 101.914 108.187C101.971 99.8709 105.314 91.9148 111.214 86.0544C117.115 80.1941 125.093 76.9051 133.41 76.9051C141.726 76.9051 149.704 80.1941 155.605 86.0544C161.505 91.9148 164.848 99.8709 164.905 108.187C164.961 116.503 161.727 124.504 155.906 130.444C150.086 136.384 142.153 139.781 133.838 139.894ZM133.8 79.589C126.436 79.5738 119.351 82.402 114.022 87.4837C109.193 92.0635 106.101 98.176 105.274 104.78C104.446 111.383 105.934 118.07 109.483 123.7C113.033 129.329 118.424 133.554 124.74 135.654C131.055 137.755 137.903 137.6 144.117 135.217C150.331 132.835 155.527 128.371 158.819 122.587C162.112 116.803 163.296 110.056 162.172 103.497C161.048 96.9369 157.683 90.97 152.653 86.6125C147.622 82.255 141.237 79.7766 134.584 79.5994C134.328 79.5994 134.07 79.5994 133.81 79.5994L133.8 79.589Z" fill="#314E5D"/>
<path d="M170.36 146.227L170.357 146.229C166.421 149.961 166.256 156.178 169.989 160.114L197.913 189.561C201.646 193.497 207.862 193.662 211.798 189.929L211.801 189.927C215.737 186.195 215.902 179.978 212.169 176.042L184.245 146.595C180.512 142.659 174.296 142.494 170.36 146.227Z" fill="#426372"/>
<path d="M204.634 194H204.327C202.856 193.967 201.407 193.642 200.062 193.046C198.718 192.449 197.505 191.591 196.495 190.522L168.573 161.071C167.561 160.003 166.768 158.747 166.241 157.373C165.715 155.999 165.463 154.535 165.502 153.064C165.541 151.593 165.87 150.145 166.468 148.801C167.067 147.457 167.925 146.244 168.993 145.231C170.06 144.219 171.317 143.427 172.691 142.9C174.064 142.373 175.528 142.122 176.999 142.161C178.47 142.2 179.919 142.528 181.263 143.127C182.607 143.726 183.82 144.583 184.832 145.651L212.757 175.092C214.794 177.251 215.894 180.13 215.815 183.098C215.736 186.066 214.485 188.882 212.336 190.93C210.261 192.908 207.501 194.008 204.634 194ZM176.699 144.926C175.051 144.93 173.44 145.416 172.064 146.324C170.689 147.232 169.609 148.523 168.958 150.037C168.307 151.552 168.114 153.223 168.401 154.846C168.689 156.469 169.445 157.973 170.576 159.171L198.498 188.616C200.042 190.234 202.164 191.175 204.4 191.235C206.636 191.294 208.804 190.467 210.433 188.934C212.051 187.389 212.992 185.267 213.052 183.031C213.111 180.795 212.284 178.627 210.751 176.998L182.829 147.554C182.04 146.721 181.09 146.059 180.035 145.607C178.981 145.155 177.846 144.923 176.699 144.926Z" fill="#314E5D"/>
<g opacity="0.5">
<path d="M179.773 149.91C183.226 152.81 185.896 156.419 189.121 159.541C190.081 160.47 191.539 159.006 190.586 158.077C187.36 154.969 184.691 151.346 181.237 148.445C180.222 147.592 178.75 149.05 179.773 149.91Z" fill="white"/>
<path d="M173.812 149.257C174.365 148.914 174.987 148.697 175.634 148.622C176.28 148.547 176.935 148.615 177.552 148.821C178.833 149.194 179.382 147.195 178.105 146.822C177.22 146.543 176.287 146.456 175.366 146.567C174.445 146.677 173.559 146.983 172.766 147.464C171.622 148.155 172.662 149.94 173.802 149.253L173.812 149.257Z" fill="white"/>
</g>
<path d="M145.29 70.5034C150.798 72.1784 155.978 74.8583 160.281 78.6813C165.745 83.5162 169.461 89.8637 171.733 96.7569C172.147 98.0174 174.15 97.4787 173.733 96.2044C171.353 88.9866 167.471 82.2902 161.749 77.2101C157.163 73.1419 151.685 70.3031 145.846 68.5004C144.568 68.1102 144.022 70.1098 145.293 70.5L145.29 70.5034Z" fill="white"/>
<path d="M125.166 68.5794C128.768 68.1028 132.501 68.2789 136.1 68.645C137.426 68.7797 137.416 66.7076 136.1 66.5729C132.501 66.2068 128.768 66.0307 125.166 66.5073C123.864 66.68 123.847 68.7555 125.166 68.5794Z" fill="white"/>
</g>
<defs>
<clipPath id="clip0_13_8007">
<rect width="259.167" height="194" fill="white" transform="translate(0.91629)"/>
</clipPath>
</defs>
</svg>
