<svg width="148" height="110" viewBox="0 0 148 110" fill="none" xmlns="http://www.w3.org/2000/svg">
<g clip-path="url(#clip0_13_7953)">
<path d="M96.6747 12.1909H5.99711C3.2446 12.1909 1.01324 14.4223 1.01324 17.1748V39.6622C1.01324 42.4147 3.2446 44.646 5.99711 44.646H96.6747C99.4272 44.646 101.659 42.4147 101.659 39.6622V17.1748C101.659 14.4223 99.4272 12.1909 96.6747 12.1909Z" fill="#1DCDFF"/>
<path d="M101.659 32.5039V42.7018C101.659 43.7761 99.4942 44.6458 96.8399 44.6458H5.83774C3.17561 44.6458 1.01915 43.7761 1.01915 42.7018V36.7991C7.15404 38.4243 14.1389 39.5203 21.3029 40.201C29.9602 41.0235 38.8831 41.2635 47.7687 41.299C58.3936 41.3422 69.1955 41.0845 79.1967 39.6423C88.3617 38.326 96.8596 35.894 101.659 32.5039Z" fill="#1AB5E1"/>
<path d="M37.4015 12.2733C27.9198 12.9147 14.7508 12.2949 6.5677 14.654C2.68962 15.7696 1.72944 17.9379 1.10572 19.7304L1.11556 14.7131C1.11556 14.0697 1.17065 13.3692 2.19969 12.8773C3.47271 12.2713 5.70984 12.2241 7.67938 12.226C17.35 12.228 27.9218 11.803 37.4015 12.2733Z" fill="#4ED9FF"/>
<path d="M96.5802 12.23H5.90266C3.15015 12.23 0.9188 14.4613 0.9188 17.2138V39.7012C0.9188 42.4537 3.15015 44.6851 5.90266 44.6851H96.5802C99.3327 44.6851 101.564 42.4537 101.564 39.7012V17.2138C101.564 14.4613 99.3327 12.23 96.5802 12.23Z" stroke="#314E5D" stroke-width="1.57406" stroke-miterlimit="10"/>
<path d="M142.126 62.5605H38.4758C35.7233 62.5605 33.492 64.7919 33.492 67.5444V90.0318C33.492 92.7843 35.7233 95.0157 38.4758 95.0157H142.126C144.878 95.0157 147.109 92.7843 147.109 90.0318V67.5444C147.109 64.7919 144.878 62.5605 142.126 62.5605Z" fill="#1DCDFF"/>
<path d="M147.109 82.874V93.0719C147.109 94.1462 144.674 95.0159 141.669 95.0159H38.9323C35.9278 95.0159 33.492 94.1462 33.492 93.0719V87.1692C40.4178 88.7944 48.3038 89.8904 56.3906 90.5712C66.1537 91.3936 76.2355 91.6337 86.2682 91.6691C98.2585 91.7124 110.457 91.4546 121.747 90.0124C132.099 88.6961 141.693 86.2642 147.109 82.874Z" fill="#1AB5E1"/>
<path d="M74.569 62.6434C63.8654 63.2848 48.9905 62.665 39.7606 65.0241C35.3789 66.1417 34.2987 68.31 33.5923 70.1024L33.6061 65.0832C33.6061 64.4398 33.6671 63.7393 34.8299 63.2474C36.2682 62.6414 38.7926 62.5942 41.016 62.5962C51.9321 62.5981 63.8693 62.1731 74.569 62.6434Z" fill="#4ED9FF"/>
<path d="M142.017 62.6001H38.3676C35.6151 62.6001 33.3837 64.8314 33.3837 67.584V90.0713C33.3837 92.8239 35.6151 95.0552 38.3676 95.0552H142.017C144.77 95.0552 147.001 92.8239 147.001 90.0713V67.584C147.001 64.8314 144.77 62.6001 142.017 62.6001Z" stroke="#314E5D" stroke-width="1.57406" stroke-miterlimit="10"/>
<path d="M128.061 1.13916H20.6162C18.8927 1.13916 17.4956 2.53629 17.4956 4.25973V105.324C17.4956 107.048 18.8927 108.445 20.6162 108.445H128.061C129.785 108.445 131.182 107.048 131.182 105.324V4.25973C131.182 2.53629 129.785 1.13916 128.061 1.13916Z" fill="white"/>
<path d="M131.674 5.46369V21.2692H17.9895V5.46369C17.9895 2.83501 19.3864 0.700195 21.11 0.700195H128.553C130.277 0.700195 131.674 2.83501 131.674 5.46369Z" fill="#DCEAEF"/>
<path d="M127.926 0.959961H20.4804C18.757 0.959961 17.3598 2.35709 17.3598 4.08053V105.92C17.3598 107.644 18.757 109.041 20.4804 109.041H127.926C129.649 109.041 131.046 107.644 131.046 105.92V4.08053C131.046 2.35709 129.649 0.959961 127.926 0.959961Z" stroke="#314E5D" stroke-width="1.57406" stroke-miterlimit="10"/>
<path d="M28.0713 14.3828C29.3753 14.3828 30.4324 13.3257 30.4324 12.0217C30.4324 10.7177 29.3753 9.66064 28.0713 9.66064C26.7673 9.66064 25.7102 10.7177 25.7102 12.0217C25.7102 13.3257 26.7673 14.3828 28.0713 14.3828Z" fill="#EEA248"/>
<path d="M35.7448 14.3828C37.0488 14.3828 38.1059 13.3257 38.1059 12.0217C38.1059 10.7177 37.0488 9.66064 35.7448 9.66064C34.4408 9.66064 33.3837 10.7177 33.3837 12.0217C33.3837 13.3257 34.4408 14.3828 35.7448 14.3828Z" fill="#EEA248"/>
<path d="M43.4184 14.3828C44.7224 14.3828 45.7795 13.3257 45.7795 12.0217C45.7795 10.7177 44.7224 9.66064 43.4184 9.66064C42.1144 9.66064 41.0573 10.7177 41.0573 12.0217C41.0573 13.3257 42.1144 14.3828 43.4184 14.3828Z" fill="#EEA248"/>
<path d="M38.466 44.4198C38.466 42.1689 39.2373 40.9058 40.7169 40.9058C42.1965 40.9058 42.9678 42.1689 42.9678 44.4198C42.9678 46.6707 42.1965 47.9438 40.7169 47.9438C39.2373 47.9438 38.466 46.6806 38.466 44.4198ZM42.0312 44.4198C42.0312 42.4346 41.5492 41.6259 40.7189 41.6259C39.8885 41.6259 39.4065 42.4346 39.4065 44.4198C39.4065 46.4051 39.9003 47.2236 40.7189 47.2236C41.5374 47.2236 42.0312 46.411 42.0312 44.4198ZM40.7169 43.7784C40.8454 43.7772 40.9714 43.8144 41.0787 43.885C41.1861 43.9557 41.27 44.0568 41.3197 44.1753C41.3694 44.2938 41.3827 44.4245 41.3579 44.5506C41.3332 44.6767 41.2714 44.7926 41.1805 44.8835C41.0896 44.9743 40.9737 45.0361 40.8476 45.0609C40.7215 45.0857 40.5909 45.0724 40.4723 45.0226C40.3538 44.9729 40.2528 44.889 40.1821 44.7817C40.1114 44.6743 40.0743 44.5484 40.0755 44.4198C40.0749 44.3355 40.0912 44.2518 40.1232 44.1738C40.1553 44.0957 40.2025 44.0248 40.2622 43.9651C40.3218 43.9055 40.3928 43.8582 40.4708 43.8262C40.5489 43.7941 40.6325 43.7779 40.7169 43.7784Z" fill="#426372"/>
<path d="M46.6058 42.021L44.9767 43.0048L44.5419 42.3732L46.7062 41.0195H47.505V47.0915H48.8961V47.8234H44.9393V47.0915H46.6078V42.021H46.6058Z" fill="#426372"/>
<path d="M60.1644 41.9424L60.5992 42.6232L57.1442 44.7363L60.5992 46.8574L60.125 47.5205L56.3611 45.1712V44.2936L60.1644 41.9424Z" fill="#426372"/>
<path d="M65.6303 47.8253V44.6398H63.161V47.8273H62.2244V41.0254H63.161V43.8685H65.6283V41.0254H66.5649V47.8273L65.6303 47.8253Z" fill="#426372"/>
<path d="M70.7676 41.8144V47.8273H69.8311V41.8144H67.7297V41.0273H72.9024L72.8041 41.8144H70.7676Z" fill="#426372"/>
<path d="M78.0221 47.8254L77.8253 44.3408C77.7761 43.3826 77.7761 42.2788 77.786 42.0604H77.7545L76.6703 46.6074H75.7712L74.6457 42.0564H74.6064C74.6064 42.2827 74.626 43.4593 74.5867 44.3369L74.4194 47.8214H73.5517L73.9453 41.0195H75.1888L76.2355 45.5607H76.2749L77.2724 41.0195H78.5258L78.9193 47.8214L78.0221 47.8254Z" fill="#426372"/>
<path d="M80.4855 47.8253V41.0254H81.422V47.0009H84.5111L84.4029 47.8194L80.4855 47.8253Z" fill="#426372"/>
<path d="M90.1974 44.2917V45.1692L86.4354 47.5185L85.9612 46.8554L89.4163 44.7344L85.9612 42.6212L86.3961 41.9404L90.1974 44.2917Z" fill="#426372"/>
<path d="M38.466 56.2607C38.466 54.0098 39.2373 52.7466 40.7169 52.7466C42.1965 52.7466 42.9678 54.0098 42.9678 56.2607C42.9678 58.5116 42.1965 59.7905 40.7169 59.7905C39.2373 59.7905 38.466 58.5194 38.466 56.2607ZM42.0312 56.2607C42.0312 54.2754 41.5492 53.4667 40.7189 53.4667C39.8885 53.4667 39.4065 54.2754 39.4065 56.2607C39.4065 58.2459 39.9003 59.0645 40.7189 59.0645C41.5374 59.0645 42.0312 58.2538 42.0312 56.2607ZM40.7169 55.6192C40.8454 55.6181 40.9714 55.6552 41.0787 55.7259C41.1861 55.7965 41.27 55.8976 41.3197 56.0161C41.3694 56.1346 41.3827 56.2653 41.3579 56.3914C41.3332 56.5175 41.2714 56.6334 41.1805 56.7243C41.0896 56.8152 40.9737 56.8769 40.8476 56.9017C40.7215 56.9265 40.5909 56.9132 40.4723 56.8635C40.3538 56.8137 40.2528 56.7299 40.1821 56.6225C40.1114 56.5152 40.0743 56.3892 40.0755 56.2607C40.0747 56.1761 40.0907 56.0923 40.1227 56.014C40.1546 55.9357 40.2018 55.8645 40.2615 55.8047C40.3212 55.7448 40.3922 55.6974 40.4704 55.6652C40.5485 55.633 40.6323 55.6167 40.7169 55.6173V55.6192Z" fill="#426372"/>
<path d="M45.5611 58.9051H48.6501L48.5419 59.6646H44.4946V58.9445C46.8439 56.6149 47.566 55.6763 47.566 54.6493C47.5757 54.4955 47.5523 54.3415 47.4976 54.1975C47.4428 54.0536 47.3579 53.923 47.2485 53.8145C47.1391 53.7061 47.0078 53.6222 46.8633 53.5687C46.7189 53.5152 46.5647 53.4932 46.411 53.5041C45.8483 53.5041 45.4627 53.7127 45.0475 54.2341L44.4159 53.7894C44.9491 53.1283 45.6201 52.7427 46.4602 52.7427C47.7037 52.7427 48.5045 53.5297 48.5045 54.6197C48.5026 55.8062 47.564 56.9907 45.5611 58.9051Z" fill="#426372"/>
<path d="M60.1644 53.7812L60.5992 54.462L57.1442 56.5752L60.5992 58.6962L60.125 59.3593L56.363 57.01V56.1305L60.1644 53.7812Z" fill="#426372"/>
<path d="M64.2176 59.6662H62.3425V52.8643H64.0779C65.2919 52.8643 66.5078 53.2578 66.5078 54.582C66.515 54.9246 66.4003 55.2587 66.1841 55.5247C65.9679 55.7906 65.6642 55.9711 65.3273 56.034V56.0734C66.0081 56.2013 66.8089 56.5967 66.8089 57.7222C66.7931 59.2116 65.4906 59.6662 64.2176 59.6662ZM64.2373 53.6041H63.279V55.735H64.316C65.103 55.735 65.5418 55.4083 65.5418 54.639C65.5418 53.8697 65.0479 53.6041 64.2373 53.6041ZM64.3848 56.4866H63.279V58.9067H64.3455C65.0085 58.9067 65.8074 58.7099 65.8074 57.7419C65.8074 56.7738 65.1659 56.4866 64.3848 56.4866Z" fill="#426372"/>
<path d="M70.3151 59.7905C68.6466 59.7905 67.7887 58.3994 67.7887 56.2863C67.7887 54.2144 68.6466 52.7446 70.3151 52.7446C71.9836 52.7446 72.8414 54.1573 72.8414 56.2686C72.8434 58.3424 71.9816 59.7905 70.3151 59.7905ZM70.3151 53.5218C69.2093 53.5218 68.7646 54.4899 68.7646 56.2764C68.7646 58.063 69.2388 59.0113 70.3151 59.0113C71.4209 59.0113 71.8636 58.063 71.8636 56.2567C71.8636 54.4505 71.4209 53.514 70.3151 53.514V53.5218Z" fill="#426372"/>
<path d="M75.6511 59.6662H74.0613V52.8643H75.5429C77.1524 52.8643 78.7501 53.4073 78.7501 56.2308C78.7501 59.0542 77.0934 59.6662 75.6511 59.6662ZM75.7515 53.6159H75.0018V58.9283H75.7613C76.7294 58.9283 77.7545 58.4345 77.7545 56.2347C77.7545 53.9208 76.6703 53.6139 75.7515 53.6139V53.6159Z" fill="#426372"/>
<path d="M82.6282 57.0493V59.6662H81.6798V57.0591L79.3895 52.8623H80.4264L82.1658 56.1875H82.1973L83.9445 52.8623H84.9282L82.6282 57.0493Z" fill="#426372"/>
<path d="M90.1974 56.1305V57.0081L86.4354 59.3574L85.9612 58.6943L89.4163 56.5732L85.9612 54.4601L86.3961 53.7793L90.1974 56.1305Z" fill="#426372"/>
<path d="M38.466 68.0995C38.466 65.8486 39.2373 64.5854 40.7169 64.5854C42.1965 64.5854 42.9678 65.8486 42.9678 68.0995C42.9678 70.3504 42.1965 71.6235 40.7169 71.6235C39.2373 71.6235 38.466 70.3603 38.466 68.0995ZM42.0312 68.0995C42.0312 66.1143 41.5492 65.3056 40.7189 65.3056C39.8885 65.3056 39.4065 66.1143 39.4065 68.0995C39.4065 70.0848 39.9003 70.9033 40.7189 70.9033C41.5374 70.9033 42.0312 70.0927 42.0312 68.0995ZM40.7169 67.464C40.8454 67.4628 40.9714 67.5 41.0787 67.5706C41.1861 67.6413 41.27 67.7424 41.3197 67.8609C41.3694 67.9794 41.3827 68.11 41.3579 68.2362C41.3332 68.3623 41.2714 68.4782 41.1805 68.569C41.0896 68.6599 40.9737 68.7217 40.8476 68.7465C40.7215 68.7713 40.5909 68.758 40.4723 68.7082C40.3538 68.6585 40.2528 68.5746 40.1821 68.4673C40.1114 68.3599 40.0743 68.234 40.0755 68.1054C40.0749 68.0211 40.0912 67.9374 40.1232 67.8594C40.1553 67.7813 40.2025 67.7104 40.2622 67.6507C40.3218 67.591 40.3928 67.5438 40.4708 67.5118C40.5489 67.4797 40.6325 67.4635 40.7169 67.464Z" fill="#426372"/>
<path d="M46.3697 71.6235C45.9706 71.6357 45.5736 71.5598 45.207 71.4014C44.8405 71.2429 44.5133 71.0057 44.2487 70.7066L44.839 70.2128C45.0252 70.4267 45.2558 70.5976 45.5147 70.7134C45.7736 70.8293 46.0546 70.8874 46.3382 70.8837C47.2551 70.8837 47.81 70.3702 47.81 69.5398C47.81 68.5915 47.2197 68.2767 46.4327 68.2767H45.9093L46.0175 67.5762H46.3697C47.021 67.5762 47.6329 67.2122 47.6329 66.4213C47.6329 65.6992 47.08 65.3037 46.3796 65.3037C45.7893 65.3037 45.3958 65.5122 44.9491 65.9254L44.4553 65.3824C44.9798 64.8662 45.687 64.5784 46.4229 64.5816C47.7254 64.5816 48.536 65.3686 48.536 66.2894C48.5366 66.661 48.408 67.0213 48.1721 67.3084C47.9363 67.5956 47.6079 67.7918 47.2433 67.8635V67.9028C47.6618 67.9227 48.0554 68.1072 48.3384 68.4161C48.6215 68.7249 48.771 69.1331 48.7544 69.5517C48.7584 70.7243 47.8002 71.6235 46.3697 71.6235Z" fill="#426372"/>
<path d="M60.1644 65.6201L60.5992 66.3009L57.1442 68.4141L60.5992 70.5351L60.1231 71.2021L56.3611 68.841V67.9635L60.1644 65.6201Z" fill="#426372"/>
<path d="M65.6303 71.505V68.3175H63.161V71.505H62.2244V64.709H63.161V67.5521H65.6283V64.709H66.5649V71.5109H65.6283L65.6303 71.505Z" fill="#426372"/>
<path d="M69.3903 65.4508V67.6721H71.897V68.4218H69.3903V70.7612H72.4617V71.501H68.4597V64.709H72.3948L72.2866 65.4586L69.3903 65.4508Z" fill="#426372"/>
<path d="M77.5184 69.7971H74.8995L74.3762 71.505H73.4396L75.6413 64.709H76.8218L79.0314 71.505H78.0476L77.5184 69.7971ZM75.1297 69.0376H77.2941L76.2375 65.5531H76.1981L75.1297 69.0376Z" fill="#426372"/>
<path d="M81.5716 71.505H79.9818V64.709H81.4633C83.0728 64.709 84.6705 65.252 84.6705 68.0755C84.6705 70.899 83.0118 71.505 81.5716 71.505ZM81.6699 65.4527H80.9203V70.7652H81.6798C82.6478 70.7652 83.6729 70.2713 83.6729 68.0716C83.6749 65.7597 82.5986 65.4508 81.6699 65.4508V65.4527Z" fill="#426372"/>
<path d="M87.1555 65.4508V67.6721H89.6563V68.4218H87.1555V70.7612H90.2269V71.501H86.219V64.709H90.1541L90.0459 65.4586L87.1555 65.4508Z" fill="#426372"/>
<path d="M94.7346 68.5044L96.7278 71.505H95.6122L93.7882 68.6225H92.9205V71.505H91.984V64.709H93.7705C95.4685 64.709 96.3559 65.3583 96.3559 66.6333C96.3618 67.6446 95.6515 68.2664 94.7346 68.5044ZM93.865 65.433H92.9284V67.9004H93.8768C94.8251 67.9004 95.3662 67.5462 95.3662 66.6274C95.3623 65.7774 94.8802 65.433 93.863 65.433H93.865Z" fill="#426372"/>
<path d="M102.036 67.9713V68.841L98.2743 71.2021L97.8001 70.539L101.255 68.418L97.8001 66.3048L98.2349 65.624L102.036 67.9713Z" fill="#426372"/>
<path d="M38.466 79.9384C38.466 77.6875 39.2373 76.4243 40.7169 76.4243C42.1965 76.4243 42.9658 77.6954 42.9658 79.9384C42.9658 82.1814 42.1945 83.4623 40.7149 83.4623C39.2353 83.4623 38.466 82.1991 38.466 79.9384ZM42.0312 79.9384C42.0312 77.9531 41.5492 77.1444 40.7189 77.1444C39.8885 77.1444 39.4065 77.9531 39.4065 79.9384C39.4065 81.9237 39.9003 82.7422 40.7189 82.7422C41.5374 82.7422 42.0312 81.9315 42.0312 79.9384ZM40.7169 79.297C40.8453 79.2962 40.9711 79.3337 41.0782 79.4046C41.1853 79.4755 41.2689 79.5767 41.3183 79.6952C41.3677 79.8138 41.3808 79.9444 41.3557 80.0703C41.3307 80.1963 41.2688 80.312 41.1778 80.4027C41.0869 80.4934 40.971 80.555 40.8449 80.5796C40.7188 80.6042 40.5883 80.5908 40.4699 80.541C40.3515 80.4912 40.2506 80.4074 40.18 80.3C40.1094 80.1927 40.0723 80.0668 40.0735 79.9384C40.073 79.8539 40.0893 79.77 40.1214 79.6919C40.1536 79.6137 40.201 79.5427 40.2609 79.483C40.3208 79.4233 40.3919 79.3761 40.4702 79.3442C40.5485 79.3122 40.6323 79.2962 40.7169 79.297Z" fill="#426372"/>
<path d="M48.0186 81.7151V83.3443H47.141V81.7151H44.3569V81.0737L46.35 76.4224L47.1095 76.7391L45.3112 80.995H47.1371L47.2276 79.2242H48.0146V80.995H48.8725V81.7171L48.0186 81.7151Z" fill="#426372"/>
<path d="M60.1644 77.459L60.5992 78.1398L57.1442 80.2529L60.5992 82.374L60.125 83.0371L56.363 80.6878V79.8102L60.1644 77.459Z" fill="#426372"/>
<path d="M62.6593 84.3714L61.9273 84.0448L66.1419 75.3481L66.864 75.6944L62.6593 84.3714Z" fill="#426372"/>
<path d="M71.5547 83.3439V80.1564H69.0795V83.3439H68.1429V76.542H69.0795V79.3851H71.5547V76.542H72.4912V83.3439H71.5547Z" fill="#426372"/>
<path d="M75.3167 77.3015V79.5229H77.8233V80.2725H75.3167V82.6119H78.388V83.3518H74.3801V76.542H78.3152L78.207 77.2916L75.3167 77.3015Z" fill="#426372"/>
<path d="M83.4368 81.6302H80.82L80.2966 83.338H79.36L81.5617 76.5361H82.7423L84.944 83.338H83.9602L83.4368 81.6302ZM81.0482 80.8707H83.2125L82.1559 77.3861H82.1146L81.0482 80.8707Z" fill="#426372"/>
<path d="M87.492 83.3439H85.9022V76.542H87.3838C88.9933 76.542 90.5909 77.085 90.5909 79.9085C90.5909 82.732 88.9342 83.3439 87.492 83.3439ZM87.5904 77.3015H86.8407V82.6139H87.6002C88.5683 82.6139 89.5934 82.1201 89.5934 79.9203C89.5934 77.5986 88.5171 77.3015 87.5904 77.3015Z" fill="#426372"/>
<path d="M93.074 77.3015V79.5229H95.5807V80.2725H93.074V82.6119H96.1493V83.3518H92.1374V76.542H96.0726L95.9526 77.3015H93.074Z" fill="#426372"/>
<path d="M100.653 80.3414L102.642 83.3439H101.527L99.7106 80.4614H98.841V83.3439H97.9044V76.542H99.6909C101.389 76.542 102.276 77.1913 102.276 78.4663C102.282 79.4835 101.572 80.1053 100.653 80.3414ZM99.7854 77.272H98.8488V79.7413H99.7972C100.746 79.7413 101.287 79.3871 101.287 78.4682C101.285 77.6183 100.801 77.272 99.7834 77.272H99.7854Z" fill="#426372"/>
<path d="M107.955 79.8102V80.6878L104.193 83.0371L103.719 82.374L107.168 80.2529L103.713 78.1398L104.147 77.459L107.955 79.8102Z" fill="#426372"/>
</g>
<defs>
<clipPath id="clip0_13_7953">
<rect width="147.656" height="109.655" fill="white" transform="translate(0.13176 0.172852)"/>
</clipPath>
</defs>
</svg>
