<svg width="277" height="198" viewBox="0 0 277 198" fill="none" xmlns="http://www.w3.org/2000/svg">
<g clip-path="url(#clip0_13_7794)">
<path d="M73.8577 179.78L80.3769 192.447L83.0923 191.049L76.3407 177.932" fill="#F96440"/>
<path opacity="0.2" d="M77.0521 180.426L80.0255 186.208L77.106 187.203L74.5692 182.277L77.0521 180.426Z" fill="#463E3B"/>
<path d="M83.7754 191.27L79.7052 193.365L72.8373 180.02L74.195 179.32L80.3628 191.31L81.7205 190.61L75.3175 178.172L76.6752 177.472L83.7754 191.27Z" fill="#314E5D"/>
<path d="M67.9592 187.966L130.807 155.611C132.039 154.976 133.134 154.106 134.03 153.049C134.925 151.992 135.604 150.768 136.026 149.449C136.449 148.129 136.608 146.74 136.493 145.359C136.379 143.978 135.994 142.633 135.359 141.401L80.0595 33.9647C79.4254 32.7328 78.555 31.6378 77.4977 30.7423C76.4405 29.8468 75.2172 29.1684 73.8978 28.7457C72.5783 28.323 71.1885 28.1643 69.8078 28.2787C68.427 28.3932 67.0823 28.7785 65.8504 29.4126L3.0023 61.7593C2.12357 62.2119 1.4606 62.995 1.15921 63.9364C0.857826 64.8777 0.942702 65.9003 1.39517 66.7791L62.9394 186.359C63.392 187.237 64.1751 187.9 65.1165 188.202C66.0579 188.503 67.0804 188.418 67.9592 187.966Z" fill="#E8F0F9"/>
<path d="M66.0857 29.8657L3.23757 62.2096C2.68674 62.4926 2.21525 62.9086 1.86581 63.4199C1.51638 63.9311 1.30006 64.5215 1.23645 65.1375C1.50008 64.8823 1.8 64.6674 2.12647 64.4998L64.9746 32.1531C66.2064 31.519 67.5511 31.1337 68.9319 31.0192C70.3127 30.9048 71.7025 31.0635 73.0219 31.4862C74.3414 31.9089 75.5647 32.5874 76.6219 33.4829C77.6791 34.3783 78.5496 35.4733 79.1836 36.7052L134.484 144.153C135.136 145.418 135.524 146.802 135.626 148.221C135.727 149.64 135.539 151.066 135.073 152.41C136.08 150.854 136.658 149.059 136.749 147.208C136.841 145.357 136.443 143.514 135.595 141.866L80.2947 34.4179C79.6607 33.1859 78.7902 32.091 77.733 31.1955C76.6758 30.3 75.4525 29.6215 74.133 29.1988C72.8136 28.7761 71.4238 28.6174 70.043 28.7318C68.6622 28.8463 67.3175 29.2316 66.0857 29.8657Z" fill="white"/>
<path d="M5.80274 60.8892L4.14175 61.7395C3.70689 61.9646 3.32064 62.2731 3.00508 62.6476C2.68951 63.022 2.45081 63.4549 2.30261 63.9216C2.15442 64.3883 2.09963 64.8796 2.14139 65.3675C2.18314 65.8554 2.32062 66.3302 2.54596 66.765L64.0761 186.344C64.2999 186.78 64.6073 187.167 64.9808 187.483C65.3542 187.8 65.7863 188.04 66.2525 188.189C66.7186 188.339 67.2096 188.395 67.6975 188.355C68.1854 188.314 68.6605 188.178 69.0958 187.954L70.7568 187.104L5.80274 60.8892Z" fill="#BCD9EA"/>
<path d="M131.513 156.41L68.6508 188.754C67.5914 189.298 66.3595 189.399 65.2255 189.036C64.0914 188.672 63.1479 187.873 62.6021 186.815L1.05788 67.2384C0.513957 66.179 0.41262 64.947 0.776108 63.813C1.1396 62.6789 1.93821 61.7355 2.99663 61.1897L65.8447 28.843C68.5145 27.4764 71.617 27.2234 74.4729 28.1392C77.3289 29.0551 79.7056 31.0652 81.0827 33.7296L136.383 141.178C137.749 143.845 138.003 146.944 137.091 149.799C136.178 152.653 134.173 155.03 131.513 156.41ZM3.69674 62.5474C2.99811 62.9079 2.47111 63.531 2.23144 64.2798C1.99177 65.0286 2.05901 65.8418 2.41841 66.5411L63.9598 186.118C64.3204 186.816 64.9435 187.343 65.6923 187.583C66.441 187.823 67.2543 187.755 67.9536 187.396L130.802 155.044C133.107 153.854 134.847 151.798 135.638 149.327C136.43 146.856 136.209 144.172 135.025 141.864L79.725 34.424C78.5349 32.1185 76.4789 30.3792 74.0081 29.5874C71.5372 28.7957 68.8533 29.0163 66.5448 30.2007L3.69674 62.5474Z" fill="#314E5D"/>
<path opacity="0.2" d="M91.5475 82.1985L83.9568 74.6703L71.7432 62.553L71.4739 62.2866C70.9746 61.7915 70.2992 61.5149 69.596 61.5176C68.8929 61.5203 68.2195 61.8019 67.724 62.3008L67.4575 62.57L29.819 100.512L29.5525 100.795C29.0575 101.295 28.7809 101.97 28.7835 102.673C28.7862 103.376 29.0679 104.05 29.5667 104.545L39.6035 114.503L49.371 124.177L49.6544 124.443C50.1537 124.938 50.8292 125.215 51.5323 125.212C52.2355 125.209 52.9088 124.928 53.4044 124.429L91.5758 85.9343C92.0647 85.4337 92.336 84.7603 92.3307 84.0606C92.3254 83.3609 92.0439 82.6917 91.5475 82.1985Z" fill="#463E3B"/>
<path d="M71.6768 59.944L28.6927 96.0631C27.9784 96.6633 27.8859 97.7289 28.4861 98.4432L47.9133 121.563C48.5135 122.277 49.5791 122.37 50.2934 121.769L93.2775 85.6503C93.9918 85.0501 94.0842 83.9844 93.484 83.2702L74.0569 60.1506C73.4567 59.4363 72.3911 59.3438 71.6768 59.944Z" fill="white"/>
<g opacity="0.2">
<path d="M61.7376 112.149L51.3267 120.902C51.0216 121.159 50.6687 121.354 50.2882 121.475C49.9078 121.595 49.5073 121.639 49.1096 121.605C48.712 121.57 48.3251 121.458 47.9711 121.273C47.6171 121.089 47.303 120.837 47.0467 120.531L29.3456 99.4653C29.2782 99.3867 29.2166 99.3033 29.1614 99.2158C32.7328 99.9641 36.6103 99.9018 40.2696 99.6665C42.2168 99.5389 44.1811 99.3831 46.1142 99.6155C51.1623 100.228 55.5784 103.482 58.6991 107.49C59.8347 108.959 60.8508 110.517 61.7376 112.149Z" fill="#DED6D3"/>
</g>
<path d="M50.8874 122.164C50.1983 122.515 49.4105 122.622 48.6527 122.468C47.8948 122.313 47.2118 121.907 46.7151 121.314L28.5236 99.667C28.2344 99.3234 28.0157 98.9261 27.8801 98.4979C27.7445 98.0697 27.6946 97.6189 27.7333 97.1714C27.772 96.7239 27.8985 96.2884 28.1056 95.8898C28.3127 95.4913 28.5964 95.1374 28.9403 94.8485L70.4507 59.9707C70.7934 59.6793 71.1905 59.4588 71.619 59.3219C72.0474 59.1851 72.4988 59.1345 72.947 59.1733C73.3951 59.212 73.8311 59.3393 74.2297 59.5477C74.6283 59.7561 74.9817 60.0415 75.2693 60.3873L93.4607 82.0311C93.7499 82.3748 93.9686 82.7721 94.1042 83.2003C94.2398 83.6285 94.2897 84.0793 94.251 84.5268C94.2123 84.9743 94.0858 85.4098 93.8787 85.8083C93.6716 86.2069 93.388 86.5608 93.0441 86.8497L51.528 121.73C51.3314 121.898 51.1165 122.044 50.8874 122.164ZM71.7829 60.9145C71.6573 60.9795 71.5394 61.0584 71.4314 61.1498L29.9238 96.0248C29.5408 96.3475 29.3015 96.809 29.2585 97.3081C29.2154 97.8071 29.3722 98.3028 29.6943 98.6863L47.897 120.33C48.2198 120.713 48.6813 120.952 49.1803 120.995C49.6793 121.039 50.175 120.882 50.5586 120.56L92.0548 85.6762C92.4379 85.3535 92.6771 84.892 92.7202 84.393C92.7632 83.8939 92.6065 83.3982 92.2844 83.0147L74.093 61.3709C73.8174 61.0433 73.4388 60.819 73.0192 60.7345C72.5996 60.6501 72.1637 60.7106 71.7829 60.906V60.9145Z" fill="#314E5D"/>
<path opacity="0.2" d="M57.7722 36.2804C57.3565 35.4723 56.6368 34.8625 55.7714 34.585C54.9061 34.3076 53.9659 34.3852 53.1578 34.8008L50.655 36.0905C49.9464 36.4583 49.3886 37.0621 49.0781 37.7976C48.7675 38.533 48.7238 39.3539 48.9543 40.1182C48.9801 40.5966 49.1066 41.0641 49.3256 41.4901L112.999 165.225C113.205 165.626 113.488 165.983 113.832 166.274C114.176 166.566 114.575 166.787 115.005 166.924C115.435 167.061 115.887 167.112 116.337 167.074C116.786 167.036 117.224 166.909 117.624 166.702L120.127 165.412C120.924 164.793 121.489 163.923 121.732 162.944C121.974 161.964 121.88 160.932 121.465 160.012L57.7722 36.2804Z" fill="#463E3B"/>
<path d="M55.474 33.047L53.3065 34.1623C51.5318 35.0756 50.8334 37.2546 51.7467 39.0293L115.25 162.434C116.163 164.209 118.342 164.907 120.117 163.994L122.284 162.879C124.059 161.966 124.757 159.786 123.844 158.012L60.341 34.6068C59.4277 32.8321 57.2487 32.1337 55.474 33.047Z" fill="#938D35"/>
<path d="M56.0999 33.5908L122.559 162.722C122.526 162.743 122.492 162.762 122.457 162.779L121.204 163.425L54.7366 34.2768L55.7825 33.7382C55.8845 33.6853 55.9903 33.6362 56.0999 33.5908Z" fill="#DAE23B"/>
<path d="M51.8727 34.8221L51.4216 35.0542L118.235 164.891L118.686 164.659L51.8727 34.8221Z" fill="#463E3B"/>
<path d="M53.4604 34.5774L53.0092 34.8096L119.822 164.646L120.273 164.414L53.4604 34.5774Z" fill="#463E3B"/>
<path d="M54.8149 33.8777L54.3638 34.1099L121.177 163.947L121.628 163.715L54.8149 33.8777Z" fill="#463E3B"/>
<path d="M56.1737 33.1809L55.7225 33.4131L122.536 163.25L122.987 163.018L56.1737 33.1809Z" fill="#463E3B"/>
<path d="M57.5324 32.4832L57.0812 32.7153L123.894 162.552L124.345 162.32L57.5324 32.4832Z" fill="#463E3B"/>
<path d="M122.726 163.79L120.224 165.08C119.236 165.587 118.087 165.682 117.029 165.343C115.972 165.004 115.092 164.259 114.583 163.272L50.8874 39.537C50.3802 38.549 50.2858 37.4001 50.6248 36.3426C50.9639 35.2851 51.7087 34.4053 52.6958 33.8964L55.1986 32.6067C56.1865 32.0996 57.3354 32.0051 58.3929 32.3442C59.4504 32.6832 60.3302 33.428 60.8391 34.4151L124.521 158.161C125.025 159.146 125.12 160.291 124.784 161.346C124.448 162.4 123.708 163.279 122.726 163.79ZM53.393 35.2541C52.7675 35.5773 52.2953 36.135 52.0797 36.8052C51.8641 37.4755 51.9225 38.2039 52.2422 38.8312L115.924 162.574C116.247 163.202 116.807 163.675 117.479 163.89C118.151 164.105 118.881 164.045 119.509 163.722L122.012 162.433C122.639 162.109 123.113 161.55 123.328 160.877C123.543 160.205 123.483 159.475 123.16 158.847L59.4814 35.1124C59.1577 34.4851 58.5984 34.0119 57.9261 33.7967C57.2538 33.5815 56.5237 33.6418 55.8958 33.9644L53.393 35.2541Z" fill="#314E5D"/>
<path d="M228.309 0.900391H99.4697C95.5045 0.900391 92.2901 4.11483 92.2901 8.08003V189.453C92.2901 193.418 95.5045 196.633 99.4697 196.633H228.309C232.275 196.633 235.489 193.418 235.489 189.453V8.08003C235.489 4.11483 232.275 0.900391 228.309 0.900391Z" fill="#1DCDFF"/>
<path d="M235.489 123.408V184.915C235.489 191.389 232.419 196.636 228.632 196.636H99.1466C95.3598 196.636 92.2901 191.389 92.2901 184.915V149.34C101.02 159.142 110.958 165.754 121.15 169.861C133.458 174.827 146.164 176.276 158.806 176.488C173.919 176.746 189.293 175.193 203.522 166.494C216.569 158.515 228.661 143.853 235.489 123.408Z" fill="#1AB5E1"/>
<path d="M144.064 1.39373C130.575 5.26274 111.836 1.52978 100.193 15.7473C94.6654 22.4905 93.3077 35.5629 92.4176 46.3763L92.4346 16.1102C92.4346 12.2326 92.5112 8.00081 93.9794 5.05583C95.7991 1.39089 98.9737 1.11028 101.774 1.11312C115.533 1.13296 130.575 -1.41804 144.064 1.39373Z" fill="#4ED9FF"/>
<path d="M228.173 1.1333H99.3337C95.3685 1.1333 92.154 4.34774 92.154 8.31294V189.686C92.154 193.651 95.3685 196.866 99.3337 196.866H228.173C232.138 196.866 235.353 193.651 235.353 189.686V8.31294C235.353 4.34774 232.138 1.1333 228.173 1.1333Z" stroke="#314E5D" stroke-width="15.84" stroke-miterlimit="10"/>
<path d="M217.598 13.8003H110.326C107.843 13.8003 105.83 15.813 105.83 18.2957V177.838C105.83 180.321 107.843 182.333 110.326 182.333H217.598C220.081 182.333 222.093 180.321 222.093 177.838V18.2957C222.093 15.813 220.081 13.8003 217.598 13.8003Z" fill="white"/>
<path d="M221.952 18.582V51.3028H105.691V18.582C105.691 16.0707 107.355 14.0469 109.41 14.0469H218.247C220.288 14.0356 221.952 16.0707 221.952 18.582Z" fill="#EA4583"/>
<path d="M217.459 13.52H110.187C107.704 13.52 105.691 15.5327 105.691 18.0154V178.777C105.691 181.259 107.704 183.272 110.187 183.272H217.459C219.942 183.272 221.955 181.259 221.955 178.777V18.0154C221.955 15.5327 219.942 13.52 217.459 13.52Z" stroke="#314E5D" stroke-width="15.84" stroke-miterlimit="10"/>
<path d="M201.7 35.8345H125.754V42.399H201.7V35.8345Z" fill="white"/>
<path d="M123.387 84.7432H160.543V83.1814H123.387V84.7432Z" fill="#AFE6FF"/>
<path d="M123.39 88.1787L204.256 88.1787V86.6169L123.39 86.6169V88.1787Z" fill="#AFE6FF"/>
<path d="M123.387 91.6143H160.543V90.0525H123.387V91.6143Z" fill="#AFE6FF"/>
<path d="M123.39 95.0474L204.256 95.0474V93.4856L123.39 93.4856V95.0474Z" fill="#AFE6FF"/>
<path d="M123.387 98.4849H160.543V96.9231H123.387V98.4849Z" fill="#AFE6FF"/>
<path d="M123.39 101.917L204.256 101.917V100.355L123.39 100.355V101.917Z" fill="#AFE6FF"/>
<path d="M188.434 24.3105L216.328 24.3105V21.0283L188.434 21.0283V24.3105Z" fill="#EEA248"/>
<path d="M156.694 24.3105L184.588 24.3105V21.0283L156.694 21.0283V24.3105Z" fill="#EEA248"/>
<path d="M114.481 25.8318C116.228 25.8318 117.644 24.4156 117.644 22.6686C117.644 20.9216 116.228 19.5054 114.481 19.5054C112.734 19.5054 111.318 20.9216 111.318 22.6686C111.318 24.4156 112.734 25.8318 114.481 25.8318Z" fill="#EEA248"/>
<path d="M134.52 74.3008C138.404 74.3008 141.553 71.1524 141.553 67.2686C141.553 63.3848 138.404 60.2363 134.52 60.2363C130.637 60.2363 127.488 63.3848 127.488 67.2686C127.488 71.1524 130.637 74.3008 134.52 74.3008Z" fill="#EA4583"/>
<path d="M195.932 60.9395H191.017C188.684 60.9395 186.793 62.8303 186.793 65.1628V70.0777C186.793 72.4102 188.684 74.301 191.017 74.301H195.932C198.264 74.301 200.155 72.4102 200.155 70.0777V65.1628C200.155 62.8303 198.264 60.9395 195.932 60.9395Z" fill="#958FEE"/>
<path d="M163.007 61.9428C163.105 61.7656 163.248 61.6179 163.423 61.515C163.597 61.4122 163.796 61.3579 163.999 61.3579C164.201 61.3579 164.4 61.4122 164.575 61.515C164.749 61.6179 164.893 61.7656 164.991 61.9428L168.063 67.2631L171.136 72.5833C171.236 72.7562 171.288 72.9524 171.288 73.152C171.287 73.3517 171.234 73.5477 171.134 73.7203C171.034 73.8928 170.889 74.0359 170.716 74.1348C170.543 74.2338 170.346 74.2853 170.147 74.284H157.854C157.654 74.2853 157.458 74.2338 157.284 74.1348C157.111 74.0359 156.967 73.8928 156.866 73.7203C156.766 73.5477 156.713 73.3517 156.712 73.152C156.712 72.9524 156.765 72.7562 156.864 72.5833L159.937 67.2631L163.007 61.9428Z" fill="#EEA248"/>
<path d="M270.821 50.4299L251.187 43.3283C248.027 42.1851 244.537 43.8206 243.394 46.9814L196.119 177.682C194.976 180.843 196.612 184.332 199.772 185.475L219.406 192.577C222.567 193.72 226.056 192.085 227.199 188.924L274.474 58.2231C275.617 55.0623 273.982 51.5732 270.821 50.4299Z" fill="#E8F0F9"/>
<path d="M272.135 50.1686L267.541 48.5303C268.709 48.9475 269.664 49.8115 270.196 50.9324C270.727 52.0534 270.792 53.3395 270.375 54.5081L222.723 188.135C222.305 189.303 221.441 190.258 220.32 190.79C219.2 191.321 217.913 191.386 216.745 190.97L221.339 192.608C222.508 193.024 223.794 192.96 224.915 192.428C226.036 191.897 226.9 190.942 227.317 189.773L274.97 56.1549C275.177 55.5758 275.269 54.9614 275.238 54.347C275.208 53.7325 275.057 53.1301 274.794 52.574C274.531 52.018 274.16 51.5194 273.704 51.1066C273.248 50.6939 272.715 50.3751 272.135 50.1686Z" fill="#BCD9EA"/>
<path opacity="0.2" d="M272.136 50.1685L249.809 42.2065C248.64 41.7901 247.354 41.8548 246.233 42.3863C245.112 42.9178 244.248 43.8727 243.831 45.041L242.011 50.143C242.428 48.9747 243.292 48.0198 244.413 47.4883C245.534 46.9568 246.82 46.8921 247.989 47.3085L270.316 55.2705C271.484 55.6877 272.439 56.5517 272.971 57.6727C273.502 58.7936 273.567 60.0797 273.15 61.2483L274.97 56.1463C275.386 54.9777 275.322 53.6916 274.79 52.5707C274.259 51.4497 273.304 50.5857 272.136 50.1685Z" fill="#463E3B"/>
<path d="M267.113 60.4685L266.567 62.001L271.671 63.8216L272.218 62.2892L267.113 60.4685Z" fill="#314E5D"/>
<path d="M265.655 64.553L265.109 66.0854L270.213 67.9061L270.76 66.3737L265.655 64.553Z" fill="#314E5D"/>
<path d="M264.197 68.638L263.651 70.1704L268.755 71.991L269.302 70.4586L264.197 68.638Z" fill="#314E5D"/>
<path d="M258.574 71.6699L258.021 73.1992L268.209 76.8844L268.763 75.3551L258.574 71.6699Z" fill="#314E5D"/>
<path d="M262.133 76.0389L261.586 77.5713L266.691 79.3919L267.237 77.8595L262.133 76.0389Z" fill="#314E5D"/>
<path d="M260.677 80.1248L260.131 81.6572L265.235 83.4779L265.782 81.9455L260.677 80.1248Z" fill="#314E5D"/>
<path d="M259.222 84.2093L258.676 85.7417L263.78 87.5623L264.327 86.0299L259.222 84.2093Z" fill="#314E5D"/>
<path d="M253.547 87.2934L252.994 88.8228L263.182 92.508L263.735 90.9786L253.547 87.2934Z" fill="#314E5D"/>
<path d="M257.155 91.6092L256.608 93.1416L261.713 94.9622L262.259 93.4298L257.155 91.6092Z" fill="#314E5D"/>
<path d="M255.7 95.6946L255.153 97.2271L260.258 99.0477L260.804 97.5153L255.7 95.6946Z" fill="#314E5D"/>
<path d="M254.242 99.7796L253.695 101.312L258.799 103.133L259.346 101.6L254.242 99.7796Z" fill="#314E5D"/>
<path d="M247.681 102.041L247.134 103.573L257.343 107.215L257.89 105.682L247.681 102.041Z" fill="#314E5D"/>
<path d="M251.158 106.817L250.612 108.35L255.716 110.17L256.263 108.638L251.158 106.817Z" fill="#314E5D"/>
<path d="M249.7 110.902L249.154 112.435L254.258 114.255L254.805 112.723L249.7 110.902Z" fill="#314E5D"/>
<path d="M248.245 114.984L247.698 116.517L252.803 118.337L253.349 116.805L248.245 114.984Z" fill="#314E5D"/>
<path d="M242.469 118.18L241.916 119.709L252.104 123.395L252.657 121.865L242.469 118.18Z" fill="#314E5D"/>
<path d="M245.667 122.206L245.121 123.738L250.225 125.559L250.772 124.027L245.667 122.206Z" fill="#314E5D"/>
<path d="M244.213 126.289L243.666 127.822L248.771 129.642L249.317 128.11L244.213 126.289Z" fill="#314E5D"/>
<path d="M242.755 130.374L242.208 131.906L247.313 133.727L247.859 132.194L242.755 130.374Z" fill="#314E5D"/>
<path d="M236.93 133.619L236.377 135.148L246.566 138.833L247.119 137.304L236.93 133.619Z" fill="#314E5D"/>
<path d="M240.689 137.777L240.143 139.309L245.247 141.13L245.794 139.597L240.689 137.777Z" fill="#314E5D"/>
<path d="M239.234 141.861L238.688 143.394L243.792 145.214L244.339 143.682L239.234 141.861Z" fill="#314E5D"/>
<path d="M237.777 145.944L237.23 147.477L242.335 149.297L242.881 147.765L237.777 145.944Z" fill="#314E5D"/>
<path d="M231.9 149.243L231.347 150.772L241.536 154.458L242.089 152.928L231.9 149.243Z" fill="#314E5D"/>
<path d="M235.202 153.166L234.656 154.699L239.76 156.519L240.307 154.987L235.202 153.166Z" fill="#314E5D"/>
<path d="M233.744 157.251L233.198 158.783L238.302 160.604L238.849 159.071L233.744 157.251Z" fill="#314E5D"/>
<path d="M232.289 161.336L231.742 162.868L236.847 164.689L237.393 163.156L232.289 161.336Z" fill="#314E5D"/>
<path d="M225.728 163.598L225.182 165.13L235.391 168.772L235.937 167.239L225.728 163.598Z" fill="#314E5D"/>
<path d="M229.715 168.555L229.168 170.088L234.273 171.909L234.819 170.376L229.715 168.555Z" fill="#314E5D"/>
<path d="M228.257 172.64L227.71 174.173L232.815 175.993L233.361 174.461L228.257 172.64Z" fill="#314E5D"/>
<path d="M226.799 176.722L226.252 178.254L231.357 180.075L231.903 178.543L226.799 176.722Z" fill="#314E5D"/>
<path d="M220.238 178.986L219.692 180.519L229.901 184.16L230.447 182.627L220.238 178.986Z" fill="#314E5D"/>
<path d="M253.652 44.1628L203.214 185.575L204.234 185.938L254.672 44.5266L253.652 44.1628Z" fill="white"/>
<path d="M197.34 183.473L195.81 182.926L245.514 43.556C245.659 43.1498 245.959 42.8178 246.349 42.6328C246.739 42.4479 247.186 42.4251 247.592 42.5697L197.34 183.473Z" fill="white"/>
<path d="M247.6 42.5817L197.344 183.481L198.877 184.028L249.132 43.1283L247.6 42.5817Z" fill="white"/>
<path d="M249.129 43.1261L198.874 184.025L200.406 184.572L250.661 43.6727L249.129 43.1261Z" fill="white"/>
<path d="M215.098 182.91C215.551 181.642 214.889 180.247 213.621 179.795C212.353 179.343 210.959 180.004 210.506 181.272C210.054 182.54 210.715 183.935 211.983 184.387C213.251 184.839 214.646 184.178 215.098 182.91Z" fill="white"/>
<path d="M211.705 185.145C211.1 184.93 210.572 184.54 210.187 184.025C209.803 183.51 209.58 182.892 209.547 182.251C209.514 181.609 209.671 180.972 210 180.42C210.328 179.867 210.813 179.425 211.393 179.148C211.973 178.871 212.622 178.772 213.258 178.864C213.894 178.956 214.488 179.234 214.966 179.663C215.444 180.092 215.784 180.654 215.944 181.277C216.103 181.899 216.074 182.555 215.86 183.161C215.572 183.975 214.973 184.641 214.194 185.013C213.414 185.385 212.519 185.433 211.705 185.145ZM213.343 180.553C213.04 180.445 212.712 180.429 212.4 180.508C212.088 180.587 211.806 180.756 211.59 180.995C211.374 181.233 211.234 181.531 211.187 181.849C211.141 182.168 211.189 182.493 211.327 182.784C211.465 183.074 211.686 183.318 211.963 183.483C212.239 183.648 212.558 183.727 212.88 183.711C213.201 183.694 213.51 183.583 213.768 183.391C214.027 183.199 214.222 182.934 214.33 182.631C214.474 182.225 214.452 181.778 214.267 181.388C214.082 180.998 213.75 180.698 213.343 180.553Z" fill="#314E5D"/>
<path d="M260.836 53.0513C261.288 51.7833 260.627 50.3888 259.359 49.9365C258.091 49.4842 256.696 50.1455 256.244 51.4135C255.792 52.6815 256.453 54.0761 257.721 54.5284C258.989 54.9806 260.383 54.3194 260.836 53.0513Z" fill="white"/>
<path d="M257.439 55.2906C256.833 55.0755 256.305 54.6857 255.921 54.1705C255.537 53.6554 255.314 53.038 255.281 52.3962C255.247 51.7545 255.405 51.1173 255.733 50.565C256.062 50.0128 256.547 49.5703 257.127 49.2934C257.707 49.0165 258.355 48.9176 258.991 49.0094C259.627 49.1011 260.222 49.3792 260.7 49.8086C261.178 50.238 261.518 50.7995 261.677 51.422C261.836 52.0446 261.808 52.7004 261.594 53.3065C261.306 54.1205 260.707 54.7868 259.927 55.1589C259.148 55.5309 258.253 55.5783 257.439 55.2906ZM259.077 50.696C258.774 50.5879 258.446 50.5721 258.134 50.6507C257.821 50.7292 257.54 50.8986 257.324 51.1373C257.108 51.3761 256.968 51.6735 256.921 51.9919C256.874 52.3103 256.923 52.6355 257.061 52.9262C257.199 53.2169 257.42 53.4602 257.696 53.6252C257.973 53.7903 258.292 53.8696 258.613 53.8533C258.935 53.837 259.244 53.7257 259.502 53.5335C259.76 53.3413 259.956 53.0769 260.064 52.7736C260.208 52.3673 260.185 51.9202 260 51.5307C259.816 51.1411 259.483 50.8409 259.077 50.696Z" fill="#314E5D"/>
<path d="M221.969 193.983L198.159 185.48C196.985 185.059 196.025 184.19 195.491 183.062C194.956 181.935 194.89 180.641 195.308 179.465L243.493 44.3674C243.914 43.1928 244.784 42.2331 245.911 41.6985C247.039 41.164 248.332 41.0984 249.508 41.5159L273.317 50.0193C274.492 50.4403 275.452 51.3098 275.986 52.4373C276.521 53.5647 276.586 54.8581 276.169 56.0339L227.983 191.132C227.562 192.307 226.693 193.266 225.565 193.801C224.438 194.335 223.145 194.401 221.969 193.983ZM248.961 43.0607C248.191 42.787 247.344 42.83 246.606 43.1802C245.868 43.5304 245.299 44.1592 245.024 44.9286L196.839 180.027C196.568 180.796 196.612 181.641 196.963 182.377C197.314 183.113 197.941 183.681 198.709 183.955L222.519 192.458C223.288 192.732 224.135 192.689 224.874 192.339C225.612 191.989 226.181 191.36 226.456 190.591L274.641 55.4926C274.915 54.7227 274.872 53.8758 274.522 53.1376C274.171 52.3995 273.543 51.8305 272.773 51.5555L248.961 43.0607Z" fill="#314E5D"/>
<path opacity="0.1" d="M243.417 92.9941C243.532 90.8436 243.94 88.7189 244.63 86.679C245.15 85.0064 245.976 83.4447 247.065 82.073C248.18 80.6743 249.729 79.6854 251.467 79.2612L251.58 79.7913C249.961 80.1907 248.519 81.1158 247.482 82.4216C246.435 83.7423 245.642 85.2453 245.143 86.8547C244.469 88.848 244.07 90.924 243.958 93.0253L243.417 92.9941Z" fill="black"/>
<path opacity="0.1" d="M226.252 98.9207C225.873 98.7855 225.505 98.6206 225.152 98.4275L225.413 97.9513C229.024 99.9354 234.012 98.5437 236.09 94.9921C236.694 93.9604 237.122 92.6991 237.436 91.0239C237.966 88.1895 237.924 85.6555 237.306 83.4786C236.569 80.8851 234.965 78.7508 232.904 77.6227L233.165 77.1465C235.353 78.3426 237.054 80.596 237.827 83.3312C238.468 85.5988 238.516 88.2093 237.969 91.1231C237.643 92.8635 237.195 94.1815 236.552 95.2699C234.542 98.6968 229.965 100.23 226.252 98.9207Z" fill="black"/>
<path opacity="0.1" d="M227.252 92.7541L227.303 92.2156C229.491 92.4282 231.711 90.7247 232.249 88.4203C232.742 86.3001 231.85 83.82 230.024 82.244L230.379 81.833C232.363 83.5337 233.318 86.2349 232.779 88.545C232.181 91.1016 229.704 92.9922 227.252 92.7541Z" fill="black"/>
<path opacity="0.1" d="M206.683 156.95C206.295 156.813 205.929 156.622 205.594 156.383L205.909 155.941C206.935 156.675 208.247 156.865 209.696 156.494C212.856 155.683 216.232 152.381 218.298 148.081C219.231 146.14 220.024 143.852 220.798 140.882C222.096 135.887 222.689 131.528 222.558 127.951C222.405 123.699 221.195 120.451 219.239 119.056L219.554 118.614C221.648 120.108 222.938 123.504 223.1 127.931C223.23 131.57 222.632 135.972 221.322 141.018C220.54 144.022 219.735 146.341 218.788 148.316C216.654 152.752 213.145 156.176 209.832 157.027C208.798 157.318 207.701 157.292 206.683 156.95Z" fill="black"/>
<path opacity="0.1" d="M209.372 146.256L209.33 145.715C211.657 145.528 214.619 141.9 215.795 137.779C216.889 133.958 216.541 129.879 214.928 127.628L215.367 127.311C217.099 129.726 217.47 133.893 216.317 137.926C215.061 142.314 211.946 146.044 209.372 146.256Z" fill="black"/>
<path opacity="0.1" d="M246.674 130.931C244.486 129.734 242.785 127.481 242.011 124.746C241.37 122.478 241.322 119.868 241.869 116.954C242.195 115.214 242.643 113.896 243.287 112.807C245.506 109.015 250.835 107.535 254.692 109.647L254.432 110.123C250.823 108.139 245.832 109.531 243.754 113.082C243.151 114.114 242.723 115.375 242.408 117.05C241.878 119.885 241.92 122.419 242.538 124.596C243.275 127.189 244.88 129.323 246.94 130.452L246.674 130.931Z" fill="black"/>
<path opacity="0.1" d="M249.46 126.231C247.476 124.53 246.521 121.829 247.059 119.519C247.657 116.968 250.135 115.069 252.586 115.307L252.535 115.845C250.347 115.633 248.128 117.336 247.589 119.641C247.096 121.761 247.989 124.241 249.814 125.817L249.46 126.231Z" fill="black"/>
<path opacity="0.1" d="M227.119 184.377C224.027 182.676 221.623 179.499 220.526 175.632C219.619 172.432 219.551 168.713 220.328 164.578C220.79 162.109 221.424 160.244 222.312 158.705C225.447 153.351 232.969 151.265 238.414 154.244L238.153 154.72C232.958 151.885 225.773 153.869 222.779 158.971C221.912 160.454 221.297 162.262 220.846 164.669C220.087 168.719 220.149 172.356 221.033 175.474C222.091 179.201 224.398 182.276 227.363 183.889L227.119 184.377Z" fill="black"/>
<path opacity="0.1" d="M231.104 177.693C228.324 175.292 226.963 171.494 227.72 168.24C228.57 164.646 232.037 162.004 235.475 162.325L235.424 162.863C232.246 162.554 229.029 165.023 228.25 168.362C227.536 171.423 228.817 175.006 231.458 177.279L231.104 177.693Z" fill="black"/>
<path d="M249.497 46.1326L201.244 181.417L202.776 181.964L251.029 46.6792L249.497 46.1326Z" fill="#314E5D"/>
<path opacity="0.1" d="M227.745 140.61C227.119 138.887 226.328 136.744 226.393 134.573C226.436 132.872 226.96 131.243 227.496 129.667C227.779 128.777 228.094 127.858 228.304 126.943C228.852 124.366 228.704 121.69 227.874 119.189C227.045 116.689 225.564 114.455 223.584 112.717L223.936 112.306C225.99 114.109 227.526 116.427 228.386 119.021C229.246 121.615 229.4 124.391 228.831 127.065C228.615 128.006 228.309 128.938 228.009 129.84C227.499 131.379 226.974 132.957 226.935 134.59C226.884 136.656 227.643 138.748 228.253 140.429L227.745 140.61Z" fill="black"/>
<path opacity="0.1" d="M248.17 73.6602C247.544 71.9369 246.753 69.794 246.818 67.6229C246.861 65.9222 247.385 64.2924 247.921 62.7164C248.204 61.8264 248.519 60.9081 248.729 59.9925C249.277 57.4158 249.129 54.7395 248.299 52.2391C247.47 49.7387 245.989 47.5045 244.009 45.7665L244.361 45.3555C246.414 47.1587 247.951 49.4767 248.811 52.0707C249.671 54.6648 249.825 57.4413 249.256 60.1144C249.04 61.0554 248.734 61.988 248.434 62.8893C247.924 64.4284 247.399 66.0072 247.36 67.6399C247.309 69.7062 248.068 71.798 248.678 73.4788L248.17 73.6602Z" fill="black"/>
<path opacity="0.1" d="M263.377 84.2642C262.751 82.5409 261.96 80.398 262.025 78.2269C262.068 76.5262 262.592 74.8964 263.128 73.3204C263.411 72.4304 263.726 71.5121 263.935 70.5965C264.484 68.0198 264.336 65.3435 263.506 62.8431C262.677 60.3427 261.196 58.1085 259.216 56.3705L259.568 55.9595C261.621 57.7627 263.157 60.0807 264.018 62.6747C264.878 65.2688 265.032 68.0453 264.463 70.7184C264.247 71.6595 263.941 72.592 263.641 73.4933C263.131 75.0324 262.606 76.6112 262.566 78.2439C262.515 80.3102 263.275 82.402 263.884 84.0828L263.377 84.2642Z" fill="black"/>
<path opacity="0.1" d="M206.81 187.665L206.354 187.382C207.383 185.763 207.272 183.697 207.164 181.713C207.136 181.194 207.108 180.675 207.099 180.165C207.107 178.42 207.233 176.678 207.476 174.95C207.876 171.628 208.256 168.487 207.043 165.562C206.167 163.45 204.492 161.704 203.001 160.236L203.38 159.851C204.914 161.356 206.629 163.15 207.544 165.355C208.814 168.413 208.395 171.769 208.018 175.015C207.773 176.716 207.643 178.432 207.629 180.151C207.629 180.653 207.666 181.163 207.692 181.676C207.816 183.753 207.933 185.899 206.81 187.665Z" fill="black"/>
</g>
<defs>
<clipPath id="clip0_13_7794">
<rect width="275.876" height="198" fill="white" transform="translate(0.561844)"/>
</clipPath>
</defs>
</svg>
